<?xml version="1.0" encoding="UTF-8" standalone="no"?>
<!DOCTYPE svg PUBLIC "-//W3C//DTD SVG 1.1//EN"
 "http://www.w3.org/Graphics/SVG/1.1/DTD/svg11.dtd">
<!-- Generated by graphviz version 16.1.0 (20260904.0139)
 -->
<!-- Title: 01_metric_dictionary_p1 Pages: 1 -->
<svg width="649pt" height="562pt"
 viewBox="0.00 0.00 649.00 562.00" xmlns="http://www.w3.org/2000/svg" xmlns:xlink="http://www.w3.org/1999/xlink">
<g id="graph0" class="graph" transform="scale(1 1) rotate(0) translate(4 557.5)">
<title>01_metric_dictionary_p1</title>
<polygon fill="white" stroke="none" points="-4,4 -4,-557.5 644.5,-557.5 644.5,4 -4,4"/>
<text xml:space="preserve" text-anchor="middle" x="320.25" y="-18.5" font-family="Cambria" font-size="10.00" fill="#5a5a5a">Rows 1 to 5 of 22. Definition, unit, direction of improvement and source field</text>
<text xml:space="preserve" text-anchor="middle" x="320.25" y="-6.5" font-family="Cambria" font-size="10.00" fill="#5a5a5a">for every quantity reported in this appendix.</text>
<!-- t -->
<g id="node1" class="node">
<title>t</title>
<polygon fill="#ffffff" stroke="none" points="8,-524 8,-549.5 109.58,-549.5 109.58,-524 8,-524"/>
<polyline fill="none" stroke="#000000" points="8,-524 109.58,-524 109.58,-549.5"/>
<text xml:space="preserve" text-anchor="start" x="14" y="-534.05" font-family="Cambria" font-weight="bold" font-size="11.00" fill="#1a1a1a">Dimension</text>
<polygon fill="#ffffff" stroke="none" points="109.58,-524 109.58,-549.5 272.92,-549.5 272.92,-524 109.58,-524"/>
<polyline fill="none" stroke="#000000" points="109.58,-524 272.92,-524"/>
<text xml:space="preserve" text-anchor="start" x="115.58" y="-534.05" font-family="Cambria" font-weight="bold" font-size="11.00" fill="#1a1a1a">Metric</text>
<polygon fill="#ffffff" stroke="none" points="272.92,-524 272.92,-549.5 309.25,-549.5 309.25,-524 272.92,-524"/>
<polyline fill="none" stroke="#000000" points="272.92,-524 309.25,-524"/>
<text xml:space="preserve" text-anchor="start" x="278.92" y="-534.05" font-family="Cambria" font-weight="bold" font-size="11.00" fill="#1a1a1a">Unit</text>
<polygon fill="#ffffff" stroke="none" points="309.25,-524 309.25,-549.5 452.33,-549.5 452.33,-524 309.25,-524"/>
<polyline fill="none" stroke="#000000" points="309.25,-524 452.33,-524"/>
<text xml:space="preserve" text-anchor="start" x="315.25" y="-534.05" font-family="Cambria" font-weight="bold" font-size="11.00" fill="#1a1a1a">Definition</text>
<polygon fill="#ffffff" stroke="none" points="452.33,-524 452.33,-549.5 529.92,-549.5 529.92,-524 452.33,-524"/>
<polyline fill="none" stroke="#000000" points="452.33,-524 529.92,-524"/>
<text xml:space="preserve" text-anchor="start" x="458.33" y="-534.05" font-family="Cambria" font-weight="bold" font-size="11.00" fill="#1a1a1a">Better when</text>
<polygon fill="#ffffff" stroke="none" points="529.92,-524 529.92,-549.5 632.5,-549.5 632.5,-524 529.92,-524"/>
<polyline fill="none" stroke="#000000" points="529.92,-524 632.5,-524"/>
<text xml:space="preserve" text-anchor="start" x="535.92" y="-534.05" font-family="Cambria" font-weight="bold" font-size="11.00" fill="#1a1a1a">Source</text>
<polygon fill="#ffffff" stroke="none" points="8,-379 8,-524 109.58,-524 109.58,-379 8,-379"/>
<polyline fill="none" stroke="#000000" points="109.58,-379 109.58,-524"/>
<text xml:space="preserve" text-anchor="start" x="14" y="-448.8" font-family="Cambria" font-weight="bold" font-size="11.00" fill="#1a1a1a">Central tendency</text>
<polygon fill="#ffffff" stroke="none" points="109.58,-379 109.58,-524 272.92,-524 272.92,-379 109.58,-379"/>
<text xml:space="preserve" text-anchor="start" x="114.58" y="-447.75" font-family="Cambria" font-size="11.00" fill="#1a1a1a">Median</text>
<polygon fill="#ffffff" stroke="none" points="272.92,-379 272.92,-524 309.25,-524 309.25,-379 272.92,-379"/>
<text xml:space="preserve" text-anchor="start" x="277.92" y="-447.75" font-family="Cambria" font-size="11.00" fill="#1a1a1a">&#45;&#45;</text>
<polygon fill="#ffffff" stroke="none" points="309.25,-379 309.25,-524 452.33,-524 452.33,-379 309.25,-379"/>
<text xml:space="preserve" text-anchor="start" x="314.25" y="-508.5" font-family="Cambria" font-size="11.00" fill="#1a1a1a">The middle value once the</text>
<text xml:space="preserve" text-anchor="start" x="314.25" y="-495" font-family="Cambria" font-size="11.00" fill="#1a1a1a">runs are ordered: half fall</text>
<text xml:space="preserve" text-anchor="start" x="314.25" y="-481.5" font-family="Cambria" font-size="11.00" fill="#1a1a1a">below it, half above.</text>
<text xml:space="preserve" text-anchor="start" x="314.25" y="-468" font-family="Cambria" font-size="11.00" fill="#1a1a1a">Reported as the headline for</text>
<text xml:space="preserve" text-anchor="start" x="314.25" y="-454.5" font-family="Cambria" font-size="11.00" fill="#1a1a1a">error because it is</text>
<text xml:space="preserve" text-anchor="start" x="314.25" y="-441" font-family="Cambria" font-size="11.00" fill="#1a1a1a">insensitive to outliers &#45;&#45; a</text>
<text xml:space="preserve" text-anchor="start" x="314.25" y="-427.5" font-family="Cambria" font-size="11.00" fill="#1a1a1a">single divergent series</text>
<text xml:space="preserve" text-anchor="start" x="314.25" y="-414" font-family="Cambria" font-size="11.00" fill="#1a1a1a">shifts a mean without limit</text>
<text xml:space="preserve" text-anchor="start" x="314.25" y="-400.5" font-family="Cambria" font-size="11.00" fill="#1a1a1a">but moves a median by at</text>
<text xml:space="preserve" text-anchor="start" x="314.25" y="-387" font-family="Cambria" font-size="11.00" fill="#1a1a1a">most one rank position.</text>
<polygon fill="#ffffff" stroke="none" points="452.33,-379 452.33,-524 529.92,-524 529.92,-379 452.33,-379"/>
<text xml:space="preserve" text-anchor="start" x="457.33" y="-447.75" font-family="Cambria" font-size="11.00" fill="#1a1a1a">n/a</text>
<polygon fill="#ffffff" stroke="none" points="529.92,-379 529.92,-524 632.5,-524 632.5,-379 529.92,-379"/>
<text xml:space="preserve" text-anchor="start" x="534.92" y="-447.75" font-family="Cambria" font-size="11.00" fill="#1a1a1a">computed per table</text>
<polygon fill="#ffffff" stroke="none" points="8,-261 8,-379 109.58,-379 109.58,-261 8,-261"/>
<polyline fill="none" stroke="#000000" points="109.58,-261 109.58,-379"/>
<text xml:space="preserve" text-anchor="start" x="14" y="-317.3" font-family="Cambria" font-weight="bold" font-size="11.00" fill="#1a1a1a">Central tendency</text>
<polygon fill="#ffffff" stroke="none" points="109.58,-261 109.58,-379 272.92,-379 272.92,-261 109.58,-261"/>
<text xml:space="preserve" text-anchor="start" x="114.58" y="-316.25" font-family="Cambria" font-size="11.00" fill="#1a1a1a">Mean</text>
<polygon fill="#ffffff" stroke="none" points="272.92,-261 272.92,-379 309.25,-379 309.25,-261 272.92,-261"/>
<text xml:space="preserve" text-anchor="start" x="277.92" y="-316.25" font-family="Cambria" font-size="11.00" fill="#1a1a1a">&#45;&#45;</text>
<polygon fill="#ffffff" stroke="none" points="309.25,-261 309.25,-379 452.33,-379 452.33,-261 309.25,-261"/>
<text xml:space="preserve" text-anchor="start" x="314.25" y="-363.5" font-family="Cambria" font-size="11.00" fill="#1a1a1a">The arithmetic average.</text>
<text xml:space="preserve" text-anchor="start" x="314.25" y="-350" font-family="Cambria" font-size="11.00" fill="#1a1a1a">Reported alongside the</text>
<text xml:space="preserve" text-anchor="start" x="314.25" y="-336.5" font-family="Cambria" font-size="11.00" fill="#1a1a1a">median so the gap between</text>
<text xml:space="preserve" text-anchor="start" x="314.25" y="-323" font-family="Cambria" font-size="11.00" fill="#1a1a1a">the two is visible: a mean</text>
<text xml:space="preserve" text-anchor="start" x="314.25" y="-309.5" font-family="Cambria" font-size="11.00" fill="#1a1a1a">far above its median</text>
<text xml:space="preserve" text-anchor="start" x="314.25" y="-296" font-family="Cambria" font-size="11.00" fill="#1a1a1a">indicates a right&#45;skewed</text>
<text xml:space="preserve" text-anchor="start" x="314.25" y="-282.5" font-family="Cambria" font-size="11.00" fill="#1a1a1a">error distribution driven by</text>
<text xml:space="preserve" text-anchor="start" x="314.25" y="-269" font-family="Cambria" font-size="11.00" fill="#1a1a1a">a few large failures.</text>
<polygon fill="#ffffff" stroke="none" points="452.33,-261 452.33,-379 529.92,-379 529.92,-261 452.33,-261"/>
<text xml:space="preserve" text-anchor="start" x="457.33" y="-316.25" font-family="Cambria" font-size="11.00" fill="#1a1a1a">n/a</text>
<polygon fill="#ffffff" stroke="none" points="529.92,-261 529.92,-379 632.5,-379 632.5,-261 529.92,-261"/>
<text xml:space="preserve" text-anchor="start" x="534.92" y="-316.25" font-family="Cambria" font-size="11.00" fill="#1a1a1a">computed per table</text>
<polygon fill="#ffffff" stroke="none" points="8,-170 8,-261 109.58,-261 109.58,-170 8,-170"/>
<polyline fill="none" stroke="#000000" points="109.58,-170 109.58,-261"/>
<text xml:space="preserve" text-anchor="start" x="14" y="-212.8" font-family="Cambria" font-weight="bold" font-size="11.00" fill="#1a1a1a">Central tendency</text>
<polygon fill="#ffffff" stroke="none" points="109.58,-170 109.58,-261 272.92,-261 272.92,-170 109.58,-170"/>
<text xml:space="preserve" text-anchor="start" x="114.58" y="-211.75" font-family="Cambria" font-size="11.00" fill="#1a1a1a">Coefficient of variation (CV)</text>
<polygon fill="#ffffff" stroke="none" points="272.92,-170 272.92,-261 309.25,-261 309.25,-170 272.92,-170"/>
<text xml:space="preserve" text-anchor="start" x="277.92" y="-211.75" font-family="Cambria" font-size="11.00" fill="#1a1a1a">%</text>
<polygon fill="#ffffff" stroke="none" points="309.25,-170 309.25,-261 452.33,-261 452.33,-170 309.25,-170"/>
<text xml:space="preserve" text-anchor="start" x="314.25" y="-245.5" font-family="Cambria" font-size="11.00" fill="#1a1a1a">Standard deviation divided</text>
<text xml:space="preserve" text-anchor="start" x="314.25" y="-232" font-family="Cambria" font-size="11.00" fill="#1a1a1a">by the mean, expressed as a</text>
<text xml:space="preserve" text-anchor="start" x="314.25" y="-218.5" font-family="Cambria" font-size="11.00" fill="#1a1a1a">percentage. A scale&#45;free</text>
<text xml:space="preserve" text-anchor="start" x="314.25" y="-205" font-family="Cambria" font-size="11.00" fill="#1a1a1a">measure of dispersion, so</text>
<text xml:space="preserve" text-anchor="start" x="314.25" y="-191.5" font-family="Cambria" font-size="11.00" fill="#1a1a1a">series of different volumes</text>
<text xml:space="preserve" text-anchor="start" x="314.25" y="-178" font-family="Cambria" font-size="11.00" fill="#1a1a1a">are comparable.</text>
<polygon fill="#ffffff" stroke="none" points="452.33,-170 452.33,-261 529.92,-261 529.92,-170 452.33,-170"/>
<text xml:space="preserve" text-anchor="start" x="457.33" y="-211.75" font-family="Cambria" font-size="11.00" fill="#1a1a1a">lower</text>
<polygon fill="#ffffff" stroke="none" points="529.92,-170 529.92,-261 632.5,-261 632.5,-170 529.92,-170"/>
<text xml:space="preserve" text-anchor="start" x="534.92" y="-211.75" font-family="Cambria" font-size="11.00" fill="#1a1a1a">computed per table</text>
<polygon fill="#ffffff" stroke="none" points="8,-133 8,-170 109.58,-170 109.58,-133 8,-133"/>
<polyline fill="none" stroke="#000000" points="109.58,-133 109.58,-170"/>
<text xml:space="preserve" text-anchor="start" x="14" y="-148.8" font-family="Cambria" font-weight="bold" font-size="11.00" fill="#1a1a1a">Correctness</text>
<polygon fill="#ffffff" stroke="none" points="109.58,-133 109.58,-170 272.92,-170 272.92,-133 109.58,-133"/>
<text xml:space="preserve" text-anchor="start" x="114.58" y="-147.75" font-family="Cambria" font-size="11.00" fill="#1a1a1a">APE &#45;&#45; absolute percentage error</text>
<polygon fill="#ffffff" stroke="none" points="272.92,-133 272.92,-170 309.25,-170 309.25,-133 272.92,-133"/>
<text xml:space="preserve" text-anchor="start" x="277.92" y="-147.75" font-family="Cambria" font-size="11.00" fill="#1a1a1a">%</text>
<polygon fill="#ffffff" stroke="none" points="309.25,-133 309.25,-170 452.33,-170 452.33,-133 309.25,-133"/>
<text xml:space="preserve" text-anchor="start" x="314.25" y="-154.5" font-family="Cambria" font-size="11.00" fill="#1a1a1a">|forecast &#45; actual| / actual</text>
<text xml:space="preserve" text-anchor="start" x="314.25" y="-141" font-family="Cambria" font-size="11.00" fill="#1a1a1a">for one run.</text>
<polygon fill="#ffffff" stroke="none" points="452.33,-133 452.33,-170 529.92,-170 529.92,-133 452.33,-133"/>
<text xml:space="preserve" text-anchor="start" x="457.33" y="-147.75" font-family="Cambria" font-size="11.00" fill="#1a1a1a">lower</text>
<polygon fill="#ffffff" stroke="none" points="529.92,-133 529.92,-170 632.5,-170 632.5,-133 529.92,-133"/>
<text xml:space="preserve" text-anchor="start" x="534.92" y="-147.75" font-family="Cambria" font-size="11.00" fill="#1a1a1a">runs.csv: ape</text>
<polygon fill="#ffffff" stroke="none" points="8,-80.5 8,-133 109.58,-133 109.58,-80.5 8,-80.5"/>
<polyline fill="none" stroke="#000000" points="8,-80.5 109.58,-80.5 109.58,-133"/>
<text xml:space="preserve" text-anchor="start" x="14" y="-104.05" font-family="Cambria" font-weight="bold" font-size="11.00" fill="#1a1a1a">Correctness</text>
<polygon fill="#ffffff" stroke="none" points="109.58,-80.5 109.58,-133 272.92,-133 272.92,-80.5 109.58,-80.5"/>
<polyline fill="none" stroke="#000000" points="109.58,-80.5 272.92,-80.5"/>
<text xml:space="preserve" text-anchor="start" x="115.58" y="-103" font-family="Cambria" font-size="11.00" fill="#1a1a1a">Median APE</text>
<polygon fill="#ffffff" stroke="none" points="272.92,-80.5 272.92,-133 309.25,-133 309.25,-80.5 272.92,-80.5"/>
<polyline fill="none" stroke="#000000" points="272.92,-80.5 309.25,-80.5"/>
<text xml:space="preserve" text-anchor="start" x="278.92" y="-103" font-family="Cambria" font-size="11.00" fill="#1a1a1a">%</text>
<polygon fill="#ffffff" stroke="none" points="309.25,-80.5 309.25,-133 452.33,-133 452.33,-80.5 309.25,-80.5"/>
<polyline fill="none" stroke="#000000" points="309.25,-80.5 452.33,-80.5"/>
<text xml:space="preserve" text-anchor="start" x="315.25" y="-116.5" font-family="Cambria" font-size="11.00" fill="#1a1a1a">Median of APE over runs</text>
<text xml:space="preserve" text-anchor="start" x="315.25" y="-103" font-family="Cambria" font-size="11.00" fill="#1a1a1a">classed ok. The headline</text>
<text xml:space="preserve" text-anchor="start" x="315.25" y="-89.5" font-family="Cambria" font-size="11.00" fill="#1a1a1a">correctness figure.</text>
<polygon fill="#ffffff" stroke="none" points="452.33,-80.5 452.33,-133 529.92,-133 529.92,-80.5 452.33,-80.5"/>
<polyline fill="none" stroke="#000000" points="452.33,-80.5 529.92,-80.5"/>
<text xml:space="preserve" text-anchor="start" x="458.33" y="-103" font-family="Cambria" font-size="11.00" fill="#1a1a1a">lower</text>
<polygon fill="#ffffff" stroke="none" points="529.92,-80.5 529.92,-133 632.5,-133 632.5,-80.5 529.92,-80.5"/>
<polyline fill="none" stroke="#000000" points="529.92,-80.5 632.5,-80.5"/>
<text xml:space="preserve" text-anchor="start" x="535.92" y="-103" font-family="Cambria" font-size="11.00" fill="#1a1a1a">runs.csv: ape</text>
<text xml:space="preserve" text-anchor="start" x="9" y="-64.5" font-family="Cambria" font-size="9.00" fill="#5a5a5a">Note. Percentage&#45;valued metrics are given as numbers with the unit in the column heading (for example a weighted MAPE of 19.4 denotes 19.4%), following the</text>
<text xml:space="preserve" text-anchor="start" x="9" y="-51.25" font-family="Cambria" font-size="9.00" fill="#5a5a5a">convention of the M4 and M5 forecasting competitions.</text>
</g>
</g>
</svg>
