<?xml version="1.0" encoding="UTF-8" standalone="no"?>
<!DOCTYPE svg PUBLIC "-//W3C//DTD SVG 1.1//EN"
 "http://www.w3.org/Graphics/SVG/1.1/DTD/svg11.dtd">
<!-- Generated by graphviz version 16.1.0 (20260904.0139)
 -->
<!-- Title: 02_metric_dictionary_p2 Pages: 1 -->
<svg width="679pt" height="656pt"
 viewBox="0.00 0.00 679.00 656.00" xmlns="http://www.w3.org/2000/svg" xmlns:xlink="http://www.w3.org/1999/xlink">
<g id="graph0" class="graph" transform="scale(1 1) rotate(0) translate(4 652)">
<title>02_metric_dictionary_p2</title>
<polygon fill="white" stroke="none" points="-4,4 -4,-652 675.25,-652 675.25,4 -4,4"/>
<text xml:space="preserve" text-anchor="middle" x="335.62" y="-18.5" font-family="Cambria" font-size="10.00" fill="#5a5a5a">Rows 6 to 10 of 22. Definition, unit, direction of improvement and source</text>
<text xml:space="preserve" text-anchor="middle" x="335.62" y="-6.5" font-family="Cambria" font-size="10.00" fill="#5a5a5a">field for every quantity reported in this appendix.</text>
<!-- t -->
<g id="node1" class="node">
<title>t</title>
<polygon fill="#ffffff" stroke="none" points="8,-618.5 8,-644 86,-644 86,-618.5 8,-618.5"/>
<polyline fill="none" stroke="#000000" points="8,-618.5 86,-618.5 86,-644"/>
<text xml:space="preserve" text-anchor="start" x="14" y="-628.55" font-family="Cambria" font-weight="bold" font-size="11.00" fill="#1a1a1a">Dimension</text>
<polygon fill="#ffffff" stroke="none" points="86,-618.5 86,-644 248.75,-644 248.75,-618.5 86,-618.5"/>
<polyline fill="none" stroke="#000000" points="86,-618.5 248.75,-618.5"/>
<text xml:space="preserve" text-anchor="start" x="92" y="-628.55" font-family="Cambria" font-weight="bold" font-size="11.00" fill="#1a1a1a">Metric</text>
<polygon fill="#ffffff" stroke="none" points="248.75,-618.5 248.75,-644 283.25,-644 283.25,-618.5 248.75,-618.5"/>
<polyline fill="none" stroke="#000000" points="248.75,-618.5 283.25,-618.5"/>
<text xml:space="preserve" text-anchor="start" x="254.75" y="-628.55" font-family="Cambria" font-weight="bold" font-size="11.00" fill="#1a1a1a">Unit</text>
<polygon fill="#ffffff" stroke="none" points="283.25,-618.5 283.25,-644 432.75,-644 432.75,-618.5 283.25,-618.5"/>
<polyline fill="none" stroke="#000000" points="283.25,-618.5 432.75,-618.5"/>
<text xml:space="preserve" text-anchor="start" x="289.25" y="-628.55" font-family="Cambria" font-weight="bold" font-size="11.00" fill="#1a1a1a">Definition</text>
<polygon fill="#ffffff" stroke="none" points="432.75,-618.5 432.75,-644 507.75,-644 507.75,-618.5 432.75,-618.5"/>
<polyline fill="none" stroke="#000000" points="432.75,-618.5 507.75,-618.5"/>
<text xml:space="preserve" text-anchor="start" x="438.75" y="-628.55" font-family="Cambria" font-weight="bold" font-size="11.00" fill="#1a1a1a">Better when</text>
<polygon fill="#ffffff" stroke="none" points="507.75,-618.5 507.75,-644 663.25,-644 663.25,-618.5 507.75,-618.5"/>
<polyline fill="none" stroke="#000000" points="507.75,-618.5 663.25,-618.5"/>
<text xml:space="preserve" text-anchor="start" x="513.75" y="-628.55" font-family="Cambria" font-weight="bold" font-size="11.00" fill="#1a1a1a">Source</text>
<polygon fill="#ffffff" stroke="none" points="8,-581.5 8,-618.5 86,-618.5 86,-581.5 8,-581.5"/>
<polyline fill="none" stroke="#000000" points="86,-581.5 86,-618.5"/>
<text xml:space="preserve" text-anchor="start" x="14" y="-597.3" font-family="Cambria" font-weight="bold" font-size="11.00" fill="#1a1a1a">Correctness</text>
<polygon fill="#ffffff" stroke="none" points="86,-581.5 86,-618.5 248.75,-618.5 248.75,-581.5 86,-581.5"/>
<text xml:space="preserve" text-anchor="start" x="91" y="-596.25" font-family="Cambria" font-size="11.00" fill="#1a1a1a">Mean APE</text>
<polygon fill="#ffffff" stroke="none" points="248.75,-581.5 248.75,-618.5 283.25,-618.5 283.25,-581.5 248.75,-581.5"/>
<text xml:space="preserve" text-anchor="start" x="253.75" y="-596.25" font-family="Cambria" font-size="11.00" fill="#1a1a1a">%</text>
<polygon fill="#ffffff" stroke="none" points="283.25,-581.5 283.25,-618.5 432.75,-618.5 432.75,-581.5 283.25,-581.5"/>
<text xml:space="preserve" text-anchor="start" x="288.25" y="-603" font-family="Cambria" font-size="11.00" fill="#1a1a1a">Mean of APE over runs</text>
<text xml:space="preserve" text-anchor="start" x="288.25" y="-589.5" font-family="Cambria" font-size="11.00" fill="#1a1a1a">classed ok.</text>
<polygon fill="#ffffff" stroke="none" points="432.75,-581.5 432.75,-618.5 507.75,-618.5 507.75,-581.5 432.75,-581.5"/>
<text xml:space="preserve" text-anchor="start" x="437.75" y="-596.25" font-family="Cambria" font-size="11.00" fill="#1a1a1a">lower</text>
<polygon fill="#ffffff" stroke="none" points="507.75,-581.5 507.75,-618.5 663.25,-618.5 663.25,-581.5 507.75,-581.5"/>
<text xml:space="preserve" text-anchor="start" x="512.75" y="-596.25" font-family="Cambria" font-size="11.00" fill="#1a1a1a">runs.csv: ape</text>
<polygon fill="#ffffff" stroke="none" points="8,-450 8,-581.5 86,-581.5 86,-450 8,-450"/>
<polyline fill="none" stroke="#000000" points="86,-450 86,-581.5"/>
<text xml:space="preserve" text-anchor="start" x="14" y="-513.05" font-family="Cambria" font-weight="bold" font-size="11.00" fill="#1a1a1a">Correctness</text>
<polygon fill="#ffffff" stroke="none" points="86,-450 86,-581.5 248.75,-581.5 248.75,-450 86,-450"/>
<text xml:space="preserve" text-anchor="start" x="91" y="-512" font-family="Cambria" font-size="11.00" fill="#1a1a1a">WMAPE &#45;&#45; weighted MAPE</text>
<polygon fill="#ffffff" stroke="none" points="248.75,-450 248.75,-581.5 283.25,-581.5 283.25,-450 248.75,-450"/>
<text xml:space="preserve" text-anchor="start" x="253.75" y="-512" font-family="Cambria" font-size="11.00" fill="#1a1a1a">%</text>
<polygon fill="#ffffff" stroke="none" points="283.25,-450 283.25,-581.5 432.75,-581.5 432.75,-450 283.25,-450"/>
<text xml:space="preserve" text-anchor="start" x="288.25" y="-566" font-family="Cambria" font-size="11.00" fill="#1a1a1a">Sum of absolute errors</text>
<text xml:space="preserve" text-anchor="start" x="288.25" y="-552.5" font-family="Cambria" font-size="11.00" fill="#1a1a1a">divided by sum of actuals</text>
<text xml:space="preserve" text-anchor="start" x="288.25" y="-539" font-family="Cambria" font-size="11.00" fill="#1a1a1a">across series. Weights each</text>
<text xml:space="preserve" text-anchor="start" x="288.25" y="-525.5" font-family="Cambria" font-size="11.00" fill="#1a1a1a">series by its volume, so a</text>
<text xml:space="preserve" text-anchor="start" x="288.25" y="-512" font-family="Cambria" font-size="11.00" fill="#1a1a1a">large brand is not outvoted</text>
<text xml:space="preserve" text-anchor="start" x="288.25" y="-498.5" font-family="Cambria" font-size="11.00" fill="#1a1a1a">by many small ones, and it</text>
<text xml:space="preserve" text-anchor="start" x="288.25" y="-485" font-family="Cambria" font-size="11.00" fill="#1a1a1a">stays defined when</text>
<text xml:space="preserve" text-anchor="start" x="288.25" y="-471.5" font-family="Cambria" font-size="11.00" fill="#1a1a1a">individual actuals approach</text>
<text xml:space="preserve" text-anchor="start" x="288.25" y="-458" font-family="Cambria" font-size="11.00" fill="#1a1a1a">zero.</text>
<polygon fill="#ffffff" stroke="none" points="432.75,-450 432.75,-581.5 507.75,-581.5 507.75,-450 432.75,-450"/>
<text xml:space="preserve" text-anchor="start" x="437.75" y="-512" font-family="Cambria" font-size="11.00" fill="#1a1a1a">lower</text>
<polygon fill="#ffffff" stroke="none" points="507.75,-450 507.75,-581.5 663.25,-581.5 663.25,-450 507.75,-450"/>
<text xml:space="preserve" text-anchor="start" x="512.75" y="-512" font-family="Cambria" font-size="11.00" fill="#1a1a1a">srq1/stat_baselines.csv: wmape</text>
<polygon fill="#ffffff" stroke="none" points="8,-359 8,-450 86,-450 86,-359 8,-359"/>
<polyline fill="none" stroke="#000000" points="86,-359 86,-450"/>
<text xml:space="preserve" text-anchor="start" x="14" y="-401.8" font-family="Cambria" font-weight="bold" font-size="11.00" fill="#1a1a1a">Consistency</text>
<polygon fill="#ffffff" stroke="none" points="86,-359 86,-450 248.75,-450 248.75,-359 86,-359"/>
<text xml:space="preserve" text-anchor="start" x="91" y="-400.75" font-family="Cambria" font-size="11.00" fill="#1a1a1a">CV across repeats</text>
<polygon fill="#ffffff" stroke="none" points="248.75,-359 248.75,-450 283.25,-450 283.25,-359 248.75,-359"/>
<text xml:space="preserve" text-anchor="start" x="253.75" y="-400.75" font-family="Cambria" font-size="11.00" fill="#1a1a1a">%</text>
<polygon fill="#ffffff" stroke="none" points="283.25,-359 283.25,-450 432.75,-450 432.75,-359 283.25,-359"/>
<text xml:space="preserve" text-anchor="start" x="288.25" y="-434.5" font-family="Cambria" font-size="11.00" fill="#1a1a1a">Per brand, the coefficient</text>
<text xml:space="preserve" text-anchor="start" x="288.25" y="-421" font-family="Cambria" font-size="11.00" fill="#1a1a1a">of variation of the forecast</text>
<text xml:space="preserve" text-anchor="start" x="288.25" y="-407.5" font-family="Cambria" font-size="11.00" fill="#1a1a1a">over repeated runs of the</text>
<text xml:space="preserve" text-anchor="start" x="288.25" y="-394" font-family="Cambria" font-size="11.00" fill="#1a1a1a">same prompt, averaged across</text>
<text xml:space="preserve" text-anchor="start" x="288.25" y="-380.5" font-family="Cambria" font-size="11.00" fill="#1a1a1a">brands. Measures run&#45;to&#45;run</text>
<text xml:space="preserve" text-anchor="start" x="288.25" y="-367" font-family="Cambria" font-size="11.00" fill="#1a1a1a">instability at fixed input.</text>
<polygon fill="#ffffff" stroke="none" points="432.75,-359 432.75,-450 507.75,-450 507.75,-359 432.75,-359"/>
<text xml:space="preserve" text-anchor="start" x="437.75" y="-400.75" font-family="Cambria" font-size="11.00" fill="#1a1a1a">lower</text>
<polygon fill="#ffffff" stroke="none" points="507.75,-359 507.75,-450 663.25,-450 663.25,-359 507.75,-359"/>
<text xml:space="preserve" text-anchor="start" x="512.75" y="-400.75" font-family="Cambria" font-size="11.00" fill="#1a1a1a">runs.csv: forecast</text>
<polygon fill="#ffffff" stroke="none" points="8,-308.5 8,-359 86,-359 86,-308.5 8,-308.5"/>
<polyline fill="none" stroke="#000000" points="86,-308.5 86,-359"/>
<text xml:space="preserve" text-anchor="start" x="14" y="-331.05" font-family="Cambria" font-weight="bold" font-size="11.00" fill="#1a1a1a">Replicability</text>
<polygon fill="#ffffff" stroke="none" points="86,-308.5 86,-359 248.75,-359 248.75,-308.5 86,-308.5"/>
<text xml:space="preserve" text-anchor="start" x="91" y="-330" font-family="Cambria" font-size="11.00" fill="#1a1a1a">Identical&#45;answer rate</text>
<polygon fill="#ffffff" stroke="none" points="248.75,-308.5 248.75,-359 283.25,-359 283.25,-308.5 248.75,-308.5"/>
<text xml:space="preserve" text-anchor="start" x="253.75" y="-330" font-family="Cambria" font-size="11.00" fill="#1a1a1a">%</text>
<polygon fill="#ffffff" stroke="none" points="283.25,-308.5 283.25,-359 432.75,-359 432.75,-308.5 283.25,-308.5"/>
<text xml:space="preserve" text-anchor="start" x="288.25" y="-343.5" font-family="Cambria" font-size="11.00" fill="#1a1a1a">Share of brands whose</text>
<text xml:space="preserve" text-anchor="start" x="288.25" y="-330" font-family="Cambria" font-size="11.00" fill="#1a1a1a">forecasts across all repeats</text>
<text xml:space="preserve" text-anchor="start" x="288.25" y="-316.5" font-family="Cambria" font-size="11.00" fill="#1a1a1a">fall within a 1% band.</text>
<polygon fill="#ffffff" stroke="none" points="432.75,-308.5 432.75,-359 507.75,-359 507.75,-308.5 432.75,-308.5"/>
<text xml:space="preserve" text-anchor="start" x="437.75" y="-330" font-family="Cambria" font-size="11.00" fill="#1a1a1a">higher</text>
<polygon fill="#ffffff" stroke="none" points="507.75,-308.5 507.75,-359 663.25,-359 663.25,-308.5 507.75,-308.5"/>
<text xml:space="preserve" text-anchor="start" x="512.75" y="-330" font-family="Cambria" font-size="11.00" fill="#1a1a1a">runs.csv: forecast</text>
<polygon fill="#ffffff" stroke="none" points="8,-80.5 8,-308.5 86,-308.5 86,-80.5 8,-80.5"/>
<polyline fill="none" stroke="#000000" points="8,-80.5 86,-80.5 86,-308.5"/>
<text xml:space="preserve" text-anchor="start" x="14" y="-191.8" font-family="Cambria" font-weight="bold" font-size="11.00" fill="#1a1a1a">Replicability</text>
<polygon fill="#ffffff" stroke="none" points="86,-80.5 86,-308.5 248.75,-308.5 248.75,-80.5 86,-80.5"/>
<polyline fill="none" stroke="#000000" points="86,-80.5 248.75,-80.5"/>
<text xml:space="preserve" text-anchor="start" x="92" y="-197.5" font-family="Cambria" font-size="11.00" fill="#1a1a1a">Top&#45;answer agreement rate (1%</text>
<text xml:space="preserve" text-anchor="start" x="92" y="-184" font-family="Cambria" font-size="11.00" fill="#1a1a1a">tolerance)</text>
<polygon fill="#ffffff" stroke="none" points="248.75,-80.5 248.75,-308.5 283.25,-308.5 283.25,-80.5 248.75,-80.5"/>
<polyline fill="none" stroke="#000000" points="248.75,-80.5 283.25,-80.5"/>
<text xml:space="preserve" text-anchor="start" x="254.75" y="-190.75" font-family="Cambria" font-size="11.00" fill="#1a1a1a">ratio</text>
<polygon fill="#ffffff" stroke="none" points="283.25,-80.5 283.25,-308.5 432.75,-308.5 432.75,-80.5 283.25,-80.5"/>
<polyline fill="none" stroke="#000000" points="283.25,-80.5 432.75,-80.5"/>
<text xml:space="preserve" text-anchor="start" x="289.25" y="-292" font-family="Cambria" font-size="11.00" fill="#1a1a1a">For one brand, the share of</text>
<text xml:space="preserve" text-anchor="start" x="289.25" y="-278.5" font-family="Cambria" font-size="11.00" fill="#1a1a1a">repeated runs whose forecast</text>
<text xml:space="preserve" text-anchor="start" x="289.25" y="-265" font-family="Cambria" font-size="11.00" fill="#1a1a1a">agrees with the most</text>
<text xml:space="preserve" text-anchor="start" x="289.25" y="-251.5" font-family="Cambria" font-size="11.00" fill="#1a1a1a">commonly returned value,</text>
<text xml:space="preserve" text-anchor="start" x="289.25" y="-238" font-family="Cambria" font-size="11.00" fill="#1a1a1a">within a 1% tolerance;</text>
<text xml:space="preserve" text-anchor="start" x="289.25" y="-224.5" font-family="Cambria" font-size="11.00" fill="#1a1a1a">averaged across brands. A</text>
<text xml:space="preserve" text-anchor="start" x="289.25" y="-211" font-family="Cambria" font-size="11.00" fill="#1a1a1a">value of 1.00 means every</text>
<text xml:space="preserve" text-anchor="start" x="289.25" y="-197.5" font-family="Cambria" font-size="11.00" fill="#1a1a1a">repeat returned effectively</text>
<text xml:space="preserve" text-anchor="start" x="289.25" y="-184" font-family="Cambria" font-size="11.00" fill="#1a1a1a">the same answer, 0.20 that</text>
<text xml:space="preserve" text-anchor="start" x="289.25" y="-170.5" font-family="Cambria" font-size="11.00" fill="#1a1a1a">five repeats returned five</text>
<text xml:space="preserve" text-anchor="start" x="289.25" y="-157" font-family="Cambria" font-size="11.00" fill="#1a1a1a">different ones. Reported</text>
<text xml:space="preserve" text-anchor="start" x="289.25" y="-143.5" font-family="Cambria" font-size="11.00" fill="#1a1a1a">because LLM outputs vary</text>
<text xml:space="preserve" text-anchor="start" x="289.25" y="-130" font-family="Cambria" font-size="11.00" fill="#1a1a1a">between identical requests</text>
<text xml:space="preserve" text-anchor="start" x="289.25" y="-116.5" font-family="Cambria" font-size="11.00" fill="#1a1a1a">under identical decoding</text>
<text xml:space="preserve" text-anchor="start" x="289.25" y="-103" font-family="Cambria" font-size="11.00" fill="#1a1a1a">settings (Atil et al.,</text>
<text xml:space="preserve" text-anchor="start" x="289.25" y="-89.5" font-family="Cambria" font-size="11.00" fill="#1a1a1a">2025).</text>
<polygon fill="#ffffff" stroke="none" points="432.75,-80.5 432.75,-308.5 507.75,-308.5 507.75,-80.5 432.75,-80.5"/>
<polyline fill="none" stroke="#000000" points="432.75,-80.5 507.75,-80.5"/>
<text xml:space="preserve" text-anchor="start" x="438.75" y="-190.75" font-family="Cambria" font-size="11.00" fill="#1a1a1a">higher</text>
<polygon fill="#ffffff" stroke="none" points="507.75,-80.5 507.75,-308.5 663.25,-308.5 663.25,-80.5 507.75,-80.5"/>
<polyline fill="none" stroke="#000000" points="507.75,-80.5 663.25,-80.5"/>
<text xml:space="preserve" text-anchor="start" x="513.75" y="-190.75" font-family="Cambria" font-size="11.00" fill="#1a1a1a">runs.csv: forecast</text>
<text xml:space="preserve" text-anchor="start" x="9" y="-64.5" font-family="Cambria" font-size="9.00" fill="#5a5a5a">Note. Percentage&#45;valued metrics are given as numbers with the unit in the column heading (for example a weighted MAPE of 19.4 denotes 19.4%), following the</text>
<text xml:space="preserve" text-anchor="start" x="9" y="-51.25" font-family="Cambria" font-size="9.00" fill="#5a5a5a">convention of the M4 and M5 forecasting competitions.</text>
</g>
</g>
</svg>
