<?xml version="1.0" encoding="UTF-8" standalone="no"?>
<!DOCTYPE svg PUBLIC "-//W3C//DTD SVG 1.1//EN"
 "http://www.w3.org/Graphics/SVG/1.1/DTD/svg11.dtd">
<!-- Generated by graphviz version 16.1.0 (20260904.0139)
 -->
<!-- Title: 27_per_run_record_p3 Pages: 1 -->
<svg width="718pt" height="424pt"
 viewBox="0.00 0.00 718.00 424.00" xmlns="http://www.w3.org/2000/svg" xmlns:xlink="http://www.w3.org/1999/xlink">
<g id="graph0" class="graph" transform="scale(1 1) rotate(0) translate(4 419.75)">
<title>27_per_run_record_p3</title>
<polygon fill="white" stroke="none" points="-4,4 -4,-419.75 714,-419.75 714,4 -4,4"/>
<text xml:space="preserve" text-anchor="middle" x="355" y="-30.5" font-family="Cambria" font-size="10.00" fill="#5a5a5a">Rows 23 to 33 of 63. Every run logged, with its forecast, error, outcome</text>
<text xml:space="preserve" text-anchor="middle" x="355" y="-18.5" font-family="Cambria" font-size="10.00" fill="#5a5a5a">class, response time and cost. This is the evidence base from which the</text>
<text xml:space="preserve" text-anchor="middle" x="355" y="-6.5" font-family="Cambria" font-size="10.00" fill="#5a5a5a">aggregate figures are computed.</text>
<!-- t -->
<g id="node1" class="node">
<title>t</title>
<polygon fill="#ffffff" stroke="none" points="8,-386.25 8,-411.75 65,-411.75 65,-386.25 8,-386.25"/>
<polyline fill="none" stroke="#000000" points="8,-386.25 65,-386.25 65,-411.75"/>
<text xml:space="preserve" text-anchor="start" x="14" y="-396.3" font-family="Cambria" font-weight="bold" font-size="11.00" fill="#1a1a1a">Category</text>
<polygon fill="#ffffff" stroke="none" points="65,-386.25 65,-411.75 116.25,-411.75 116.25,-386.25 65,-386.25"/>
<polyline fill="none" stroke="#000000" points="65,-386.25 116.25,-386.25"/>
<text xml:space="preserve" text-anchor="start" x="71" y="-396.3" font-family="Cambria" font-weight="bold" font-size="11.00" fill="#1a1a1a">Brand</text>
<polygon fill="#ffffff" stroke="none" points="116.25,-386.25 116.25,-411.75 173.25,-411.75 173.25,-386.25 116.25,-386.25"/>
<polyline fill="none" stroke="#000000" points="116.25,-386.25 173.25,-386.25"/>
<text xml:space="preserve" text-anchor="start" x="122.25" y="-396.3" font-family="Cambria" font-weight="bold" font-size="11.00" fill="#1a1a1a">Scenario</text>
<polygon fill="#ffffff" stroke="none" points="173.25,-386.25 173.25,-411.75 204.75,-411.75 204.75,-386.25 173.25,-386.25"/>
<polyline fill="none" stroke="#000000" points="173.25,-386.25 204.75,-386.25"/>
<text xml:space="preserve" text-anchor="start" x="179.25" y="-396.3" font-family="Cambria" font-weight="bold" font-size="11.00" fill="#1a1a1a">Rep</text>
<polygon fill="#ffffff" stroke="none" points="204.75,-386.25 204.75,-411.75 261.25,-411.75 261.25,-386.25 204.75,-386.25"/>
<polyline fill="none" stroke="#000000" points="204.75,-386.25 261.25,-386.25"/>
<text xml:space="preserve" text-anchor="start" x="210.75" y="-396.3" font-family="Cambria" font-weight="bold" font-size="11.00" fill="#1a1a1a">Actual</text>
<polygon fill="#ffffff" stroke="none" points="261.25,-386.25 261.25,-411.75 317.75,-411.75 317.75,-386.25 261.25,-386.25"/>
<polyline fill="none" stroke="#000000" points="261.25,-386.25 317.75,-386.25"/>
<text xml:space="preserve" text-anchor="start" x="267.25" y="-396.3" font-family="Cambria" font-weight="bold" font-size="11.00" fill="#1a1a1a">Forecast</text>
<polygon fill="#ffffff" stroke="none" points="317.75,-386.25 317.75,-411.75 371.75,-411.75 371.75,-386.25 317.75,-386.25"/>
<polyline fill="none" stroke="#000000" points="317.75,-386.25 371.75,-386.25"/>
<text xml:space="preserve" text-anchor="start" x="323.75" y="-396.3" font-family="Cambria" font-weight="bold" font-size="11.00" fill="#1a1a1a">APE (%)</text>
<polygon fill="#ffffff" stroke="none" points="371.75,-386.25 371.75,-411.75 428.75,-411.75 428.75,-386.25 371.75,-386.25"/>
<polyline fill="none" stroke="#000000" points="371.75,-386.25 428.75,-386.25"/>
<text xml:space="preserve" text-anchor="start" x="377.75" y="-396.3" font-family="Cambria" font-weight="bold" font-size="11.00" fill="#1a1a1a">Outcome</text>
<polygon fill="#ffffff" stroke="none" points="428.75,-386.25 428.75,-411.75 483.5,-411.75 483.5,-386.25 428.75,-386.25"/>
<polyline fill="none" stroke="#000000" points="428.75,-386.25 483.5,-386.25"/>
<text xml:space="preserve" text-anchor="start" x="434.75" y="-396.3" font-family="Cambria" font-weight="bold" font-size="11.00" fill="#1a1a1a">Time (s)</text>
<polygon fill="#ffffff" stroke="none" points="483.5,-386.25 483.5,-411.75 529.5,-411.75 529.5,-386.25 483.5,-386.25"/>
<polyline fill="none" stroke="#000000" points="483.5,-386.25 529.5,-386.25"/>
<text xml:space="preserve" text-anchor="start" x="489.5" y="-396.3" font-family="Cambria" font-weight="bold" font-size="11.00" fill="#1a1a1a">Tok in</text>
<polygon fill="#ffffff" stroke="none" points="529.5,-386.25 529.5,-411.75 579,-411.75 579,-386.25 529.5,-386.25"/>
<polyline fill="none" stroke="#000000" points="529.5,-386.25 579,-386.25"/>
<text xml:space="preserve" text-anchor="start" x="535.5" y="-396.3" font-family="Cambria" font-weight="bold" font-size="11.00" fill="#1a1a1a">Tok out</text>
<polygon fill="#ffffff" stroke="none" points="579,-386.25 579,-411.75 636.75,-411.75 636.75,-386.25 579,-386.25"/>
<polyline fill="none" stroke="#000000" points="579,-386.25 636.75,-386.25"/>
<text xml:space="preserve" text-anchor="start" x="585" y="-396.3" font-family="Cambria" font-weight="bold" font-size="11.00" fill="#1a1a1a">Tok reas.</text>
<polygon fill="#ffffff" stroke="none" points="636.75,-386.25 636.75,-411.75 702,-411.75 702,-386.25 636.75,-386.25"/>
<polyline fill="none" stroke="#000000" points="636.75,-386.25 702,-386.25"/>
<text xml:space="preserve" text-anchor="start" x="642.75" y="-396.3" font-family="Cambria" font-weight="bold" font-size="11.00" fill="#1a1a1a">Cost (USD)</text>
<polygon fill="#ffffff" stroke="none" points="8,-360.75 8,-386.25 65,-386.25 65,-360.75 8,-360.75"/>
<polyline fill="none" stroke="#000000" points="65,-360.75 65,-386.25"/>
<text xml:space="preserve" text-anchor="start" x="14" y="-370.8" font-family="Cambria" font-weight="bold" font-size="11.00" fill="#1a1a1a">CSD</text>
<polygon fill="#ffffff" stroke="none" points="65,-360.75 65,-386.25 116.25,-386.25 116.25,-360.75 65,-360.75"/>
<text xml:space="preserve" text-anchor="start" x="70" y="-369.75" font-family="Cambria" font-size="11.00" fill="#1a1a1a">HARBOE</text>
<polygon fill="#ffffff" stroke="none" points="116.25,-360.75 116.25,-386.25 173.25,-386.25 173.25,-360.75 116.25,-360.75"/>
<text xml:space="preserve" text-anchor="start" x="121.25" y="-369.75" font-family="Cambria" font-size="11.00" fill="#1a1a1a">C</text>
<polygon fill="#ffffff" stroke="none" points="173.25,-360.75 173.25,-386.25 204.75,-386.25 204.75,-360.75 173.25,-360.75"/>
<text xml:space="preserve" text-anchor="start" x="178.25" y="-369.75" font-family="Cambria" font-size="11.00" fill="#1a1a1a">1</text>
<polygon fill="#ffffff" stroke="none" points="204.75,-360.75 204.75,-386.25 261.25,-386.25 261.25,-360.75 204.75,-360.75"/>
<text xml:space="preserve" text-anchor="start" x="209.75" y="-369.75" font-family="Cambria" font-size="11.00" fill="#1a1a1a">6,365,900</text>
<polygon fill="#ffffff" stroke="none" points="261.25,-360.75 261.25,-386.25 317.75,-386.25 317.75,-360.75 261.25,-360.75"/>
<text xml:space="preserve" text-anchor="start" x="266.25" y="-369.75" font-family="Cambria" font-size="11.00" fill="#1a1a1a">4,969,050</text>
<polygon fill="#ffffff" stroke="none" points="317.75,-360.75 317.75,-386.25 371.75,-386.25 371.75,-360.75 317.75,-360.75"/>
<text xml:space="preserve" text-anchor="start" x="322.75" y="-369.75" font-family="Cambria" font-size="11.00" fill="#1a1a1a">21.9</text>
<polygon fill="#ffffff" stroke="none" points="371.75,-360.75 371.75,-386.25 428.75,-386.25 428.75,-360.75 371.75,-360.75"/>
<text xml:space="preserve" text-anchor="start" x="376.75" y="-369.75" font-family="Cambria" font-size="11.00" fill="#1a1a1a">ok</text>
<polygon fill="#ffffff" stroke="none" points="428.75,-360.75 428.75,-386.25 483.5,-386.25 483.5,-360.75 428.75,-360.75"/>
<text xml:space="preserve" text-anchor="start" x="433.75" y="-369.75" font-family="Cambria" font-size="11.00" fill="#1a1a1a">10.8</text>
<polygon fill="#ffffff" stroke="none" points="483.5,-360.75 483.5,-386.25 529.5,-386.25 529.5,-360.75 483.5,-360.75"/>
<text xml:space="preserve" text-anchor="start" x="488.5" y="-369.75" font-family="Cambria" font-size="11.00" fill="#1a1a1a">1034</text>
<polygon fill="#ffffff" stroke="none" points="529.5,-360.75 529.5,-386.25 579,-386.25 579,-360.75 529.5,-360.75"/>
<text xml:space="preserve" text-anchor="start" x="534.5" y="-369.75" font-family="Cambria" font-size="11.00" fill="#1a1a1a">129</text>
<polygon fill="#ffffff" stroke="none" points="579,-360.75 579,-386.25 636.75,-386.25 636.75,-360.75 579,-360.75"/>
<text xml:space="preserve" text-anchor="start" x="584" y="-369.75" font-family="Cambria" font-size="11.00" fill="#1a1a1a">0</text>
<polygon fill="#ffffff" stroke="none" points="636.75,-360.75 636.75,-386.25 702,-386.25 702,-360.75 636.75,-360.75"/>
<text xml:space="preserve" text-anchor="start" x="641.75" y="-369.75" font-family="Cambria" font-size="11.00" fill="#1a1a1a">$0.0090</text>
<polygon fill="#ffffff" stroke="none" points="8,-335.25 8,-360.75 65,-360.75 65,-335.25 8,-335.25"/>
<polyline fill="none" stroke="#000000" points="65,-335.25 65,-360.75"/>
<text xml:space="preserve" text-anchor="start" x="14" y="-345.3" font-family="Cambria" font-weight="bold" font-size="11.00" fill="#1a1a1a">CSD</text>
<polygon fill="#ffffff" stroke="none" points="65,-335.25 65,-360.75 116.25,-360.75 116.25,-335.25 65,-335.25"/>
<text xml:space="preserve" text-anchor="start" x="70" y="-344.25" font-family="Cambria" font-size="11.00" fill="#1a1a1a">HARBOE</text>
<polygon fill="#ffffff" stroke="none" points="116.25,-335.25 116.25,-360.75 173.25,-360.75 173.25,-335.25 116.25,-335.25"/>
<text xml:space="preserve" text-anchor="start" x="121.25" y="-344.25" font-family="Cambria" font-size="11.00" fill="#1a1a1a">C</text>
<polygon fill="#ffffff" stroke="none" points="173.25,-335.25 173.25,-360.75 204.75,-360.75 204.75,-335.25 173.25,-335.25"/>
<text xml:space="preserve" text-anchor="start" x="178.25" y="-344.25" font-family="Cambria" font-size="11.00" fill="#1a1a1a">2</text>
<polygon fill="#ffffff" stroke="none" points="204.75,-335.25 204.75,-360.75 261.25,-360.75 261.25,-335.25 204.75,-335.25"/>
<text xml:space="preserve" text-anchor="start" x="209.75" y="-344.25" font-family="Cambria" font-size="11.00" fill="#1a1a1a">6,365,900</text>
<polygon fill="#ffffff" stroke="none" points="261.25,-335.25 261.25,-360.75 317.75,-360.75 317.75,-335.25 261.25,-335.25"/>
<text xml:space="preserve" text-anchor="start" x="266.25" y="-344.25" font-family="Cambria" font-size="11.00" fill="#1a1a1a">4,969,050</text>
<polygon fill="#ffffff" stroke="none" points="317.75,-335.25 317.75,-360.75 371.75,-360.75 371.75,-335.25 317.75,-335.25"/>
<text xml:space="preserve" text-anchor="start" x="322.75" y="-344.25" font-family="Cambria" font-size="11.00" fill="#1a1a1a">21.9</text>
<polygon fill="#ffffff" stroke="none" points="371.75,-335.25 371.75,-360.75 428.75,-360.75 428.75,-335.25 371.75,-335.25"/>
<text xml:space="preserve" text-anchor="start" x="376.75" y="-344.25" font-family="Cambria" font-size="11.00" fill="#1a1a1a">ok</text>
<polygon fill="#ffffff" stroke="none" points="428.75,-335.25 428.75,-360.75 483.5,-360.75 483.5,-335.25 428.75,-335.25"/>
<text xml:space="preserve" text-anchor="start" x="433.75" y="-344.25" font-family="Cambria" font-size="11.00" fill="#1a1a1a">4.8</text>
<polygon fill="#ffffff" stroke="none" points="483.5,-335.25 483.5,-360.75 529.5,-360.75 529.5,-335.25 483.5,-335.25"/>
<text xml:space="preserve" text-anchor="start" x="488.5" y="-344.25" font-family="Cambria" font-size="11.00" fill="#1a1a1a">1034</text>
<polygon fill="#ffffff" stroke="none" points="529.5,-335.25 529.5,-360.75 579,-360.75 579,-335.25 529.5,-335.25"/>
<text xml:space="preserve" text-anchor="start" x="534.5" y="-344.25" font-family="Cambria" font-size="11.00" fill="#1a1a1a">201</text>
<polygon fill="#ffffff" stroke="none" points="579,-335.25 579,-360.75 636.75,-360.75 636.75,-335.25 579,-335.25"/>
<text xml:space="preserve" text-anchor="start" x="584" y="-344.25" font-family="Cambria" font-size="11.00" fill="#1a1a1a">88</text>
<polygon fill="#ffffff" stroke="none" points="636.75,-335.25 636.75,-360.75 702,-360.75 702,-335.25 636.75,-335.25"/>
<text xml:space="preserve" text-anchor="start" x="641.75" y="-344.25" font-family="Cambria" font-size="11.00" fill="#1a1a1a">$0.0112</text>
<polygon fill="#ffffff" stroke="none" points="8,-309.75 8,-335.25 65,-335.25 65,-309.75 8,-309.75"/>
<polyline fill="none" stroke="#000000" points="65,-309.75 65,-335.25"/>
<text xml:space="preserve" text-anchor="start" x="14" y="-319.8" font-family="Cambria" font-weight="bold" font-size="11.00" fill="#1a1a1a">CSD</text>
<polygon fill="#ffffff" stroke="none" points="65,-309.75 65,-335.25 116.25,-335.25 116.25,-309.75 65,-309.75"/>
<text xml:space="preserve" text-anchor="start" x="70" y="-318.75" font-family="Cambria" font-size="11.00" fill="#1a1a1a">HARBOE</text>
<polygon fill="#ffffff" stroke="none" points="116.25,-309.75 116.25,-335.25 173.25,-335.25 173.25,-309.75 116.25,-309.75"/>
<text xml:space="preserve" text-anchor="start" x="121.25" y="-318.75" font-family="Cambria" font-size="11.00" fill="#1a1a1a">D</text>
<polygon fill="#ffffff" stroke="none" points="173.25,-309.75 173.25,-335.25 204.75,-335.25 204.75,-309.75 173.25,-309.75"/>
<text xml:space="preserve" text-anchor="start" x="178.25" y="-318.75" font-family="Cambria" font-size="11.00" fill="#1a1a1a">1</text>
<polygon fill="#ffffff" stroke="none" points="204.75,-309.75 204.75,-335.25 261.25,-335.25 261.25,-309.75 204.75,-309.75"/>
<text xml:space="preserve" text-anchor="start" x="209.75" y="-318.75" font-family="Cambria" font-size="11.00" fill="#1a1a1a">6,365,900</text>
<polygon fill="#ffffff" stroke="none" points="261.25,-309.75 261.25,-335.25 317.75,-335.25 317.75,-309.75 261.25,-309.75"/>
<text xml:space="preserve" text-anchor="start" x="266.25" y="-318.75" font-family="Cambria" font-size="11.00" fill="#1a1a1a">6,412,572</text>
<polygon fill="#ffffff" stroke="none" points="317.75,-309.75 317.75,-335.25 371.75,-335.25 371.75,-309.75 317.75,-309.75"/>
<text xml:space="preserve" text-anchor="start" x="322.75" y="-318.75" font-family="Cambria" font-size="11.00" fill="#1a1a1a">0.7</text>
<polygon fill="#ffffff" stroke="none" points="371.75,-309.75 371.75,-335.25 428.75,-335.25 428.75,-309.75 371.75,-309.75"/>
<text xml:space="preserve" text-anchor="start" x="376.75" y="-318.75" font-family="Cambria" font-size="11.00" fill="#1a1a1a">ok</text>
<polygon fill="#ffffff" stroke="none" points="428.75,-309.75 428.75,-335.25 483.5,-335.25 483.5,-309.75 428.75,-309.75"/>
<text xml:space="preserve" text-anchor="start" x="433.75" y="-318.75" font-family="Cambria" font-size="11.00" fill="#1a1a1a">89.4</text>
<polygon fill="#ffffff" stroke="none" points="483.5,-309.75 483.5,-335.25 529.5,-335.25 529.5,-309.75 483.5,-309.75"/>
<text xml:space="preserve" text-anchor="start" x="488.5" y="-318.75" font-family="Cambria" font-size="11.00" fill="#1a1a1a">65319</text>
<polygon fill="#ffffff" stroke="none" points="529.5,-309.75 529.5,-335.25 579,-335.25 579,-309.75 529.5,-309.75"/>
<text xml:space="preserve" text-anchor="start" x="534.5" y="-318.75" font-family="Cambria" font-size="11.00" fill="#1a1a1a">5237</text>
<polygon fill="#ffffff" stroke="none" points="579,-309.75 579,-335.25 636.75,-335.25 636.75,-309.75 579,-309.75"/>
<text xml:space="preserve" text-anchor="start" x="584" y="-318.75" font-family="Cambria" font-size="11.00" fill="#1a1a1a">unknown</text>
<polygon fill="#ffffff" stroke="none" points="636.75,-309.75 636.75,-335.25 702,-335.25 702,-309.75 636.75,-309.75"/>
<text xml:space="preserve" text-anchor="start" x="641.75" y="-318.75" font-family="Cambria" font-size="11.00" fill="#1a1a1a">$0.4837</text>
<polygon fill="#ffffff" stroke="none" points="8,-284.25 8,-309.75 65,-309.75 65,-284.25 8,-284.25"/>
<polyline fill="none" stroke="#000000" points="65,-284.25 65,-309.75"/>
<text xml:space="preserve" text-anchor="start" x="14" y="-294.3" font-family="Cambria" font-weight="bold" font-size="11.00" fill="#1a1a1a">CSD</text>
<polygon fill="#ffffff" stroke="none" points="65,-284.25 65,-309.75 116.25,-309.75 116.25,-284.25 65,-284.25"/>
<text xml:space="preserve" text-anchor="start" x="70" y="-293.25" font-family="Cambria" font-size="11.00" fill="#1a1a1a">HARBOE</text>
<polygon fill="#ffffff" stroke="none" points="116.25,-284.25 116.25,-309.75 173.25,-309.75 173.25,-284.25 116.25,-284.25"/>
<text xml:space="preserve" text-anchor="start" x="121.25" y="-293.25" font-family="Cambria" font-size="11.00" fill="#1a1a1a">D</text>
<polygon fill="#ffffff" stroke="none" points="173.25,-284.25 173.25,-309.75 204.75,-309.75 204.75,-284.25 173.25,-284.25"/>
<text xml:space="preserve" text-anchor="start" x="178.25" y="-293.25" font-family="Cambria" font-size="11.00" fill="#1a1a1a">2</text>
<polygon fill="#ffffff" stroke="none" points="204.75,-284.25 204.75,-309.75 261.25,-309.75 261.25,-284.25 204.75,-284.25"/>
<text xml:space="preserve" text-anchor="start" x="209.75" y="-293.25" font-family="Cambria" font-size="11.00" fill="#1a1a1a">6,365,900</text>
<polygon fill="#ffffff" stroke="none" points="261.25,-284.25 261.25,-309.75 317.75,-309.75 317.75,-284.25 261.25,-284.25"/>
<text xml:space="preserve" text-anchor="start" x="266.25" y="-293.25" font-family="Cambria" font-size="11.00" fill="#1a1a1a">6,367,620</text>
<polygon fill="#ffffff" stroke="none" points="317.75,-284.25 317.75,-309.75 371.75,-309.75 371.75,-284.25 317.75,-284.25"/>
<text xml:space="preserve" text-anchor="start" x="322.75" y="-293.25" font-family="Cambria" font-size="11.00" fill="#1a1a1a">0.0</text>
<polygon fill="#ffffff" stroke="none" points="371.75,-284.25 371.75,-309.75 428.75,-309.75 428.75,-284.25 371.75,-284.25"/>
<text xml:space="preserve" text-anchor="start" x="376.75" y="-293.25" font-family="Cambria" font-size="11.00" fill="#1a1a1a">ok</text>
<polygon fill="#ffffff" stroke="none" points="428.75,-284.25 428.75,-309.75 483.5,-309.75 483.5,-284.25 428.75,-284.25"/>
<text xml:space="preserve" text-anchor="start" x="433.75" y="-293.25" font-family="Cambria" font-size="11.00" fill="#1a1a1a">137.5</text>
<polygon fill="#ffffff" stroke="none" points="483.5,-284.25 483.5,-309.75 529.5,-309.75 529.5,-284.25 483.5,-284.25"/>
<text xml:space="preserve" text-anchor="start" x="488.5" y="-293.25" font-family="Cambria" font-size="11.00" fill="#1a1a1a">174942</text>
<polygon fill="#ffffff" stroke="none" points="529.5,-284.25 529.5,-309.75 579,-309.75 579,-284.25 529.5,-284.25"/>
<text xml:space="preserve" text-anchor="start" x="534.5" y="-293.25" font-family="Cambria" font-size="11.00" fill="#1a1a1a">9376</text>
<polygon fill="#ffffff" stroke="none" points="579,-284.25 579,-309.75 636.75,-309.75 636.75,-284.25 579,-284.25"/>
<text xml:space="preserve" text-anchor="start" x="584" y="-293.25" font-family="Cambria" font-size="11.00" fill="#1a1a1a">unknown</text>
<polygon fill="#ffffff" stroke="none" points="636.75,-284.25 636.75,-309.75 702,-309.75 702,-284.25 636.75,-284.25"/>
<text xml:space="preserve" text-anchor="start" x="641.75" y="-293.25" font-family="Cambria" font-size="11.00" fill="#1a1a1a">$1.1560</text>
<polygon fill="#ffffff" stroke="none" points="8,-258.75 8,-284.25 65,-284.25 65,-258.75 8,-258.75"/>
<polyline fill="none" stroke="#000000" points="65,-258.75 65,-284.25"/>
<text xml:space="preserve" text-anchor="start" x="14" y="-268.8" font-family="Cambria" font-weight="bold" font-size="11.00" fill="#1a1a1a">CSD</text>
<polygon fill="#ffffff" stroke="none" points="65,-258.75 65,-284.25 116.25,-284.25 116.25,-258.75 65,-258.75"/>
<text xml:space="preserve" text-anchor="start" x="70" y="-267.75" font-family="Cambria" font-size="11.00" fill="#1a1a1a">HARBOE</text>
<polygon fill="#ffffff" stroke="none" points="116.25,-258.75 116.25,-284.25 173.25,-284.25 173.25,-258.75 116.25,-258.75"/>
<text xml:space="preserve" text-anchor="start" x="121.25" y="-267.75" font-family="Cambria" font-size="11.00" fill="#1a1a1a">E</text>
<polygon fill="#ffffff" stroke="none" points="173.25,-258.75 173.25,-284.25 204.75,-284.25 204.75,-258.75 173.25,-258.75"/>
<text xml:space="preserve" text-anchor="start" x="178.25" y="-267.75" font-family="Cambria" font-size="11.00" fill="#1a1a1a">1</text>
<polygon fill="#ffffff" stroke="none" points="204.75,-258.75 204.75,-284.25 261.25,-284.25 261.25,-258.75 204.75,-258.75"/>
<text xml:space="preserve" text-anchor="start" x="209.75" y="-267.75" font-family="Cambria" font-size="11.00" fill="#1a1a1a">6,365,900</text>
<polygon fill="#ffffff" stroke="none" points="261.25,-258.75 261.25,-284.25 317.75,-284.25 317.75,-258.75 261.25,-258.75"/>
<text xml:space="preserve" text-anchor="start" x="266.25" y="-267.75" font-family="Cambria" font-size="11.00" fill="#1a1a1a">4,969,050</text>
<polygon fill="#ffffff" stroke="none" points="317.75,-258.75 317.75,-284.25 371.75,-284.25 371.75,-258.75 317.75,-258.75"/>
<text xml:space="preserve" text-anchor="start" x="322.75" y="-267.75" font-family="Cambria" font-size="11.00" fill="#1a1a1a">21.9</text>
<polygon fill="#ffffff" stroke="none" points="371.75,-258.75 371.75,-284.25 428.75,-284.25 428.75,-258.75 371.75,-258.75"/>
<text xml:space="preserve" text-anchor="start" x="376.75" y="-267.75" font-family="Cambria" font-size="11.00" fill="#1a1a1a">ok</text>
<polygon fill="#ffffff" stroke="none" points="428.75,-258.75 428.75,-284.25 483.5,-284.25 483.5,-258.75 428.75,-258.75"/>
<text xml:space="preserve" text-anchor="start" x="433.75" y="-267.75" font-family="Cambria" font-size="11.00" fill="#1a1a1a">28.6</text>
<polygon fill="#ffffff" stroke="none" points="483.5,-258.75 483.5,-284.25 529.5,-284.25 529.5,-258.75 483.5,-258.75"/>
<text xml:space="preserve" text-anchor="start" x="488.5" y="-267.75" font-family="Cambria" font-size="11.00" fill="#1a1a1a">28938</text>
<polygon fill="#ffffff" stroke="none" points="529.5,-258.75 529.5,-284.25 579,-284.25 579,-258.75 529.5,-258.75"/>
<text xml:space="preserve" text-anchor="start" x="534.5" y="-267.75" font-family="Cambria" font-size="11.00" fill="#1a1a1a">1705</text>
<polygon fill="#ffffff" stroke="none" points="579,-258.75 579,-284.25 636.75,-284.25 636.75,-258.75 579,-258.75"/>
<text xml:space="preserve" text-anchor="start" x="584" y="-267.75" font-family="Cambria" font-size="11.00" fill="#1a1a1a">unknown</text>
<polygon fill="#ffffff" stroke="none" points="636.75,-258.75 636.75,-284.25 702,-284.25 702,-258.75 636.75,-258.75"/>
<text xml:space="preserve" text-anchor="start" x="641.75" y="-267.75" font-family="Cambria" font-size="11.00" fill="#1a1a1a">$0.1958</text>
<polygon fill="#ffffff" stroke="none" points="8,-233.25 8,-258.75 65,-258.75 65,-233.25 8,-233.25"/>
<polyline fill="none" stroke="#000000" points="65,-233.25 65,-258.75"/>
<text xml:space="preserve" text-anchor="start" x="14" y="-243.3" font-family="Cambria" font-weight="bold" font-size="11.00" fill="#1a1a1a">CSD</text>
<polygon fill="#ffffff" stroke="none" points="65,-233.25 65,-258.75 116.25,-258.75 116.25,-233.25 65,-233.25"/>
<text xml:space="preserve" text-anchor="start" x="70" y="-242.25" font-family="Cambria" font-size="11.00" fill="#1a1a1a">HARBOE</text>
<polygon fill="#ffffff" stroke="none" points="116.25,-233.25 116.25,-258.75 173.25,-258.75 173.25,-233.25 116.25,-233.25"/>
<text xml:space="preserve" text-anchor="start" x="121.25" y="-242.25" font-family="Cambria" font-size="11.00" fill="#1a1a1a">E</text>
<polygon fill="#ffffff" stroke="none" points="173.25,-233.25 173.25,-258.75 204.75,-258.75 204.75,-233.25 173.25,-233.25"/>
<text xml:space="preserve" text-anchor="start" x="178.25" y="-242.25" font-family="Cambria" font-size="11.00" fill="#1a1a1a">2</text>
<polygon fill="#ffffff" stroke="none" points="204.75,-233.25 204.75,-258.75 261.25,-258.75 261.25,-233.25 204.75,-233.25"/>
<text xml:space="preserve" text-anchor="start" x="209.75" y="-242.25" font-family="Cambria" font-size="11.00" fill="#1a1a1a">6,365,900</text>
<polygon fill="#ffffff" stroke="none" points="261.25,-233.25 261.25,-258.75 317.75,-258.75 317.75,-233.25 261.25,-233.25"/>
<text xml:space="preserve" text-anchor="start" x="266.25" y="-242.25" font-family="Cambria" font-size="11.00" fill="#1a1a1a">4,969,050</text>
<polygon fill="#ffffff" stroke="none" points="317.75,-233.25 317.75,-258.75 371.75,-258.75 371.75,-233.25 317.75,-233.25"/>
<text xml:space="preserve" text-anchor="start" x="322.75" y="-242.25" font-family="Cambria" font-size="11.00" fill="#1a1a1a">21.9</text>
<polygon fill="#ffffff" stroke="none" points="371.75,-233.25 371.75,-258.75 428.75,-258.75 428.75,-233.25 371.75,-233.25"/>
<text xml:space="preserve" text-anchor="start" x="376.75" y="-242.25" font-family="Cambria" font-size="11.00" fill="#1a1a1a">ok</text>
<polygon fill="#ffffff" stroke="none" points="428.75,-233.25 428.75,-258.75 483.5,-258.75 483.5,-233.25 428.75,-233.25"/>
<text xml:space="preserve" text-anchor="start" x="433.75" y="-242.25" font-family="Cambria" font-size="11.00" fill="#1a1a1a">35.1</text>
<polygon fill="#ffffff" stroke="none" points="483.5,-233.25 483.5,-258.75 529.5,-258.75 529.5,-233.25 483.5,-233.25"/>
<text xml:space="preserve" text-anchor="start" x="488.5" y="-242.25" font-family="Cambria" font-size="11.00" fill="#1a1a1a">29397</text>
<polygon fill="#ffffff" stroke="none" points="529.5,-233.25 529.5,-258.75 579,-258.75 579,-233.25 529.5,-233.25"/>
<text xml:space="preserve" text-anchor="start" x="534.5" y="-242.25" font-family="Cambria" font-size="11.00" fill="#1a1a1a">2383</text>
<polygon fill="#ffffff" stroke="none" points="579,-233.25 579,-258.75 636.75,-258.75 636.75,-233.25 579,-233.25"/>
<text xml:space="preserve" text-anchor="start" x="584" y="-242.25" font-family="Cambria" font-size="11.00" fill="#1a1a1a">unknown</text>
<polygon fill="#ffffff" stroke="none" points="636.75,-233.25 636.75,-258.75 702,-258.75 702,-233.25 636.75,-233.25"/>
<text xml:space="preserve" text-anchor="start" x="641.75" y="-242.25" font-family="Cambria" font-size="11.00" fill="#1a1a1a">$0.2185</text>
<polygon fill="#ffffff" stroke="none" points="8,-207.75 8,-233.25 65,-233.25 65,-207.75 8,-207.75"/>
<polyline fill="none" stroke="#000000" points="65,-207.75 65,-233.25"/>
<text xml:space="preserve" text-anchor="start" x="14" y="-217.8" font-family="Cambria" font-weight="bold" font-size="11.00" fill="#1a1a1a">CSD</text>
<polygon fill="#ffffff" stroke="none" points="65,-207.75 65,-233.25 116.25,-233.25 116.25,-207.75 65,-207.75"/>
<text xml:space="preserve" text-anchor="start" x="70" y="-216.75" font-family="Cambria" font-size="11.00" fill="#1a1a1a">HARBOE</text>
<polygon fill="#ffffff" stroke="none" points="116.25,-207.75 116.25,-233.25 173.25,-233.25 173.25,-207.75 116.25,-207.75"/>
<text xml:space="preserve" text-anchor="start" x="121.25" y="-216.75" font-family="Cambria" font-size="11.00" fill="#1a1a1a">F</text>
<polygon fill="#ffffff" stroke="none" points="173.25,-207.75 173.25,-233.25 204.75,-233.25 204.75,-207.75 173.25,-207.75"/>
<text xml:space="preserve" text-anchor="start" x="178.25" y="-216.75" font-family="Cambria" font-size="11.00" fill="#1a1a1a">1</text>
<polygon fill="#ffffff" stroke="none" points="204.75,-207.75 204.75,-233.25 261.25,-233.25 261.25,-207.75 204.75,-207.75"/>
<text xml:space="preserve" text-anchor="start" x="209.75" y="-216.75" font-family="Cambria" font-size="11.00" fill="#1a1a1a">6,365,900</text>
<polygon fill="#ffffff" stroke="none" points="261.25,-207.75 261.25,-233.25 317.75,-233.25 317.75,-207.75 261.25,-207.75"/>
<text xml:space="preserve" text-anchor="start" x="266.25" y="-216.75" font-family="Cambria" font-size="11.00" fill="#1a1a1a">5,900,000</text>
<polygon fill="#ffffff" stroke="none" points="317.75,-207.75 317.75,-233.25 371.75,-233.25 371.75,-207.75 317.75,-207.75"/>
<text xml:space="preserve" text-anchor="start" x="322.75" y="-216.75" font-family="Cambria" font-size="11.00" fill="#1a1a1a">7.3</text>
<polygon fill="#ffffff" stroke="none" points="371.75,-207.75 371.75,-233.25 428.75,-233.25 428.75,-207.75 371.75,-207.75"/>
<text xml:space="preserve" text-anchor="start" x="376.75" y="-216.75" font-family="Cambria" font-size="11.00" fill="#1a1a1a">ok</text>
<polygon fill="#ffffff" stroke="none" points="428.75,-207.75 428.75,-233.25 483.5,-233.25 483.5,-207.75 428.75,-207.75"/>
<text xml:space="preserve" text-anchor="start" x="433.75" y="-216.75" font-family="Cambria" font-size="11.00" fill="#1a1a1a">132.4</text>
<polygon fill="#ffffff" stroke="none" points="483.5,-207.75 483.5,-233.25 529.5,-233.25 529.5,-207.75 483.5,-207.75"/>
<text xml:space="preserve" text-anchor="start" x="488.5" y="-216.75" font-family="Cambria" font-size="11.00" fill="#1a1a1a">32425</text>
<polygon fill="#ffffff" stroke="none" points="529.5,-207.75 529.5,-233.25 579,-233.25 579,-207.75 529.5,-207.75"/>
<text xml:space="preserve" text-anchor="start" x="534.5" y="-216.75" font-family="Cambria" font-size="11.00" fill="#1a1a1a">14893</text>
<polygon fill="#ffffff" stroke="none" points="579,-207.75 579,-233.25 636.75,-233.25 636.75,-207.75 579,-207.75"/>
<text xml:space="preserve" text-anchor="start" x="584" y="-216.75" font-family="Cambria" font-size="11.00" fill="#1a1a1a">14735</text>
<polygon fill="#ffffff" stroke="none" points="636.75,-207.75 636.75,-233.25 702,-233.25 702,-207.75 636.75,-207.75"/>
<text xml:space="preserve" text-anchor="start" x="641.75" y="-216.75" font-family="Cambria" font-size="11.00" fill="#1a1a1a">$0.5756</text>
<polygon fill="#ffffff" stroke="none" points="8,-182.25 8,-207.75 65,-207.75 65,-182.25 8,-182.25"/>
<polyline fill="none" stroke="#000000" points="65,-182.25 65,-207.75"/>
<text xml:space="preserve" text-anchor="start" x="14" y="-192.3" font-family="Cambria" font-weight="bold" font-size="11.00" fill="#1a1a1a">CSD</text>
<polygon fill="#ffffff" stroke="none" points="65,-182.25 65,-207.75 116.25,-207.75 116.25,-182.25 65,-182.25"/>
<text xml:space="preserve" text-anchor="start" x="70" y="-191.25" font-family="Cambria" font-size="11.00" fill="#1a1a1a">HARBOE</text>
<polygon fill="#ffffff" stroke="none" points="116.25,-182.25 116.25,-207.75 173.25,-207.75 173.25,-182.25 116.25,-182.25"/>
<text xml:space="preserve" text-anchor="start" x="121.25" y="-191.25" font-family="Cambria" font-size="11.00" fill="#1a1a1a">F</text>
<polygon fill="#ffffff" stroke="none" points="173.25,-182.25 173.25,-207.75 204.75,-207.75 204.75,-182.25 173.25,-182.25"/>
<text xml:space="preserve" text-anchor="start" x="178.25" y="-191.25" font-family="Cambria" font-size="11.00" fill="#1a1a1a">2</text>
<polygon fill="#ffffff" stroke="none" points="204.75,-182.25 204.75,-207.75 261.25,-207.75 261.25,-182.25 204.75,-182.25"/>
<text xml:space="preserve" text-anchor="start" x="209.75" y="-191.25" font-family="Cambria" font-size="11.00" fill="#1a1a1a">6,365,900</text>
<polygon fill="#ffffff" stroke="none" points="261.25,-182.25 261.25,-207.75 317.75,-207.75 317.75,-182.25 261.25,-182.25"/>
<text xml:space="preserve" text-anchor="start" x="266.25" y="-191.25" font-family="Cambria" font-size="11.00" fill="#1a1a1a">5,900,000</text>
<polygon fill="#ffffff" stroke="none" points="317.75,-182.25 317.75,-207.75 371.75,-207.75 371.75,-182.25 317.75,-182.25"/>
<text xml:space="preserve" text-anchor="start" x="322.75" y="-191.25" font-family="Cambria" font-size="11.00" fill="#1a1a1a">7.3</text>
<polygon fill="#ffffff" stroke="none" points="371.75,-182.25 371.75,-207.75 428.75,-207.75 428.75,-182.25 371.75,-182.25"/>
<text xml:space="preserve" text-anchor="start" x="376.75" y="-191.25" font-family="Cambria" font-size="11.00" fill="#1a1a1a">ok</text>
<polygon fill="#ffffff" stroke="none" points="428.75,-182.25 428.75,-207.75 483.5,-207.75 483.5,-182.25 428.75,-182.25"/>
<text xml:space="preserve" text-anchor="start" x="433.75" y="-191.25" font-family="Cambria" font-size="11.00" fill="#1a1a1a">121.5</text>
<polygon fill="#ffffff" stroke="none" points="483.5,-182.25 483.5,-207.75 529.5,-207.75 529.5,-182.25 483.5,-182.25"/>
<text xml:space="preserve" text-anchor="start" x="488.5" y="-191.25" font-family="Cambria" font-size="11.00" fill="#1a1a1a">31450</text>
<polygon fill="#ffffff" stroke="none" points="529.5,-182.25 529.5,-207.75 579,-207.75 579,-182.25 529.5,-182.25"/>
<text xml:space="preserve" text-anchor="start" x="534.5" y="-191.25" font-family="Cambria" font-size="11.00" fill="#1a1a1a">13394</text>
<polygon fill="#ffffff" stroke="none" points="579,-182.25 579,-207.75 636.75,-207.75 636.75,-182.25 579,-182.25"/>
<text xml:space="preserve" text-anchor="start" x="584" y="-191.25" font-family="Cambria" font-size="11.00" fill="#1a1a1a">13216</text>
<polygon fill="#ffffff" stroke="none" points="636.75,-182.25 636.75,-207.75 702,-207.75 702,-182.25 636.75,-182.25"/>
<text xml:space="preserve" text-anchor="start" x="641.75" y="-191.25" font-family="Cambria" font-size="11.00" fill="#1a1a1a">$0.5303</text>
<polygon fill="#ffffff" stroke="none" points="8,-156.75 8,-182.25 65,-182.25 65,-156.75 8,-156.75"/>
<polyline fill="none" stroke="#000000" points="65,-156.75 65,-182.25"/>
<text xml:space="preserve" text-anchor="start" x="14" y="-166.8" font-family="Cambria" font-weight="bold" font-size="11.00" fill="#1a1a1a">CSD</text>
<polygon fill="#ffffff" stroke="none" points="65,-156.75 65,-182.25 116.25,-182.25 116.25,-156.75 65,-156.75"/>
<text xml:space="preserve" text-anchor="start" x="70" y="-165.75" font-family="Cambria" font-size="11.00" fill="#1a1a1a">HARBOE</text>
<polygon fill="#ffffff" stroke="none" points="116.25,-156.75 116.25,-182.25 173.25,-182.25 173.25,-156.75 116.25,-156.75"/>
<text xml:space="preserve" text-anchor="start" x="121.25" y="-165.75" font-family="Cambria" font-size="11.00" fill="#1a1a1a">G</text>
<polygon fill="#ffffff" stroke="none" points="173.25,-156.75 173.25,-182.25 204.75,-182.25 204.75,-156.75 173.25,-156.75"/>
<text xml:space="preserve" text-anchor="start" x="178.25" y="-165.75" font-family="Cambria" font-size="11.00" fill="#1a1a1a">1</text>
<polygon fill="#ffffff" stroke="none" points="204.75,-156.75 204.75,-182.25 261.25,-182.25 261.25,-156.75 204.75,-156.75"/>
<text xml:space="preserve" text-anchor="start" x="209.75" y="-165.75" font-family="Cambria" font-size="11.00" fill="#1a1a1a">6,365,900</text>
<polygon fill="#ffffff" stroke="none" points="261.25,-156.75 261.25,-182.25 317.75,-182.25 317.75,-156.75 261.25,-156.75"/>
<text xml:space="preserve" text-anchor="start" x="266.25" y="-165.75" font-family="Cambria" font-size="11.00" fill="#1a1a1a">6,300,000</text>
<polygon fill="#ffffff" stroke="none" points="317.75,-156.75 317.75,-182.25 371.75,-182.25 371.75,-156.75 317.75,-156.75"/>
<text xml:space="preserve" text-anchor="start" x="322.75" y="-165.75" font-family="Cambria" font-size="11.00" fill="#1a1a1a">1.0</text>
<polygon fill="#ffffff" stroke="none" points="371.75,-156.75 371.75,-182.25 428.75,-182.25 428.75,-156.75 371.75,-156.75"/>
<text xml:space="preserve" text-anchor="start" x="376.75" y="-165.75" font-family="Cambria" font-size="11.00" fill="#1a1a1a">ok</text>
<polygon fill="#ffffff" stroke="none" points="428.75,-156.75 428.75,-182.25 483.5,-182.25 483.5,-156.75 428.75,-156.75"/>
<text xml:space="preserve" text-anchor="start" x="433.75" y="-165.75" font-family="Cambria" font-size="11.00" fill="#1a1a1a">68.5</text>
<polygon fill="#ffffff" stroke="none" points="483.5,-156.75 483.5,-182.25 529.5,-182.25 529.5,-156.75 483.5,-156.75"/>
<text xml:space="preserve" text-anchor="start" x="488.5" y="-165.75" font-family="Cambria" font-size="11.00" fill="#1a1a1a">65226</text>
<polygon fill="#ffffff" stroke="none" points="529.5,-156.75 529.5,-182.25 579,-182.25 579,-156.75 529.5,-156.75"/>
<text xml:space="preserve" text-anchor="start" x="534.5" y="-165.75" font-family="Cambria" font-size="11.00" fill="#1a1a1a">4526</text>
<polygon fill="#ffffff" stroke="none" points="579,-156.75 579,-182.25 636.75,-182.25 636.75,-156.75 579,-156.75"/>
<text xml:space="preserve" text-anchor="start" x="584" y="-165.75" font-family="Cambria" font-size="11.00" fill="#1a1a1a">unknown</text>
<polygon fill="#ffffff" stroke="none" points="636.75,-156.75 636.75,-182.25 702,-182.25 702,-156.75 636.75,-156.75"/>
<text xml:space="preserve" text-anchor="start" x="641.75" y="-165.75" font-family="Cambria" font-size="11.00" fill="#1a1a1a">$0.4619</text>
<polygon fill="#ffffff" stroke="none" points="8,-131.25 8,-156.75 65,-156.75 65,-131.25 8,-131.25"/>
<polyline fill="none" stroke="#000000" points="65,-131.25 65,-156.75"/>
<text xml:space="preserve" text-anchor="start" x="14" y="-141.3" font-family="Cambria" font-weight="bold" font-size="11.00" fill="#1a1a1a">CSD</text>
<polygon fill="#ffffff" stroke="none" points="65,-131.25 65,-156.75 116.25,-156.75 116.25,-131.25 65,-131.25"/>
<text xml:space="preserve" text-anchor="start" x="70" y="-140.25" font-family="Cambria" font-size="11.00" fill="#1a1a1a">HARBOE</text>
<polygon fill="#ffffff" stroke="none" points="116.25,-131.25 116.25,-156.75 173.25,-156.75 173.25,-131.25 116.25,-131.25"/>
<text xml:space="preserve" text-anchor="start" x="121.25" y="-140.25" font-family="Cambria" font-size="11.00" fill="#1a1a1a">G</text>
<polygon fill="#ffffff" stroke="none" points="173.25,-131.25 173.25,-156.75 204.75,-156.75 204.75,-131.25 173.25,-131.25"/>
<text xml:space="preserve" text-anchor="start" x="178.25" y="-140.25" font-family="Cambria" font-size="11.00" fill="#1a1a1a">2</text>
<polygon fill="#ffffff" stroke="none" points="204.75,-131.25 204.75,-156.75 261.25,-156.75 261.25,-131.25 204.75,-131.25"/>
<text xml:space="preserve" text-anchor="start" x="209.75" y="-140.25" font-family="Cambria" font-size="11.00" fill="#1a1a1a">6,365,900</text>
<polygon fill="#ffffff" stroke="none" points="261.25,-131.25 261.25,-156.75 317.75,-156.75 317.75,-131.25 261.25,-131.25"/>
<text xml:space="preserve" text-anchor="start" x="266.25" y="-140.25" font-family="Cambria" font-size="11.00" fill="#1a1a1a">5,800,000</text>
<polygon fill="#ffffff" stroke="none" points="317.75,-131.25 317.75,-156.75 371.75,-156.75 371.75,-131.25 317.75,-131.25"/>
<text xml:space="preserve" text-anchor="start" x="322.75" y="-140.25" font-family="Cambria" font-size="11.00" fill="#1a1a1a">8.9</text>
<polygon fill="#ffffff" stroke="none" points="371.75,-131.25 371.75,-156.75 428.75,-156.75 428.75,-131.25 371.75,-131.25"/>
<text xml:space="preserve" text-anchor="start" x="376.75" y="-140.25" font-family="Cambria" font-size="11.00" fill="#1a1a1a">ok</text>
<polygon fill="#ffffff" stroke="none" points="428.75,-131.25 428.75,-156.75 483.5,-156.75 483.5,-131.25 428.75,-131.25"/>
<text xml:space="preserve" text-anchor="start" x="433.75" y="-140.25" font-family="Cambria" font-size="11.00" fill="#1a1a1a">112.0</text>
<polygon fill="#ffffff" stroke="none" points="483.5,-131.25 483.5,-156.75 529.5,-156.75 529.5,-131.25 483.5,-131.25"/>
<text xml:space="preserve" text-anchor="start" x="488.5" y="-140.25" font-family="Cambria" font-size="11.00" fill="#1a1a1a">89908</text>
<polygon fill="#ffffff" stroke="none" points="529.5,-131.25 529.5,-156.75 579,-156.75 579,-131.25 529.5,-131.25"/>
<text xml:space="preserve" text-anchor="start" x="534.5" y="-140.25" font-family="Cambria" font-size="11.00" fill="#1a1a1a">5694</text>
<polygon fill="#ffffff" stroke="none" points="579,-131.25 579,-156.75 636.75,-156.75 636.75,-131.25 579,-131.25"/>
<text xml:space="preserve" text-anchor="start" x="584" y="-140.25" font-family="Cambria" font-size="11.00" fill="#1a1a1a">unknown</text>
<polygon fill="#ffffff" stroke="none" points="636.75,-131.25 636.75,-156.75 702,-156.75 702,-131.25 636.75,-131.25"/>
<text xml:space="preserve" text-anchor="start" x="641.75" y="-140.25" font-family="Cambria" font-size="11.00" fill="#1a1a1a">$0.6204</text>
<polygon fill="#ffffff" stroke="none" points="8,-105.75 8,-131.25 65,-131.25 65,-105.75 8,-105.75"/>
<polyline fill="none" stroke="#000000" points="8,-105.75 65,-105.75 65,-131.25"/>
<text xml:space="preserve" text-anchor="start" x="14" y="-115.8" font-family="Cambria" font-weight="bold" font-size="11.00" fill="#1a1a1a">CSD</text>
<polygon fill="#ffffff" stroke="none" points="65,-105.75 65,-131.25 116.25,-131.25 116.25,-105.75 65,-105.75"/>
<polyline fill="none" stroke="#000000" points="65,-105.75 116.25,-105.75"/>
<text xml:space="preserve" text-anchor="start" x="71" y="-114.75" font-family="Cambria" font-size="11.00" fill="#1a1a1a">7&#45;UP</text>
<polygon fill="#ffffff" stroke="none" points="116.25,-105.75 116.25,-131.25 173.25,-131.25 173.25,-105.75 116.25,-105.75"/>
<polyline fill="none" stroke="#000000" points="116.25,-105.75 173.25,-105.75"/>
<text xml:space="preserve" text-anchor="start" x="122.25" y="-114.75" font-family="Cambria" font-size="11.00" fill="#1a1a1a">A</text>
<polygon fill="#ffffff" stroke="none" points="173.25,-105.75 173.25,-131.25 204.75,-131.25 204.75,-105.75 173.25,-105.75"/>
<polyline fill="none" stroke="#000000" points="173.25,-105.75 204.75,-105.75"/>
<text xml:space="preserve" text-anchor="start" x="179.25" y="-114.75" font-family="Cambria" font-size="11.00" fill="#1a1a1a">0</text>
<polygon fill="#ffffff" stroke="none" points="204.75,-105.75 204.75,-131.25 261.25,-131.25 261.25,-105.75 204.75,-105.75"/>
<polyline fill="none" stroke="#000000" points="204.75,-105.75 261.25,-105.75"/>
<text xml:space="preserve" text-anchor="start" x="210.75" y="-114.75" font-family="Cambria" font-size="11.00" fill="#1a1a1a">13,042</text>
<polygon fill="#ffffff" stroke="none" points="261.25,-105.75 261.25,-131.25 317.75,-131.25 317.75,-105.75 261.25,-105.75"/>
<polyline fill="none" stroke="#000000" points="261.25,-105.75 317.75,-105.75"/>
<text xml:space="preserve" text-anchor="start" x="267.25" y="-114.75" font-family="Cambria" font-size="11.00" fill="#1a1a1a">240,000</text>
<polygon fill="#ffffff" stroke="none" points="317.75,-105.75 317.75,-131.25 371.75,-131.25 371.75,-105.75 317.75,-105.75"/>
<polyline fill="none" stroke="#000000" points="317.75,-105.75 371.75,-105.75"/>
<text xml:space="preserve" text-anchor="start" x="323.75" y="-114.75" font-family="Cambria" font-size="11.00" fill="#1a1a1a">1740.3</text>
<polygon fill="#ffffff" stroke="none" points="371.75,-105.75 371.75,-131.25 428.75,-131.25 428.75,-105.75 371.75,-105.75"/>
<polyline fill="none" stroke="#000000" points="371.75,-105.75 428.75,-105.75"/>
<text xml:space="preserve" text-anchor="start" x="377.75" y="-114.75" font-family="Cambria" font-size="11.00" fill="#1a1a1a">ok</text>
<polygon fill="#ffffff" stroke="none" points="428.75,-105.75 428.75,-131.25 483.5,-131.25 483.5,-105.75 428.75,-105.75"/>
<polyline fill="none" stroke="#000000" points="428.75,-105.75 483.5,-105.75"/>
<text xml:space="preserve" text-anchor="start" x="434.75" y="-114.75" font-family="Cambria" font-size="11.00" fill="#1a1a1a">49.7</text>
<polygon fill="#ffffff" stroke="none" points="483.5,-105.75 483.5,-131.25 529.5,-131.25 529.5,-105.75 483.5,-105.75"/>
<polyline fill="none" stroke="#000000" points="483.5,-105.75 529.5,-105.75"/>
<text xml:space="preserve" text-anchor="start" x="489.5" y="-114.75" font-family="Cambria" font-size="11.00" fill="#1a1a1a">34638</text>
<polygon fill="#ffffff" stroke="none" points="529.5,-105.75 529.5,-131.25 579,-131.25 579,-105.75 529.5,-105.75"/>
<polyline fill="none" stroke="#000000" points="529.5,-105.75 579,-105.75"/>
<text xml:space="preserve" text-anchor="start" x="535.5" y="-114.75" font-family="Cambria" font-size="11.00" fill="#1a1a1a">2966</text>
<polygon fill="#ffffff" stroke="none" points="579,-105.75 579,-131.25 636.75,-131.25 636.75,-105.75 579,-105.75"/>
<polyline fill="none" stroke="#000000" points="579,-105.75 636.75,-105.75"/>
<text xml:space="preserve" text-anchor="start" x="585" y="-114.75" font-family="Cambria" font-size="11.00" fill="#1a1a1a">2773</text>
<polygon fill="#ffffff" stroke="none" points="636.75,-105.75 636.75,-131.25 702,-131.25 702,-105.75 636.75,-105.75"/>
<polyline fill="none" stroke="#000000" points="636.75,-105.75 702,-105.75"/>
<text xml:space="preserve" text-anchor="start" x="642.75" y="-114.75" font-family="Cambria" font-size="11.00" fill="#1a1a1a">$0.2455</text>
<text xml:space="preserve" text-anchor="start" x="9" y="-89.75" font-family="Cambria" font-size="9.00" fill="#5a5a5a">Note. Actual and Forecast are in units; Rep is the repeat index; Tok in, Tok out and Tok reas. are input, output and reasoning tokens. The full response for</text>
<text xml:space="preserve" text-anchor="start" x="9" y="-76.5" font-family="Cambria" font-size="9.00" fill="#5a5a5a">each run, including any code generated and the reasoning summary returned by the model, is retained alongside these records. Scenarios are abbreviated to their</text>
<text xml:space="preserve" text-anchor="start" x="9" y="-63.25" font-family="Cambria" font-size="9.00" fill="#5a5a5a">letter: A = A_llm_plain; B = B_llm_data; C = C_llm_model; D = D_prometheus_data; E = E_prometheus_model; F = F_llm_data_model; G = G_prometheus_data_model.</text>
</g>
</g>
</svg>
