<?xml version="1.0" encoding="UTF-8" standalone="no"?>
<!DOCTYPE svg PUBLIC "-//W3C//DTD SVG 1.1//EN"
 "http://www.w3.org/Graphics/SVG/1.1/DTD/svg11.dtd">
<!-- Generated by graphviz version 16.1.0 (20260904.0139)
 -->
<!-- Title: 31_run_configuration Pages: 1 -->
<svg width="600pt" height="346pt"
 viewBox="0.00 0.00 600.00 346.00" xmlns="http://www.w3.org/2000/svg" xmlns:xlink="http://www.w3.org/1999/xlink">
<g id="graph0" class="graph" transform="scale(1 1) rotate(0) translate(4 341.5)">
<title>31_run_configuration</title>
<polygon fill="white" stroke="none" points="-4,4 -4,-341.5 595.75,-341.5 595.75,4 -4,4"/>
<text xml:space="preserve" text-anchor="middle" x="295.88" y="-30.5" font-family="Cambria" font-size="10.00" fill="#5a5a5a">The parameters under which the scenario comparison was run. Each is recorded</text>
<text xml:space="preserve" text-anchor="middle" x="295.88" y="-18.5" font-family="Cambria" font-size="10.00" fill="#5a5a5a">with every individual run, so any result can be tied to the configuration that</text>
<text xml:space="preserve" text-anchor="middle" x="295.88" y="-6.5" font-family="Cambria" font-size="10.00" fill="#5a5a5a">produced it.</text>
<!-- t -->
<g id="node1" class="node">
<title>t</title>
<polygon fill="#ffffff" stroke="none" points="8,-308 8,-333.5 267.62,-333.5 267.62,-308 8,-308"/>
<polyline fill="none" stroke="#000000" points="8,-308 267.62,-308 267.62,-333.5"/>
<text xml:space="preserve" text-anchor="start" x="14" y="-318.05" font-family="Cambria" font-weight="bold" font-size="11.00" fill="#1a1a1a">Parameter</text>
<polygon fill="#ffffff" stroke="none" points="267.62,-308 267.62,-333.5 583.75,-333.5 583.75,-308 267.62,-308"/>
<polyline fill="none" stroke="#000000" points="267.62,-308 583.75,-308"/>
<text xml:space="preserve" text-anchor="start" x="273.62" y="-318.05" font-family="Cambria" font-weight="bold" font-size="11.00" fill="#1a1a1a">Value</text>
<polygon fill="#ffffff" stroke="none" points="8,-282.5 8,-308 267.62,-308 267.62,-282.5 8,-282.5"/>
<polyline fill="none" stroke="#000000" points="267.62,-282.5 267.62,-308"/>
<text xml:space="preserve" text-anchor="start" x="14" y="-292.55" font-family="Cambria" font-weight="bold" font-size="11.00" fill="#1a1a1a">Language model</text>
<polygon fill="#ffffff" stroke="none" points="267.62,-282.5 267.62,-308 583.75,-308 583.75,-282.5 267.62,-282.5"/>
<text xml:space="preserve" text-anchor="start" x="272.62" y="-291.5" font-family="Cambria" font-size="11.00" fill="#1a1a1a">gpt&#45;5.5&#45;2026&#45;04&#45;23</text>
<polygon fill="#ffffff" stroke="none" points="8,-257 8,-282.5 267.62,-282.5 267.62,-257 8,-257"/>
<polyline fill="none" stroke="#000000" points="267.62,-257 267.62,-282.5"/>
<text xml:space="preserve" text-anchor="start" x="14" y="-267.05" font-family="Cambria" font-weight="bold" font-size="11.00" fill="#1a1a1a">Reasoning effort</text>
<polygon fill="#ffffff" stroke="none" points="267.62,-257 267.62,-282.5 583.75,-282.5 583.75,-257 267.62,-257"/>
<text xml:space="preserve" text-anchor="start" x="272.62" y="-266" font-family="Cambria" font-size="11.00" fill="#1a1a1a">medium</text>
<polygon fill="#ffffff" stroke="none" points="8,-220 8,-257 267.62,-257 267.62,-220 8,-220"/>
<polyline fill="none" stroke="#000000" points="267.62,-220 267.62,-257"/>
<text xml:space="preserve" text-anchor="start" x="14" y="-235.8" font-family="Cambria" font-weight="bold" font-size="11.00" fill="#1a1a1a">Decoding</text>
<polygon fill="#ffffff" stroke="none" points="267.62,-220 267.62,-257 583.75,-257 583.75,-220 267.62,-220"/>
<text xml:space="preserve" text-anchor="start" x="272.62" y="-241.5" font-family="Cambria" font-size="11.00" fill="#1a1a1a">temperature/top_p unsupported by</text>
<text xml:space="preserve" text-anchor="start" x="272.62" y="-228" font-family="Cambria" font-size="11.00" fill="#1a1a1a">the model; defaults used</text>
<polygon fill="#ffffff" stroke="none" points="8,-194.5 8,-220 267.62,-220 267.62,-194.5 8,-194.5"/>
<polyline fill="none" stroke="#000000" points="267.62,-194.5 267.62,-220"/>
<text xml:space="preserve" text-anchor="start" x="14" y="-204.55" font-family="Cambria" font-weight="bold" font-size="11.00" fill="#1a1a1a">Categories evaluated</text>
<polygon fill="#ffffff" stroke="none" points="267.62,-194.5 267.62,-220 583.75,-220 583.75,-194.5 267.62,-194.5"/>
<text xml:space="preserve" text-anchor="start" x="272.62" y="-203.5" font-family="Cambria" font-size="11.00" fill="#1a1a1a">CSD</text>
<polygon fill="#ffffff" stroke="none" points="8,-169 8,-194.5 267.62,-194.5 267.62,-169 8,-169"/>
<polyline fill="none" stroke="#000000" points="267.62,-169 267.62,-194.5"/>
<text xml:space="preserve" text-anchor="start" x="14" y="-179.05" font-family="Cambria" font-weight="bold" font-size="11.00" fill="#1a1a1a">Distinct brands</text>
<polygon fill="#ffffff" stroke="none" points="267.62,-169 267.62,-194.5 583.75,-194.5 583.75,-169 267.62,-169"/>
<text xml:space="preserve" text-anchor="start" x="272.62" y="-178" font-family="Cambria" font-size="11.00" fill="#1a1a1a">3</text>
<polygon fill="#ffffff" stroke="none" points="8,-143.5 8,-169 267.62,-169 267.62,-143.5 8,-143.5"/>
<polyline fill="none" stroke="#000000" points="267.62,-143.5 267.62,-169"/>
<text xml:space="preserve" text-anchor="start" x="14" y="-153.55" font-family="Cambria" font-weight="bold" font-size="11.00" fill="#1a1a1a">Repeats per brand</text>
<polygon fill="#ffffff" stroke="none" points="267.62,-143.5 267.62,-169 583.75,-169 583.75,-143.5 267.62,-143.5"/>
<text xml:space="preserve" text-anchor="start" x="272.62" y="-152.5" font-family="Cambria" font-size="11.00" fill="#1a1a1a">3</text>
<polygon fill="#ffffff" stroke="none" points="8,-118 8,-143.5 267.62,-143.5 267.62,-118 8,-118"/>
<polyline fill="none" stroke="#000000" points="267.62,-118 267.62,-143.5"/>
<text xml:space="preserve" text-anchor="start" x="14" y="-128.05" font-family="Cambria" font-weight="bold" font-size="11.00" fill="#1a1a1a">Total runs</text>
<polygon fill="#ffffff" stroke="none" points="267.62,-118 267.62,-143.5 583.75,-143.5 583.75,-118 267.62,-118"/>
<text xml:space="preserve" text-anchor="start" x="272.62" y="-127" font-family="Cambria" font-size="11.00" fill="#1a1a1a">63</text>
<polygon fill="#ffffff" stroke="none" points="8,-92.5 8,-118 267.62,-118 267.62,-92.5 8,-92.5"/>
<polyline fill="none" stroke="#000000" points="8,-92.5 267.62,-92.5 267.62,-118"/>
<text xml:space="preserve" text-anchor="start" x="14" y="-102.55" font-family="Cambria" font-weight="bold" font-size="11.00" fill="#1a1a1a">First run timestamp</text>
<polygon fill="#ffffff" stroke="none" points="267.62,-92.5 267.62,-118 583.75,-118 583.75,-92.5 267.62,-92.5"/>
<polyline fill="none" stroke="#000000" points="267.62,-92.5 583.75,-92.5"/>
<text xml:space="preserve" text-anchor="start" x="273.62" y="-101.5" font-family="Cambria" font-size="11.00" fill="#1a1a1a">2026&#45;09&#45;12T19:18:26</text>
<text xml:space="preserve" text-anchor="start" x="9" y="-76.5" font-family="Cambria" font-size="9.00" fill="#5a5a5a">Note. Temperature and nucleus&#45;sampling parameters are not supported by the model used; this is recorded explicitly rather than implying a setting</text>
<text xml:space="preserve" text-anchor="start" x="9" y="-63.25" font-family="Cambria" font-size="9.00" fill="#5a5a5a">that was never applied.</text>
</g>
</g>
</svg>
