<?xml version="1.0" encoding="UTF-8" standalone="no"?>
<!DOCTYPE svg PUBLIC "-//W3C//DTD SVG 1.1//EN"
 "http://www.w3.org/Graphics/SVG/1.1/DTD/svg11.dtd">
<!-- Generated by graphviz version 16.1.0 (20260904.0139)
 -->
<!-- Title: prompt_schema_composition Pages: 1 -->
<svg width="406pt" height="412pt"
 viewBox="0.00 0.00 406.00 412.00" xmlns="http://www.w3.org/2000/svg" xmlns:xlink="http://www.w3.org/1999/xlink">
<g id="graph0" class="graph" transform="scale(1 1) rotate(0) translate(4 407.75)">
<title>prompt_schema_composition</title>
<polygon fill="white" stroke="none" points="-4,4 -4,-407.75 402.25,-407.75 402.25,4 -4,4"/>
<text xml:space="preserve" text-anchor="middle" x="199.12" y="-18.5" font-family="Cambria" font-size="10.00" fill="#5a5a5a">Prompt components by scenario. Only the blocks below the</text>
<text xml:space="preserve" text-anchor="middle" x="199.12" y="-6.5" font-family="Cambria" font-size="10.00" fill="#5a5a5a">rule differ between arms; those are the treatment.</text>
<!-- t -->
<g id="node1" class="node">
<title>t</title>
<polygon fill="#ffffff" stroke="none" points="8,-374.25 8,-399.75 163.41,-399.75 163.41,-374.25 8,-374.25"/>
<polyline fill="none" stroke="#000000" points="8,-374.25 163.41,-374.25 163.41,-399.75"/>
<text xml:space="preserve" text-anchor="start" x="14" y="-384.3" font-family="Cambria" font-weight="bold" font-size="11.00" fill="#1a1a1a"> </text>
<polygon fill="#ffffff" stroke="none" points="163.41,-374.25 163.41,-399.75 196.56,-399.75 196.56,-374.25 163.41,-374.25"/>
<polyline fill="none" stroke="#000000" points="163.41,-374.25 196.56,-374.25"/>
<text xml:space="preserve" text-anchor="start" x="169.41" y="-384.3" font-family="Cambria" font-weight="bold" font-size="11.00" fill="#1a1a1a">A</text>
<polygon fill="#ffffff" stroke="none" points="196.56,-374.25 196.56,-399.75 229.72,-399.75 229.72,-374.25 196.56,-374.25"/>
<polyline fill="none" stroke="#000000" points="196.56,-374.25 229.72,-374.25"/>
<text xml:space="preserve" text-anchor="start" x="202.56" y="-384.3" font-family="Cambria" font-weight="bold" font-size="11.00" fill="#1a1a1a">B</text>
<polygon fill="#ffffff" stroke="none" points="229.72,-374.25 229.72,-399.75 261.38,-399.75 261.38,-374.25 229.72,-374.25"/>
<polyline fill="none" stroke="#000000" points="229.72,-374.25 261.38,-374.25"/>
<text xml:space="preserve" text-anchor="start" x="235.72" y="-384.3" font-family="Cambria" font-weight="bold" font-size="11.00" fill="#1a1a1a">C</text>
<polygon fill="#ffffff" stroke="none" points="261.38,-374.25 261.38,-399.75 294.53,-399.75 294.53,-374.25 261.38,-374.25"/>
<polyline fill="none" stroke="#000000" points="261.38,-374.25 294.53,-374.25"/>
<text xml:space="preserve" text-anchor="start" x="267.38" y="-384.3" font-family="Cambria" font-weight="bold" font-size="11.00" fill="#1a1a1a">D</text>
<polygon fill="#ffffff" stroke="none" points="294.53,-374.25 294.53,-399.75 326.19,-399.75 326.19,-374.25 294.53,-374.25"/>
<polyline fill="none" stroke="#000000" points="294.53,-374.25 326.19,-374.25"/>
<text xml:space="preserve" text-anchor="start" x="300.53" y="-384.3" font-family="Cambria" font-weight="bold" font-size="11.00" fill="#1a1a1a">E</text>
<polygon fill="#ffffff" stroke="none" points="326.19,-374.25 326.19,-399.75 357.84,-399.75 357.84,-374.25 326.19,-374.25"/>
<polyline fill="none" stroke="#000000" points="326.19,-374.25 357.84,-374.25"/>
<text xml:space="preserve" text-anchor="start" x="332.19" y="-384.3" font-family="Cambria" font-weight="bold" font-size="11.00" fill="#1a1a1a">F</text>
<polygon fill="#ffffff" stroke="none" points="357.84,-374.25 357.84,-399.75 390.25,-399.75 390.25,-374.25 357.84,-374.25"/>
<polyline fill="none" stroke="#000000" points="357.84,-374.25 390.25,-374.25"/>
<text xml:space="preserve" text-anchor="start" x="363.84" y="-384.3" font-family="Cambria" font-weight="bold" font-size="11.00" fill="#1a1a1a">G</text>
<polygon fill="#ffffff" stroke="none" points="8,-348.75 8,-374.25 163.41,-374.25 163.41,-348.75 8,-348.75"/>
<polyline fill="none" stroke="#000000" points="163.41,-348.75 163.41,-374.25"/>
<text xml:space="preserve" text-anchor="start" x="14" y="-358.8" font-family="Cambria" font-weight="bold" font-size="11.00" fill="#1a1a1a">The question</text>
<polygon fill="#ffffff" stroke="none" points="163.41,-348.75 163.41,-374.25 196.56,-374.25 196.56,-348.75 163.41,-348.75"/>
<text xml:space="preserve" text-anchor="start" x="168.41" y="-357.75" font-family="Cambria" font-size="11.00" fill="#1a1a1a">•</text>
<polygon fill="#ffffff" stroke="none" points="196.56,-348.75 196.56,-374.25 229.72,-374.25 229.72,-348.75 196.56,-348.75"/>
<text xml:space="preserve" text-anchor="start" x="201.56" y="-357.75" font-family="Cambria" font-size="11.00" fill="#1a1a1a">•</text>
<polygon fill="#ffffff" stroke="none" points="229.72,-348.75 229.72,-374.25 261.38,-374.25 261.38,-348.75 229.72,-348.75"/>
<text xml:space="preserve" text-anchor="start" x="234.72" y="-357.75" font-family="Cambria" font-size="11.00" fill="#1a1a1a">•</text>
<polygon fill="#ffffff" stroke="none" points="261.38,-348.75 261.38,-374.25 294.53,-374.25 294.53,-348.75 261.38,-348.75"/>
<text xml:space="preserve" text-anchor="start" x="266.38" y="-357.75" font-family="Cambria" font-size="11.00" fill="#1a1a1a">•</text>
<polygon fill="#ffffff" stroke="none" points="294.53,-348.75 294.53,-374.25 326.19,-374.25 326.19,-348.75 294.53,-348.75"/>
<text xml:space="preserve" text-anchor="start" x="299.53" y="-357.75" font-family="Cambria" font-size="11.00" fill="#1a1a1a">•</text>
<polygon fill="#ffffff" stroke="none" points="326.19,-348.75 326.19,-374.25 357.84,-374.25 357.84,-348.75 326.19,-348.75"/>
<text xml:space="preserve" text-anchor="start" x="331.19" y="-357.75" font-family="Cambria" font-size="11.00" fill="#1a1a1a">•</text>
<polygon fill="#ffffff" stroke="none" points="357.84,-348.75 357.84,-374.25 390.25,-374.25 390.25,-348.75 357.84,-348.75"/>
<text xml:space="preserve" text-anchor="start" x="362.84" y="-357.75" font-family="Cambria" font-size="11.00" fill="#1a1a1a">•</text>
<polygon fill="#ffffff" stroke="none" points="8,-323.25 8,-348.75 163.41,-348.75 163.41,-323.25 8,-323.25"/>
<polyline fill="none" stroke="#000000" points="163.41,-323.25 163.41,-348.75"/>
<text xml:space="preserve" text-anchor="start" x="14" y="-333.3" font-family="Cambria" font-weight="bold" font-size="11.00" fill="#1a1a1a">Output exemplar</text>
<polygon fill="#ffffff" stroke="none" points="163.41,-323.25 163.41,-348.75 196.56,-348.75 196.56,-323.25 163.41,-323.25"/>
<text xml:space="preserve" text-anchor="start" x="168.41" y="-332.25" font-family="Cambria" font-size="11.00" fill="#1a1a1a">•</text>
<polygon fill="#ffffff" stroke="none" points="196.56,-323.25 196.56,-348.75 229.72,-348.75 229.72,-323.25 196.56,-323.25"/>
<text xml:space="preserve" text-anchor="start" x="201.56" y="-332.25" font-family="Cambria" font-size="11.00" fill="#1a1a1a">•</text>
<polygon fill="#ffffff" stroke="none" points="229.72,-323.25 229.72,-348.75 261.38,-348.75 261.38,-323.25 229.72,-323.25"/>
<text xml:space="preserve" text-anchor="start" x="234.72" y="-332.25" font-family="Cambria" font-size="11.00" fill="#1a1a1a">•</text>
<polygon fill="#ffffff" stroke="none" points="261.38,-323.25 261.38,-348.75 294.53,-348.75 294.53,-323.25 261.38,-323.25"/>
<text xml:space="preserve" text-anchor="start" x="266.38" y="-332.25" font-family="Cambria" font-size="11.00" fill="#1a1a1a">•</text>
<polygon fill="#ffffff" stroke="none" points="294.53,-323.25 294.53,-348.75 326.19,-348.75 326.19,-323.25 294.53,-323.25"/>
<text xml:space="preserve" text-anchor="start" x="299.53" y="-332.25" font-family="Cambria" font-size="11.00" fill="#1a1a1a">•</text>
<polygon fill="#ffffff" stroke="none" points="326.19,-323.25 326.19,-348.75 357.84,-348.75 357.84,-323.25 326.19,-323.25"/>
<text xml:space="preserve" text-anchor="start" x="331.19" y="-332.25" font-family="Cambria" font-size="11.00" fill="#1a1a1a">•</text>
<polygon fill="#ffffff" stroke="none" points="357.84,-323.25 357.84,-348.75 390.25,-348.75 390.25,-323.25 357.84,-323.25"/>
<text xml:space="preserve" text-anchor="start" x="362.84" y="-332.25" font-family="Cambria" font-size="11.00" fill="#1a1a1a">•</text>
<polygon fill="#ffffff" stroke="none" points="8,-297.75 8,-323.25 163.41,-323.25 163.41,-297.75 8,-297.75"/>
<polyline fill="none" stroke="#d0d0d0" points="8,-297.75 163.41,-297.75"/>
<text xml:space="preserve" text-anchor="start" x="14" y="-307.8" font-family="Cambria" font-weight="bold" font-size="11.00" fill="#1a1a1a">Sentinel instruction</text>
<polygon fill="#ffffff" stroke="none" points="163.41,-297.75 163.41,-323.25 196.56,-323.25 196.56,-297.75 163.41,-297.75"/>
<polyline fill="none" stroke="#d0d0d0" points="163.41,-297.75 196.56,-297.75"/>
<text xml:space="preserve" text-anchor="start" x="169.41" y="-306.75" font-family="Cambria" font-size="11.00" fill="#1a1a1a">•</text>
<polygon fill="#ffffff" stroke="none" points="196.56,-297.75 196.56,-323.25 229.72,-323.25 229.72,-297.75 196.56,-297.75"/>
<polyline fill="none" stroke="#d0d0d0" points="196.56,-297.75 229.72,-297.75"/>
<text xml:space="preserve" text-anchor="start" x="202.56" y="-306.75" font-family="Cambria" font-size="11.00" fill="#1a1a1a">•</text>
<polygon fill="#ffffff" stroke="none" points="229.72,-297.75 229.72,-323.25 261.38,-323.25 261.38,-297.75 229.72,-297.75"/>
<polyline fill="none" stroke="#d0d0d0" points="229.72,-297.75 261.38,-297.75"/>
<text xml:space="preserve" text-anchor="start" x="235.72" y="-306.75" font-family="Cambria" font-size="11.00" fill="#1a1a1a">•</text>
<polygon fill="#ffffff" stroke="none" points="261.38,-297.75 261.38,-323.25 294.53,-323.25 294.53,-297.75 261.38,-297.75"/>
<polyline fill="none" stroke="#d0d0d0" points="261.38,-297.75 294.53,-297.75"/>
<text xml:space="preserve" text-anchor="start" x="267.38" y="-306.75" font-family="Cambria" font-size="11.00" fill="#1a1a1a">•</text>
<polygon fill="#ffffff" stroke="none" points="294.53,-297.75 294.53,-323.25 326.19,-323.25 326.19,-297.75 294.53,-297.75"/>
<polyline fill="none" stroke="#d0d0d0" points="294.53,-297.75 326.19,-297.75"/>
<text xml:space="preserve" text-anchor="start" x="300.53" y="-306.75" font-family="Cambria" font-size="11.00" fill="#1a1a1a">•</text>
<polygon fill="#ffffff" stroke="none" points="326.19,-297.75 326.19,-323.25 357.84,-323.25 357.84,-297.75 326.19,-297.75"/>
<polyline fill="none" stroke="#d0d0d0" points="326.19,-297.75 357.84,-297.75"/>
<text xml:space="preserve" text-anchor="start" x="332.19" y="-306.75" font-family="Cambria" font-size="11.00" fill="#1a1a1a">•</text>
<polygon fill="#ffffff" stroke="none" points="357.84,-297.75 357.84,-323.25 390.25,-323.25 390.25,-297.75 357.84,-297.75"/>
<polyline fill="none" stroke="#d0d0d0" points="357.84,-297.75 390.25,-297.75"/>
<text xml:space="preserve" text-anchor="start" x="363.84" y="-306.75" font-family="Cambria" font-size="11.00" fill="#1a1a1a">•</text>
<polygon fill="#ffffff" stroke="none" points="8,-272.25 8,-297.75 163.41,-297.75 163.41,-272.25 8,-272.25"/>
<polyline fill="none" stroke="#000000" points="163.41,-272.25 163.41,-297.75"/>
<text xml:space="preserve" text-anchor="start" x="14" y="-282.3" font-family="Cambria" font-weight="bold" font-size="11.00" fill="#1a1a1a">No firm data</text>
<polygon fill="#ffffff" stroke="none" points="163.41,-272.25 163.41,-297.75 196.56,-297.75 196.56,-272.25 163.41,-272.25"/>
<text xml:space="preserve" text-anchor="start" x="168.41" y="-281.25" font-family="Cambria" font-size="11.00" fill="#1a1a1a">•</text>
<polygon fill="#ffffff" stroke="none" points="196.56,-272.25 196.56,-297.75 229.72,-297.75 229.72,-272.25 196.56,-272.25"/>
<polygon fill="#ffffff" stroke="none" points="229.72,-272.25 229.72,-297.75 261.38,-297.75 261.38,-272.25 229.72,-272.25"/>
<polygon fill="#ffffff" stroke="none" points="261.38,-272.25 261.38,-297.75 294.53,-297.75 294.53,-272.25 261.38,-272.25"/>
<polygon fill="#ffffff" stroke="none" points="294.53,-272.25 294.53,-297.75 326.19,-297.75 326.19,-272.25 294.53,-272.25"/>
<polygon fill="#ffffff" stroke="none" points="326.19,-272.25 326.19,-297.75 357.84,-297.75 357.84,-272.25 326.19,-272.25"/>
<polygon fill="#ffffff" stroke="none" points="357.84,-272.25 357.84,-297.75 390.25,-297.75 390.25,-272.25 357.84,-272.25"/>
<polygon fill="#ffffff" stroke="none" points="8,-246.75 8,-272.25 163.41,-272.25 163.41,-246.75 8,-246.75"/>
<polyline fill="none" stroke="#000000" points="163.41,-246.75 163.41,-272.25"/>
<text xml:space="preserve" text-anchor="start" x="14" y="-256.8" font-family="Cambria" font-weight="bold" font-size="11.00" fill="#1a1a1a">Sales history + schema</text>
<polygon fill="#ffffff" stroke="none" points="163.41,-246.75 163.41,-272.25 196.56,-272.25 196.56,-246.75 163.41,-246.75"/>
<polygon fill="#ffffff" stroke="none" points="196.56,-246.75 196.56,-272.25 229.72,-272.25 229.72,-246.75 196.56,-246.75"/>
<text xml:space="preserve" text-anchor="start" x="201.56" y="-255.75" font-family="Cambria" font-size="11.00" fill="#1a1a1a">•</text>
<polygon fill="#ffffff" stroke="none" points="229.72,-246.75 229.72,-272.25 261.38,-272.25 261.38,-246.75 229.72,-246.75"/>
<polygon fill="#ffffff" stroke="none" points="261.38,-246.75 261.38,-272.25 294.53,-272.25 294.53,-246.75 261.38,-246.75"/>
<text xml:space="preserve" text-anchor="start" x="266.38" y="-255.75" font-family="Cambria" font-size="11.00" fill="#1a1a1a">c</text>
<polygon fill="#ffffff" stroke="none" points="294.53,-246.75 294.53,-272.25 326.19,-272.25 326.19,-246.75 294.53,-246.75"/>
<polygon fill="#ffffff" stroke="none" points="326.19,-246.75 326.19,-272.25 357.84,-272.25 357.84,-246.75 326.19,-246.75"/>
<text xml:space="preserve" text-anchor="start" x="331.19" y="-255.75" font-family="Cambria" font-size="11.00" fill="#1a1a1a">•</text>
<polygon fill="#ffffff" stroke="none" points="357.84,-246.75 357.84,-272.25 390.25,-272.25 390.25,-246.75 357.84,-246.75"/>
<text xml:space="preserve" text-anchor="start" x="362.84" y="-255.75" font-family="Cambria" font-size="11.00" fill="#1a1a1a">c</text>
<polygon fill="#ffffff" stroke="none" points="8,-221.25 8,-246.75 163.41,-246.75 163.41,-221.25 8,-221.25"/>
<polyline fill="none" stroke="#000000" points="163.41,-221.25 163.41,-246.75"/>
<text xml:space="preserve" text-anchor="start" x="14" y="-231.3" font-family="Cambria" font-weight="bold" font-size="11.00" fill="#1a1a1a">Model forecast payload</text>
<polygon fill="#ffffff" stroke="none" points="163.41,-221.25 163.41,-246.75 196.56,-246.75 196.56,-221.25 163.41,-221.25"/>
<polygon fill="#ffffff" stroke="none" points="196.56,-221.25 196.56,-246.75 229.72,-246.75 229.72,-221.25 196.56,-221.25"/>
<polygon fill="#ffffff" stroke="none" points="229.72,-221.25 229.72,-246.75 261.38,-246.75 261.38,-221.25 229.72,-221.25"/>
<polygon fill="#ffffff" stroke="none" points="261.38,-221.25 261.38,-246.75 294.53,-246.75 294.53,-221.25 261.38,-221.25"/>
<polygon fill="#ffffff" stroke="none" points="294.53,-221.25 294.53,-246.75 326.19,-246.75 326.19,-221.25 294.53,-221.25"/>
<text xml:space="preserve" text-anchor="start" x="299.53" y="-230.25" font-family="Cambria" font-size="11.00" fill="#1a1a1a">c</text>
<polygon fill="#ffffff" stroke="none" points="326.19,-221.25 326.19,-246.75 357.84,-246.75 357.84,-221.25 326.19,-221.25"/>
<text xml:space="preserve" text-anchor="start" x="331.19" y="-230.25" font-family="Cambria" font-size="11.00" fill="#1a1a1a">•</text>
<polygon fill="#ffffff" stroke="none" points="357.84,-221.25 357.84,-246.75 390.25,-246.75 390.25,-221.25 357.84,-221.25"/>
<text xml:space="preserve" text-anchor="start" x="362.84" y="-230.25" font-family="Cambria" font-size="11.00" fill="#1a1a1a">c</text>
<polygon fill="#ffffff" stroke="none" points="8,-195.75 8,-221.25 163.41,-221.25 163.41,-195.75 8,-195.75"/>
<polyline fill="none" stroke="#000000" points="163.41,-195.75 163.41,-221.25"/>
<text xml:space="preserve" text-anchor="start" x="14" y="-205.8" font-family="Cambria" font-weight="bold" font-size="11.00" fill="#1a1a1a">Forecast tool</text>
<polygon fill="#ffffff" stroke="none" points="163.41,-195.75 163.41,-221.25 196.56,-221.25 196.56,-195.75 163.41,-195.75"/>
<polygon fill="#ffffff" stroke="none" points="196.56,-195.75 196.56,-221.25 229.72,-221.25 229.72,-195.75 196.56,-195.75"/>
<polygon fill="#ffffff" stroke="none" points="229.72,-195.75 229.72,-221.25 261.38,-221.25 261.38,-195.75 229.72,-195.75"/>
<text xml:space="preserve" text-anchor="start" x="234.72" y="-204.75" font-family="Cambria" font-size="11.00" fill="#1a1a1a">•</text>
<polygon fill="#ffffff" stroke="none" points="261.38,-195.75 261.38,-221.25 294.53,-221.25 294.53,-195.75 261.38,-195.75"/>
<polygon fill="#ffffff" stroke="none" points="294.53,-195.75 294.53,-221.25 326.19,-221.25 326.19,-195.75 294.53,-195.75"/>
<polygon fill="#ffffff" stroke="none" points="326.19,-195.75 326.19,-221.25 357.84,-221.25 357.84,-195.75 326.19,-195.75"/>
<polygon fill="#ffffff" stroke="none" points="357.84,-195.75 357.84,-221.25 390.25,-221.25 390.25,-195.75 357.84,-195.75"/>
<polygon fill="#ffffff" stroke="none" points="8,-170.25 8,-195.75 163.41,-195.75 163.41,-170.25 8,-170.25"/>
<polyline fill="none" stroke="#000000" points="163.41,-170.25 163.41,-195.75"/>
<text xml:space="preserve" text-anchor="start" x="14" y="-180.3" font-family="Cambria" font-weight="bold" font-size="11.00" fill="#1a1a1a">Analysis task</text>
<polygon fill="#ffffff" stroke="none" points="163.41,-170.25 163.41,-195.75 196.56,-195.75 196.56,-170.25 163.41,-170.25"/>
<polygon fill="#ffffff" stroke="none" points="196.56,-170.25 196.56,-195.75 229.72,-195.75 229.72,-170.25 196.56,-170.25"/>
<text xml:space="preserve" text-anchor="start" x="201.56" y="-179.25" font-family="Cambria" font-size="11.00" fill="#1a1a1a">•</text>
<polygon fill="#ffffff" stroke="none" points="229.72,-170.25 229.72,-195.75 261.38,-195.75 261.38,-170.25 229.72,-170.25"/>
<polygon fill="#ffffff" stroke="none" points="261.38,-170.25 261.38,-195.75 294.53,-195.75 294.53,-170.25 261.38,-170.25"/>
<text xml:space="preserve" text-anchor="start" x="266.38" y="-179.25" font-family="Cambria" font-size="11.00" fill="#1a1a1a">c</text>
<polygon fill="#ffffff" stroke="none" points="294.53,-170.25 294.53,-195.75 326.19,-195.75 326.19,-170.25 294.53,-170.25"/>
<polygon fill="#ffffff" stroke="none" points="326.19,-170.25 326.19,-195.75 357.84,-195.75 357.84,-170.25 326.19,-170.25"/>
<polygon fill="#ffffff" stroke="none" points="357.84,-170.25 357.84,-195.75 390.25,-195.75 390.25,-170.25 357.84,-170.25"/>
<polygon fill="#ffffff" stroke="none" points="8,-144.75 8,-170.25 163.41,-170.25 163.41,-144.75 8,-144.75"/>
<polyline fill="none" stroke="#000000" points="163.41,-144.75 163.41,-170.25"/>
<text xml:space="preserve" text-anchor="start" x="14" y="-154.8" font-family="Cambria" font-weight="bold" font-size="11.00" fill="#1a1a1a">Analysis task, with model</text>
<polygon fill="#ffffff" stroke="none" points="163.41,-144.75 163.41,-170.25 196.56,-170.25 196.56,-144.75 163.41,-144.75"/>
<polygon fill="#ffffff" stroke="none" points="196.56,-144.75 196.56,-170.25 229.72,-170.25 229.72,-144.75 196.56,-144.75"/>
<polygon fill="#ffffff" stroke="none" points="229.72,-144.75 229.72,-170.25 261.38,-170.25 261.38,-144.75 229.72,-144.75"/>
<polygon fill="#ffffff" stroke="none" points="261.38,-144.75 261.38,-170.25 294.53,-170.25 294.53,-144.75 261.38,-144.75"/>
<polygon fill="#ffffff" stroke="none" points="294.53,-144.75 294.53,-170.25 326.19,-170.25 326.19,-144.75 294.53,-144.75"/>
<polygon fill="#ffffff" stroke="none" points="326.19,-144.75 326.19,-170.25 357.84,-170.25 357.84,-144.75 326.19,-144.75"/>
<text xml:space="preserve" text-anchor="start" x="331.19" y="-153.75" font-family="Cambria" font-size="11.00" fill="#1a1a1a">•</text>
<polygon fill="#ffffff" stroke="none" points="357.84,-144.75 357.84,-170.25 390.25,-170.25 390.25,-144.75 357.84,-144.75"/>
<text xml:space="preserve" text-anchor="start" x="362.84" y="-153.75" font-family="Cambria" font-size="11.00" fill="#1a1a1a">c</text>
<polygon fill="#ffffff" stroke="none" points="8,-119.25 8,-144.75 163.41,-144.75 163.41,-119.25 8,-119.25"/>
<polyline fill="none" stroke="#000000" points="163.41,-119.25 163.41,-144.75"/>
<text xml:space="preserve" text-anchor="start" x="14" y="-129.3" font-family="Cambria" font-weight="bold" font-size="11.00" fill="#1a1a1a">Do not query warehouse</text>
<polygon fill="#ffffff" stroke="none" points="163.41,-119.25 163.41,-144.75 196.56,-144.75 196.56,-119.25 163.41,-119.25"/>
<polygon fill="#ffffff" stroke="none" points="196.56,-119.25 196.56,-144.75 229.72,-144.75 229.72,-119.25 196.56,-119.25"/>
<polygon fill="#ffffff" stroke="none" points="229.72,-119.25 229.72,-144.75 261.38,-144.75 261.38,-119.25 229.72,-119.25"/>
<polygon fill="#ffffff" stroke="none" points="261.38,-119.25 261.38,-144.75 294.53,-144.75 294.53,-119.25 261.38,-119.25"/>
<text xml:space="preserve" text-anchor="start" x="266.38" y="-128.25" font-family="Cambria" font-size="11.00" fill="#1a1a1a">c</text>
<polygon fill="#ffffff" stroke="none" points="294.53,-119.25 294.53,-144.75 326.19,-144.75 326.19,-119.25 294.53,-119.25"/>
<text xml:space="preserve" text-anchor="start" x="299.53" y="-128.25" font-family="Cambria" font-size="11.00" fill="#1a1a1a">c</text>
<polygon fill="#ffffff" stroke="none" points="326.19,-119.25 326.19,-144.75 357.84,-144.75 357.84,-119.25 326.19,-119.25"/>
<polygon fill="#ffffff" stroke="none" points="357.84,-119.25 357.84,-144.75 390.25,-144.75 390.25,-119.25 357.84,-119.25"/>
<text xml:space="preserve" text-anchor="start" x="362.84" y="-128.25" font-family="Cambria" font-size="11.00" fill="#1a1a1a">c</text>
<polygon fill="#ffffff" stroke="none" points="8,-93.75 8,-119.25 163.41,-119.25 163.41,-93.75 8,-93.75"/>
<polyline fill="none" stroke="#000000" points="8,-93.75 163.41,-93.75 163.41,-119.25"/>
<text xml:space="preserve" text-anchor="start" x="14" y="-103.8" font-family="Cambria" font-weight="bold" font-size="11.00" fill="#1a1a1a">Route to analysis engine</text>
<polygon fill="#ffffff" stroke="none" points="163.41,-93.75 163.41,-119.25 196.56,-119.25 196.56,-93.75 163.41,-93.75"/>
<polyline fill="none" stroke="#000000" points="163.41,-93.75 196.56,-93.75"/>
<polygon fill="#ffffff" stroke="none" points="196.56,-93.75 196.56,-119.25 229.72,-119.25 229.72,-93.75 196.56,-93.75"/>
<polyline fill="none" stroke="#000000" points="196.56,-93.75 229.72,-93.75"/>
<polygon fill="#ffffff" stroke="none" points="229.72,-93.75 229.72,-119.25 261.38,-119.25 261.38,-93.75 229.72,-93.75"/>
<polyline fill="none" stroke="#000000" points="229.72,-93.75 261.38,-93.75"/>
<polygon fill="#ffffff" stroke="none" points="261.38,-93.75 261.38,-119.25 294.53,-119.25 294.53,-93.75 261.38,-93.75"/>
<polyline fill="none" stroke="#000000" points="261.38,-93.75 294.53,-93.75"/>
<text xml:space="preserve" text-anchor="start" x="267.38" y="-102.75" font-family="Cambria" font-size="11.00" fill="#1a1a1a">c</text>
<polygon fill="#ffffff" stroke="none" points="294.53,-93.75 294.53,-119.25 326.19,-119.25 326.19,-93.75 294.53,-93.75"/>
<polyline fill="none" stroke="#000000" points="294.53,-93.75 326.19,-93.75"/>
<text xml:space="preserve" text-anchor="start" x="300.53" y="-102.75" font-family="Cambria" font-size="11.00" fill="#1a1a1a">c</text>
<polygon fill="#ffffff" stroke="none" points="326.19,-93.75 326.19,-119.25 357.84,-119.25 357.84,-93.75 326.19,-93.75"/>
<polyline fill="none" stroke="#000000" points="326.19,-93.75 357.84,-93.75"/>
<polygon fill="#ffffff" stroke="none" points="357.84,-93.75 357.84,-119.25 390.25,-119.25 390.25,-93.75 357.84,-93.75"/>
<polyline fill="none" stroke="#000000" points="357.84,-93.75 390.25,-93.75"/>
<text xml:space="preserve" text-anchor="start" x="363.84" y="-102.75" font-family="Cambria" font-size="11.00" fill="#1a1a1a">c</text>
<text xml:space="preserve" text-anchor="start" x="9" y="-77.75" font-family="Cambria" font-size="9.00" fill="#5a5a5a">Note. • the arm receives this component; c reaches only the nested coder, not the conversational</text>
<text xml:space="preserve" text-anchor="start" x="9" y="-64.5" font-family="Cambria" font-size="9.00" fill="#5a5a5a">agent. Membership is computed from the assembled prompts, so an arm cannot appear to share a</text>
<text xml:space="preserve" text-anchor="start" x="9" y="-51.25" font-family="Cambria" font-size="9.00" fill="#5a5a5a">component it does not. Schema v6&#45;shared&#45;composition+af04a42a478b.</text>
</g>
</g>
</svg>
