<?xml version="1.0" encoding="UTF-8" standalone="no"?>
<!DOCTYPE svg PUBLIC "-//W3C//DTD SVG 1.1//EN"
 "http://www.w3.org/Graphics/SVG/1.1/DTD/svg11.dtd">
<!-- Generated by graphviz version 14.1.3 (20260303.0454)
 -->
<!-- Title: project_overview Pages: 1 -->
<svg width="2541pt" height="785pt"
 viewBox="0.00 0.00 2541.00 785.00" xmlns="http://www.w3.org/2000/svg" xmlns:xlink="http://www.w3.org/1999/xlink">
<g id="graph0" class="graph" transform="scale(1 1) rotate(0) translate(36 748.5)">
<title>project_overview</title>
<polygon fill="#f4f6f9" stroke="none" points="-36,36 -36,-748.5 2505.44,-748.5 2505.44,36 -36,36"/>
<text xml:space="preserve" text-anchor="middle" x="1234.72" y="-7.2" font-family="Helvetica Neue" font-size="14.00">Manifold AI Thesis &#160;· &#160;Predictive Analytics Framework &#160;· &#160;CBS 2026</text>
<g id="clust2" class="cluster">
<title>cluster_sysA</title>
<path fill="#eaf2fb" stroke="#1b3a5c" stroke-width="2.2" d="M20,-263.5C20,-263.5 1594.79,-263.5 1594.79,-263.5 1600.79,-263.5 1606.79,-269.5 1606.79,-275.5 1606.79,-275.5 1606.79,-464.5 1606.79,-464.5 1606.79,-470.5 1600.79,-476.5 1594.79,-476.5 1594.79,-476.5 20,-476.5 20,-476.5 14,-476.5 8,-470.5 8,-464.5 8,-464.5 8,-275.5 8,-275.5 8,-269.5 14,-263.5 20,-263.5"/>
<text xml:space="preserve" text-anchor="middle" x="807.39" y="-270.27" font-family="Helvetica Neue" font-size="10.50" fill="#1b3a5c"> &#160;System A &#160;· &#160;Research Framework &#160;(thesis artefact) &#160;</text>
</g>
<g id="clust3" class="cluster">
<title>cluster_sysA_data</title>
<path fill="#ebf5fb" stroke="#2e86ab" stroke-dasharray="5,2" d="M28,-292.5C28,-292.5 150.29,-292.5 150.29,-292.5 156.29,-292.5 162.29,-298.5 162.29,-304.5 162.29,-304.5 162.29,-456.5 162.29,-456.5 162.29,-462.5 156.29,-468.5 150.29,-468.5 150.29,-468.5 28,-468.5 28,-468.5 22,-468.5 16,-462.5 16,-456.5 16,-456.5 16,-304.5 16,-304.5 16,-298.5 22,-292.5 28,-292.5"/>
<text xml:space="preserve" text-anchor="middle" x="89.14" y="-298.93" font-family="Helvetica Neue" font-size="8.50" fill="#2e86ab"> &#160;Data Sources &#160;</text>
</g>
<g id="clust4" class="cluster">
<title>cluster_sysA_agents</title>
<path fill="#eef9f4" stroke="#1a936f" stroke-width="1.3" d="M495.59,-316.5C495.59,-316.5 1334.25,-316.5 1334.25,-316.5 1340.25,-316.5 1346.25,-322.5 1346.25,-328.5 1346.25,-328.5 1346.25,-401.5 1346.25,-401.5 1346.25,-407.5 1340.25,-413.5 1334.25,-413.5 1334.25,-413.5 495.59,-413.5 495.59,-413.5 489.59,-413.5 483.59,-407.5 483.59,-401.5 483.59,-401.5 483.59,-328.5 483.59,-328.5 483.59,-322.5 489.59,-316.5 495.59,-316.5"/>
<text xml:space="preserve" text-anchor="middle" x="914.92" y="-322.93" font-family="Helvetica Neue" font-size="8.50" fill="#1a936f"> &#160;Agent Layer &#160;</text>
</g>
<g id="clust5" class="cluster">
<title>cluster_sysB</title>
<path fill="#f4f6f9" stroke="#5d6d7e" stroke-width="1.8" d="M1858.19,-32.5C1858.19,-32.5 2449.44,-32.5 2449.44,-32.5 2455.44,-32.5 2461.44,-38.5 2461.44,-44.5 2461.44,-44.5 2461.44,-692.5 2461.44,-692.5 2461.44,-698.5 2455.44,-704.5 2449.44,-704.5 2449.44,-704.5 1858.19,-704.5 1858.19,-704.5 1852.19,-704.5 1846.19,-698.5 1846.19,-692.5 1846.19,-692.5 1846.19,-44.5 1846.19,-44.5 1846.19,-38.5 1852.19,-32.5 1858.19,-32.5"/>
<text xml:space="preserve" text-anchor="middle" x="2153.81" y="-39.27" font-family="Helvetica Neue" font-size="10.50" fill="#5d6d7e"> &#160;System B &#160;· &#160;Thesis Production System &#160;(scaffolding — not in thesis) &#160;</text>
</g>
<g id="clust7" class="cluster">
<title>cluster_sysB_agents</title>
<path fill="#fafbfc" stroke="#5d6d7e" stroke-dasharray="5,2" d="M2343.03,-200.5C2343.03,-200.5 2441.44,-200.5 2441.44,-200.5 2447.44,-200.5 2453.44,-206.5 2453.44,-212.5 2453.44,-212.5 2453.44,-684.5 2453.44,-684.5 2453.44,-690.5 2447.44,-696.5 2441.44,-696.5 2441.44,-696.5 2343.03,-696.5 2343.03,-696.5 2337.03,-696.5 2331.03,-690.5 2331.03,-684.5 2331.03,-684.5 2331.03,-212.5 2331.03,-212.5 2331.03,-206.5 2337.03,-200.5 2343.03,-200.5"/>
<text xml:space="preserve" text-anchor="middle" x="2392.23" y="-206.93" font-family="Helvetica Neue" font-size="8.50" fill="#5d6d7e"> &#160;Specialist Agents &#160;</text>
</g>
<!-- anchor_a -->
<!-- anchor_b -->
<!-- anchor_a&#45;&gt;anchor_b -->
<!-- a_coord -->
<g id="node3" class="node">
<title>a_coord</title>
<path fill="#1b3a5c" stroke="#2c3e50" stroke-width="2.5" d="M393.59,-399.58C393.59,-399.58 252.29,-399.58 252.29,-399.58 246.29,-399.58 240.29,-393.58 240.29,-387.58 240.29,-387.58 240.29,-331.42 240.29,-331.42 240.29,-325.42 246.29,-319.42 252.29,-319.42 252.29,-319.42 393.59,-319.42 393.59,-319.42 399.59,-319.42 405.59,-325.42 405.59,-331.42 405.59,-331.42 405.59,-387.58 405.59,-387.58 405.59,-393.58 399.59,-399.58 393.59,-399.58"/>
<text xml:space="preserve" text-anchor="middle" x="322.94" y="-380.48" font-family="Helvetica Neue" font-size="9.50" fill="#ffffff">Coordinator</text>
<text xml:space="preserve" text-anchor="middle" x="322.94" y="-368.48" font-family="Helvetica Neue" font-size="9.50" fill="#ffffff">──────────────</text>
<text xml:space="preserve" text-anchor="middle" x="322.94" y="-356.48" font-family="Helvetica Neue" font-size="9.50" fill="#ffffff">LangGraph StateGraph</text>
<text xml:space="preserve" text-anchor="middle" x="322.94" y="-344.48" font-family="Helvetica Neue" font-size="9.50" fill="#ffffff">Phase routing</text>
<text xml:space="preserve" text-anchor="middle" x="322.94" y="-332.48" font-family="Helvetica Neue" font-size="9.50" fill="#ffffff">Human approval gates</text>
</g>
<!-- a_ag1 -->
<g id="node6" class="node">
<title>a_ag1</title>
<path fill="#e8f8f1" stroke="#1a936f" stroke-width="1.6" d="M639.13,-399.7C639.13,-399.7 503.59,-399.7 503.59,-399.7 497.59,-399.7 491.59,-393.7 491.59,-387.7 491.59,-387.7 491.59,-361.3 491.59,-361.3 491.59,-355.3 497.59,-349.3 503.59,-349.3 503.59,-349.3 639.13,-349.3 639.13,-349.3 645.13,-349.3 651.13,-355.3 651.13,-361.3 651.13,-361.3 651.13,-387.7 651.13,-387.7 651.13,-393.7 645.13,-399.7 639.13,-399.7"/>
<text xml:space="preserve" text-anchor="middle" x="571.36" y="-383.48" font-family="Helvetica Neue" font-size="9.50">① Data Assessment</text>
<text xml:space="preserve" text-anchor="middle" x="571.36" y="-371.48" font-family="Helvetica Neue" font-size="9.50">Load · Validate · Feature Eng.</text>
<text xml:space="preserve" text-anchor="middle" x="571.36" y="-359.48" font-family="Helvetica Neue" font-size="9.50">PCA + k&#45;means &#160;· &#160;~2 GB peak</text>
</g>
<!-- a_coord&#45;&gt;a_ag1 -->
<g id="edge7" class="edge">
<title>a_coord&#45;&gt;a_ag1</title>
<path fill="none" stroke="#1b3a5c" stroke-width="1.5" d="M406.68,-377.37C430.43,-379.63 456.44,-381.28 480.59,-382.08"/>
<polygon fill="#1b3a5c" stroke="#1b3a5c" stroke-width="1.5" points="480.33,-385.05 488.91,-382.32 480.49,-379.1 480.33,-385.05"/>
</g>
<!-- a_src_nielsen -->
<g id="node4" class="node">
<title>a_src_nielsen</title>
<path fill="#eaf4fb" stroke="#2e86ab" stroke-width="1.6" d="M151.29,-367.1C151.29,-369.75 123.44,-371.9 89.14,-371.9 54.85,-371.9 27,-369.75 27,-367.1 27,-367.1 27,-323.9 27,-323.9 27,-321.25 54.85,-319.1 89.14,-319.1 123.44,-319.1 151.29,-321.25 151.29,-323.9 151.29,-323.9 151.29,-367.1 151.29,-367.1"/>
<path fill="none" stroke="#2e86ab" stroke-width="1.6" d="M151.29,-367.1C151.29,-364.45 123.44,-362.3 89.14,-362.3 54.85,-362.3 27,-364.45 27,-367.1"/>
<text xml:space="preserve" text-anchor="middle" x="89.14" y="-348.48" font-family="Helvetica Neue" font-size="9.50">Nielsen CSD</text>
<text xml:space="preserve" text-anchor="middle" x="89.14" y="-336.48" font-family="Helvetica Neue" font-size="9.50">28 retailers · 36 months</text>
</g>
<!-- a_src_nielsen&#45;&gt;a_coord -->
<g id="edge5" class="edge">
<title>a_src_nielsen&#45;&gt;a_coord</title>
<path fill="none" stroke="#2e86ab" stroke-width="1.3" d="M151.96,-349.23C175.95,-350.68 203.93,-352.37 230.18,-353.96"/>
<polygon fill="#2e86ab" stroke="#2e86ab" stroke-width="1.3" points="229.78,-356.56 237.42,-354.4 230.09,-351.32 229.78,-356.56"/>
</g>
<!-- a_src_indeks -->
<g id="node5" class="node">
<title>a_src_indeks</title>
<path fill="#eaf4fb" stroke="#2e86ab" stroke-width="1.6" d="M154.29,-456.1C154.29,-458.75 125.09,-460.9 89.14,-460.9 53.2,-460.9 24,-458.75 24,-456.1 24,-456.1 24,-412.9 24,-412.9 24,-410.25 53.2,-408.1 89.14,-408.1 125.09,-408.1 154.29,-410.25 154.29,-412.9 154.29,-412.9 154.29,-456.1 154.29,-456.1"/>
<path fill="none" stroke="#2e86ab" stroke-width="1.6" d="M154.29,-456.1C154.29,-453.45 125.09,-451.3 89.14,-451.3 53.2,-451.3 24,-453.45 24,-456.1"/>
<text xml:space="preserve" text-anchor="middle" x="89.14" y="-437.48" font-family="Helvetica Neue" font-size="9.50">Indeks Danmark</text>
<text xml:space="preserve" text-anchor="middle" x="89.14" y="-425.48" font-family="Helvetica Neue" font-size="9.50">20,134 resp. · 6,364 vars</text>
</g>
<!-- a_src_indeks&#45;&gt;a_coord -->
<g id="edge6" class="edge">
<title>a_src_indeks&#45;&gt;a_coord</title>
<path fill="none" stroke="#2e86ab" stroke-width="1.3" d="M155.02,-413.51C178.38,-405.95 205.2,-397.27 230.41,-389.12"/>
<polygon fill="#2e86ab" stroke="#2e86ab" stroke-width="1.3" points="231.05,-391.67 237.38,-386.86 229.43,-386.67 231.05,-391.67"/>
</g>
<!-- a_ag1&#45;&gt;a_coord -->
<g id="edge9" class="edge">
<title>a_ag1&#45;&gt;a_coord</title>
<path fill="none" stroke="#5d6d7e" stroke-width="0.9" stroke-dasharray="5,2" d="M491.18,-356.98C466.5,-354.54 439.12,-352.76 413.77,-351.92"/>
<polygon fill="#5d6d7e" stroke="#5d6d7e" stroke-width="0.9" points="414.1,-349.83 408.04,-351.75 413.98,-354.03 414.1,-349.83"/>
</g>
<!-- a_ag2 -->
<g id="node7" class="node">
<title>a_ag2</title>
<path fill="#e8f8f1" stroke="#1a936f" stroke-width="1.6" d="M869.67,-405.7C869.67,-405.7 749.13,-405.7 749.13,-405.7 743.13,-405.7 737.13,-399.7 737.13,-393.7 737.13,-393.7 737.13,-355.3 737.13,-355.3 737.13,-349.3 743.13,-343.3 749.13,-343.3 749.13,-343.3 869.67,-343.3 869.67,-343.3 875.67,-343.3 881.67,-349.3 881.67,-355.3 881.67,-355.3 881.67,-393.7 881.67,-393.7 881.67,-399.7 875.67,-405.7 869.67,-405.7"/>
<text xml:space="preserve" text-anchor="middle" x="809.4" y="-389.48" font-family="Helvetica Neue" font-size="9.50">② Forecasting</text>
<text xml:space="preserve" text-anchor="middle" x="809.4" y="-377.48" font-family="Helvetica Neue" font-size="9.50">Ridge → ARIMA → Prophet</text>
<text xml:space="preserve" text-anchor="middle" x="809.4" y="-365.48" font-family="Helvetica Neue" font-size="9.50">→ LightGBM → XGBoost</text>
<text xml:space="preserve" text-anchor="middle" x="809.4" y="-353.48" font-family="Helvetica Neue" font-size="9.50">(sequential, ≤ 512 MB each)</text>
</g>
<!-- a_ag1&#45;&gt;a_ag2 -->
<g id="edge2" class="edge">
<title>a_ag1&#45;&gt;a_ag2</title>
<path fill="none" stroke="#1a936f" stroke-width="1.2" d="M651.61,-374.5C676.17,-374.5 703.25,-374.5 727.9,-374.5"/>
<polygon fill="#1a936f" stroke="#1a936f" stroke-width="1.2" points="727.69,-376.95 734.69,-374.5 727.69,-372.05 727.69,-376.95"/>
</g>
<!-- a_ag3 -->
<g id="node8" class="node">
<title>a_ag3</title>
<path fill="#e8f8f1" stroke="#1a936f" stroke-width="1.6" d="M1113.71,-405.7C1113.71,-405.7 979.67,-405.7 979.67,-405.7 973.67,-405.7 967.67,-399.7 967.67,-393.7 967.67,-393.7 967.67,-355.3 967.67,-355.3 967.67,-349.3 973.67,-343.3 979.67,-343.3 979.67,-343.3 1113.71,-343.3 1113.71,-343.3 1119.71,-343.3 1125.71,-349.3 1125.71,-355.3 1125.71,-355.3 1125.71,-393.7 1125.71,-393.7 1125.71,-399.7 1119.71,-405.7 1113.71,-405.7"/>
<text xml:space="preserve" text-anchor="middle" x="1046.69" y="-389.48" font-family="Helvetica Neue" font-size="9.50">③ Synthesis</text>
<text xml:space="preserve" text-anchor="middle" x="1046.69" y="-377.48" font-family="Helvetica Neue" font-size="9.50">Ensemble · Calibration</text>
<text xml:space="preserve" text-anchor="middle" x="1046.69" y="-365.48" font-family="Helvetica Neue" font-size="9.50">Consumer signals</text>
<text xml:space="preserve" text-anchor="middle" x="1046.69" y="-353.48" font-family="Helvetica Neue" font-size="9.50">Confidence 0–100 · Claude API</text>
</g>
<!-- a_ag2&#45;&gt;a_ag3 -->
<g id="edge3" class="edge">
<title>a_ag2&#45;&gt;a_ag3</title>
<path fill="none" stroke="#1a936f" stroke-width="1.2" d="M882.27,-374.5C906.21,-374.5 933.14,-374.5 958.13,-374.5"/>
<polygon fill="#1a936f" stroke="#1a936f" stroke-width="1.2" points="958.07,-376.95 965.07,-374.5 958.07,-372.05 958.07,-376.95"/>
</g>
<!-- a_ag4 -->
<g id="node9" class="node">
<title>a_ag4</title>
<path fill="#e8f8f1" stroke="#1a936f" stroke-width="1.6" d="M1326.25,-405.7C1326.25,-405.7 1223.71,-405.7 1223.71,-405.7 1217.71,-405.7 1211.71,-399.7 1211.71,-393.7 1211.71,-393.7 1211.71,-355.3 1211.71,-355.3 1211.71,-349.3 1217.71,-343.3 1223.71,-343.3 1223.71,-343.3 1326.25,-343.3 1326.25,-343.3 1332.25,-343.3 1338.25,-349.3 1338.25,-355.3 1338.25,-355.3 1338.25,-393.7 1338.25,-393.7 1338.25,-399.7 1332.25,-405.7 1326.25,-405.7"/>
<text xml:space="preserve" text-anchor="middle" x="1274.98" y="-389.48" font-family="Helvetica Neue" font-size="9.50">④ Validation</text>
<text xml:space="preserve" text-anchor="middle" x="1274.98" y="-377.48" font-family="Helvetica Neue" font-size="9.50">Level 1 · ML accuracy</text>
<text xml:space="preserve" text-anchor="middle" x="1274.98" y="-365.48" font-family="Helvetica Neue" font-size="9.50">Level 2 · LLM&#45;as&#45;Judge</text>
<text xml:space="preserve" text-anchor="middle" x="1274.98" y="-353.48" font-family="Helvetica Neue" font-size="9.50">Level 3 · RAM + latency</text>
</g>
<!-- a_ag3&#45;&gt;a_ag4 -->
<g id="edge4" class="edge">
<title>a_ag3&#45;&gt;a_ag4</title>
<path fill="none" stroke="#1a936f" stroke-width="1.2" d="M1126.2,-374.5C1150.87,-374.5 1177.97,-374.5 1202.16,-374.5"/>
<polygon fill="#1a936f" stroke="#1a936f" stroke-width="1.2" points="1202.11,-376.95 1209.11,-374.5 1202.11,-372.05 1202.11,-376.95"/>
</g>
<!-- a_ag4&#45;&gt;a_coord -->
<g id="edge10" class="edge">
<title>a_ag4&#45;&gt;a_coord</title>
<path fill="none" stroke="#5d6d7e" stroke-width="0.9" stroke-dasharray="5,2" d="M1211.23,-400.16C1185.24,-409.49 1154.48,-418.87 1125.71,-423.5 1096.97,-428.13 563.83,-432.6 483.59,-417.5 460.35,-413.12 436,-405.8 413.52,-397.8"/>
<polygon fill="#5d6d7e" stroke="#5d6d7e" stroke-width="0.9" points="414.24,-395.83 407.88,-395.76 412.81,-399.78 414.24,-395.83"/>
</g>
<!-- a_out -->
<g id="node10" class="node">
<title>a_out</title>
<polygon fill="#fdfaf0" stroke="#c17817" stroke-width="1.8" points="1592.79,-398.57 1424.25,-398.57 1424.25,-350.43 1598.79,-350.43 1598.79,-392.57 1592.79,-398.57"/>
<polyline fill="none" stroke="#c17817" stroke-width="1.8" points="1592.79,-398.57 1592.79,-392.57"/>
<polyline fill="none" stroke="#c17817" stroke-width="1.8" points="1598.79,-392.57 1592.79,-392.57"/>
<text xml:space="preserve" text-anchor="middle" x="1511.52" y="-382.82" font-family="Helvetica Neue" font-size="9.00">Decision Output</text>
<text xml:space="preserve" text-anchor="middle" x="1511.52" y="-371.57" font-family="Helvetica Neue" font-size="9.00">Calibrated forecast &#160;+ &#160;90% PI</text>
<text xml:space="preserve" text-anchor="middle" x="1511.52" y="-360.32" font-family="Helvetica Neue" font-size="9.00">Confidence score &#160;· &#160;Recommendation</text>
</g>
<!-- a_ag4&#45;&gt;a_out -->
<g id="edge8" class="edge">
<title>a_ag4&#45;&gt;a_out</title>
<path fill="none" stroke="#c17817" stroke-width="1.7" d="M1338.83,-374.5C1361.42,-374.5 1387.48,-374.5 1412.36,-374.5"/>
<polygon fill="#c17817" stroke="#c17817" stroke-width="1.7" points="1412.11,-377.65 1421.11,-374.5 1412.11,-371.35 1412.11,-377.65"/>
</g>
<!-- note_read -->
<g id="node21" class="node">
<title>note_read</title>
<polygon fill="#fdfaf0" stroke="#c17817" stroke-width="1.2" points="1762.19,-396.01 1684.79,-396.01 1684.79,-352.99 1768.19,-352.99 1768.19,-390.01 1762.19,-396.01"/>
<polyline fill="none" stroke="#c17817" stroke-width="1.2" points="1762.19,-396.01 1762.19,-390.01"/>
<polyline fill="none" stroke="#c17817" stroke-width="1.2" points="1768.19,-390.01 1762.19,-390.01"/>
<text xml:space="preserve" text-anchor="middle" x="1726.49" y="-382.18" font-family="Helvetica Neue" font-size="8.50">System B reads</text>
<text xml:space="preserve" text-anchor="middle" x="1726.49" y="-371.68" font-family="Helvetica Neue" font-size="8.50">System A outputs</text>
<text xml:space="preserve" text-anchor="middle" x="1726.49" y="-361.18" font-family="Helvetica Neue" font-size="8.50">(never modifies)</text>
</g>
<!-- a_out&#45;&gt;note_read -->
<g id="edge20" class="edge">
<title>a_out&#45;&gt;note_read</title>
<path fill="none" stroke="#c17817" stroke-dasharray="5,2" d="M1599.45,-374.5C1625.92,-374.5 1654.05,-374.5 1677.01,-374.5"/>
<polygon fill="#c17817" stroke="#c17817" points="1676.76,-376.6 1682.76,-374.5 1676.76,-372.4 1676.76,-376.6"/>
</g>
<!-- b_state -->
<g id="node11" class="node">
<title>b_state</title>
<path fill="#eaf4fb" stroke="#2e86ab" stroke-width="1.6" d="M1992.61,-400.01C1992.61,-400.01 1866.19,-400.01 1866.19,-400.01 1860.19,-400.01 1854.19,-394.01 1854.19,-388.01 1854.19,-388.01 1854.19,-360.99 1854.19,-360.99 1854.19,-354.99 1860.19,-348.99 1866.19,-348.99 1866.19,-348.99 1992.61,-348.99 1992.61,-348.99 1998.61,-348.99 2004.61,-354.99 2004.61,-360.99 2004.61,-360.99 2004.61,-388.01 2004.61,-388.01 2004.61,-394.01 1998.61,-400.01 1992.61,-400.01"/>
<text xml:space="preserve" text-anchor="middle" x="1929.4" y="-382.82" font-family="Helvetica Neue" font-size="9.00">ThesisState &#160;(Pydantic JSON)</text>
<text xml:space="preserve" text-anchor="middle" x="1929.4" y="-371.57" font-family="Helvetica Neue" font-size="9.00">section status · corpus · figures</text>
<text xml:space="preserve" text-anchor="middle" x="1929.4" y="-360.32" font-family="Helvetica Neue" font-size="9.00">compliance · experiment log</text>
</g>
<!-- b_coord -->
<g id="node12" class="node">
<title>b_coord</title>
<path fill="#1b3a5c" stroke="#2c3e50" stroke-width="2.2" d="M2241.03,-407.14C2241.03,-407.14 2102.61,-407.14 2102.61,-407.14 2096.61,-407.14 2090.61,-401.14 2090.61,-395.14 2090.61,-395.14 2090.61,-353.86 2090.61,-353.86 2090.61,-347.86 2096.61,-341.86 2102.61,-341.86 2102.61,-341.86 2241.03,-341.86 2241.03,-341.86 2247.03,-341.86 2253.03,-347.86 2253.03,-353.86 2253.03,-353.86 2253.03,-395.14 2253.03,-395.14 2253.03,-401.14 2247.03,-407.14 2241.03,-407.14"/>
<text xml:space="preserve" text-anchor="middle" x="2171.82" y="-389.48" font-family="Helvetica Neue" font-size="9.50" fill="#ffffff">Thesis Coordinator</text>
<text xml:space="preserve" text-anchor="middle" x="2171.82" y="-377.48" font-family="Helvetica Neue" font-size="9.50" fill="#ffffff">──────────────</text>
<text xml:space="preserve" text-anchor="middle" x="2171.82" y="-365.48" font-family="Helvetica Neue" font-size="9.50" fill="#ffffff">Plan → Execute → Critic loop</text>
<text xml:space="preserve" text-anchor="middle" x="2171.82" y="-353.48" font-family="Helvetica Neue" font-size="9.50" fill="#ffffff">Retries once on invalid output</text>
</g>
<!-- b_state&#45;&gt;b_coord -->
<g id="edge11" class="edge">
<title>b_state&#45;&gt;b_coord</title>
<path fill="none" stroke="#2e86ab" stroke-width="1.4" d="M2005.15,-374.5C2028.78,-374.5 2055.15,-374.5 2079.78,-374.5"/>
<polygon fill="#2e86ab" stroke="#2e86ab" stroke-width="1.4" points="2079.73,-377.3 2087.73,-374.5 2079.73,-371.7 2079.73,-377.3"/>
</g>
<!-- b_planner -->
<g id="node13" class="node">
<title>b_planner</title>
<path fill="#fdfaf0" stroke="#c17817" stroke-width="1.4" d="M2421.44,-107.86C2421.44,-107.86 2363.03,-107.86 2363.03,-107.86 2357.03,-107.86 2351.03,-101.86 2351.03,-95.86 2351.03,-95.86 2351.03,-73.14 2351.03,-73.14 2351.03,-67.14 2357.03,-61.14 2363.03,-61.14 2363.03,-61.14 2421.44,-61.14 2421.44,-61.14 2427.44,-61.14 2433.44,-67.14 2433.44,-73.14 2433.44,-73.14 2433.44,-95.86 2433.44,-95.86 2433.44,-101.86 2427.44,-107.86 2421.44,-107.86"/>
<text xml:space="preserve" text-anchor="middle" x="2392.23" y="-92.83" font-family="Helvetica Neue" font-size="9.00">Planner</text>
<text xml:space="preserve" text-anchor="middle" x="2392.23" y="-81.58" font-family="Helvetica Neue" font-size="9.00">TaskPlan JSON</text>
<text xml:space="preserve" text-anchor="middle" x="2392.23" y="-70.33" font-family="Helvetica Neue" font-size="9.00">5 priority rules</text>
</g>
<!-- b_coord&#45;&gt;b_planner -->
<g id="edge12" class="edge">
<title>b_coord&#45;&gt;b_planner</title>
<path fill="none" stroke="#1b3a5c" stroke-width="1.3" d="M2188.7,-341.13C2213.86,-290.62 2266.68,-193.57 2331.03,-126.5 2335.14,-122.22 2339.75,-118.1 2344.54,-114.23"/>
<polygon fill="#1b3a5c" stroke="#1b3a5c" stroke-width="1.3" points="2345.97,-116.66 2350.61,-109.57 2342.56,-112.22 2345.97,-116.66"/>
</g>
<!-- b_critic -->
<g id="node14" class="node">
<title>b_critic</title>
<path fill="#fdebd0" stroke="#c0392b" stroke-width="1.4" d="M2430.81,-190.85C2430.81,-190.85 2353.65,-190.85 2353.65,-190.85 2347.65,-190.85 2341.65,-184.85 2341.65,-178.85 2341.65,-178.85 2341.65,-156.15 2341.65,-156.15 2341.65,-150.15 2347.65,-144.15 2353.65,-144.15 2353.65,-144.15 2430.81,-144.15 2430.81,-144.15 2436.81,-144.15 2442.81,-150.15 2442.81,-156.15 2442.81,-156.15 2442.81,-178.85 2442.81,-178.85 2442.81,-184.85 2436.81,-190.85 2430.81,-190.85"/>
<text xml:space="preserve" text-anchor="middle" x="2392.23" y="-175.82" font-family="Helvetica Neue" font-size="9.00">Critic</text>
<text xml:space="preserve" text-anchor="middle" x="2392.23" y="-164.57" font-family="Helvetica Neue" font-size="9.00">Validates all outputs</text>
<text xml:space="preserve" text-anchor="middle" x="2392.23" y="-153.32" font-family="Helvetica Neue" font-size="9.00">Per&#45;agent validators</text>
</g>
<!-- b_coord&#45;&gt;b_critic -->
<g id="edge13" class="edge">
<title>b_coord&#45;&gt;b_critic</title>
<path fill="none" stroke="#1b3a5c" stroke-width="1.3" d="M2195.37,-341.08C2223.32,-301.7 2274.28,-236.37 2331.03,-194.5 2331.62,-194.07 2332.21,-193.64 2332.82,-193.21"/>
<polygon fill="#1b3a5c" stroke="#1b3a5c" stroke-width="1.3" points="2334.11,-195.71 2339.35,-189.04 2331.1,-190.99 2334.11,-195.71"/>
</g>
<!-- b_lit -->
<g id="node15" class="node">
<title>b_lit</title>
<path fill="#ffffff" stroke="#5d6d7e" stroke-width="1.4" d="M2432.31,-273.86C2432.31,-273.86 2352.15,-273.86 2352.15,-273.86 2346.15,-273.86 2340.15,-267.86 2340.15,-261.86 2340.15,-261.86 2340.15,-239.15 2340.15,-239.15 2340.15,-233.15 2346.15,-227.15 2352.15,-227.15 2352.15,-227.15 2432.31,-227.15 2432.31,-227.15 2438.31,-227.15 2444.31,-233.15 2444.31,-239.15 2444.31,-239.15 2444.31,-261.86 2444.31,-261.86 2444.31,-267.86 2438.31,-273.86 2432.31,-273.86"/>
<text xml:space="preserve" text-anchor="middle" x="2392.23" y="-258.82" font-family="Helvetica Neue" font-size="9.00">Literature</text>
<text xml:space="preserve" text-anchor="middle" x="2392.23" y="-247.57" font-family="Helvetica Neue" font-size="9.00">Corpus management</text>
<text xml:space="preserve" text-anchor="middle" x="2392.23" y="-236.32" font-family="Helvetica Neue" font-size="9.00">Annotation tracking</text>
</g>
<!-- b_coord&#45;&gt;b_lit -->
<g id="edge14" class="edge">
<title>b_coord&#45;&gt;b_lit</title>
<path fill="none" stroke="#5d6d7e" stroke-width="0.9" stroke-dasharray="5,2" d="M2232.21,-340.78C2266.77,-321.16 2309.79,-296.74 2342.37,-278.24"/>
<polygon fill="#5d6d7e" stroke="#5d6d7e" stroke-width="0.9" points="2343.44,-280.25 2347.97,-275.06 2341.2,-276.29 2343.44,-280.25"/>
</g>
<!-- b_writing -->
<g id="node16" class="node">
<title>b_writing</title>
<path fill="#ffffff" stroke="#5d6d7e" stroke-width="1.4" d="M2425.56,-356.86C2425.56,-356.86 2358.9,-356.86 2358.9,-356.86 2352.9,-356.86 2346.9,-350.86 2346.9,-344.86 2346.9,-344.86 2346.9,-322.14 2346.9,-322.14 2346.9,-316.14 2352.9,-310.14 2358.9,-310.14 2358.9,-310.14 2425.56,-310.14 2425.56,-310.14 2431.56,-310.14 2437.56,-316.14 2437.56,-322.14 2437.56,-322.14 2437.56,-344.86 2437.56,-344.86 2437.56,-350.86 2431.56,-356.86 2425.56,-356.86"/>
<text xml:space="preserve" text-anchor="middle" x="2392.23" y="-341.82" font-family="Helvetica Neue" font-size="9.00">Writing</text>
<text xml:space="preserve" text-anchor="middle" x="2392.23" y="-330.57" font-family="Helvetica Neue" font-size="9.00">Bullet points only</text>
<text xml:space="preserve" text-anchor="middle" x="2392.23" y="-319.32" font-family="Helvetica Neue" font-size="9.00">No prose</text>
</g>
<!-- b_coord&#45;&gt;b_writing -->
<g id="edge15" class="edge">
<title>b_coord&#45;&gt;b_writing</title>
<path fill="none" stroke="#5d6d7e" stroke-width="0.9" stroke-dasharray="5,2" d="M2253.84,-359.29C2282.23,-353.96 2313.34,-348.12 2338.77,-343.35"/>
<polygon fill="#5d6d7e" stroke="#5d6d7e" stroke-width="0.9" points="2339.16,-345.59 2345.13,-342.15 2338.32,-341.12 2339.16,-345.59"/>
</g>
<!-- b_comply -->
<g id="node17" class="node">
<title>b_comply</title>
<path fill="#ffffff" stroke="#5d6d7e" stroke-width="1.4" d="M2430.06,-439.86C2430.06,-439.86 2354.4,-439.86 2354.4,-439.86 2348.4,-439.86 2342.4,-433.86 2342.4,-427.86 2342.4,-427.86 2342.4,-405.14 2342.4,-405.14 2342.4,-399.14 2348.4,-393.14 2354.4,-393.14 2354.4,-393.14 2430.06,-393.14 2430.06,-393.14 2436.06,-393.14 2442.06,-399.14 2442.06,-405.14 2442.06,-405.14 2442.06,-427.86 2442.06,-427.86 2442.06,-433.86 2436.06,-439.86 2430.06,-439.86"/>
<text xml:space="preserve" text-anchor="middle" x="2392.23" y="-424.82" font-family="Helvetica Neue" font-size="9.00">Compliance</text>
<text xml:space="preserve" text-anchor="middle" x="2392.23" y="-413.57" font-family="Helvetica Neue" font-size="9.00">CBS checks · APA 7</text>
<text xml:space="preserve" text-anchor="middle" x="2392.23" y="-402.32" font-family="Helvetica Neue" font-size="9.00">Page count</text>
</g>
<!-- b_coord&#45;&gt;b_comply -->
<g id="edge16" class="edge">
<title>b_coord&#45;&gt;b_comply</title>
<path fill="none" stroke="#5d6d7e" stroke-width="0.9" stroke-dasharray="5,2" d="M2253.84,-390.08C2280.57,-395.22 2309.73,-400.83 2334.28,-405.55"/>
<polygon fill="#5d6d7e" stroke="#5d6d7e" stroke-width="0.9" points="2333.59,-407.73 2340.4,-406.72 2334.45,-403.26 2333.59,-407.73"/>
</g>
<!-- b_diag -->
<g id="node18" class="node">
<title>b_diag</title>
<path fill="#ffffff" stroke="#5d6d7e" stroke-width="1.4" d="M2433.44,-522.86C2433.44,-522.86 2351.03,-522.86 2351.03,-522.86 2345.03,-522.86 2339.03,-516.86 2339.03,-510.86 2339.03,-510.86 2339.03,-488.14 2339.03,-488.14 2339.03,-482.14 2345.03,-476.14 2351.03,-476.14 2351.03,-476.14 2433.44,-476.14 2433.44,-476.14 2439.44,-476.14 2445.44,-482.14 2445.44,-488.14 2445.44,-488.14 2445.44,-510.86 2445.44,-510.86 2445.44,-516.86 2439.44,-522.86 2433.44,-522.86"/>
<text xml:space="preserve" text-anchor="middle" x="2392.23" y="-507.82" font-family="Helvetica Neue" font-size="9.00">Diagram</text>
<text xml:space="preserve" text-anchor="middle" x="2392.23" y="-496.57" font-family="Helvetica Neue" font-size="9.00">Graphviz + Matplotlib</text>
<text xml:space="preserve" text-anchor="middle" x="2392.23" y="-485.32" font-family="Helvetica Neue" font-size="9.00">SVG + PNG</text>
</g>
<!-- b_coord&#45;&gt;b_diag -->
<g id="edge17" class="edge">
<title>b_coord&#45;&gt;b_diag</title>
<path fill="none" stroke="#5d6d7e" stroke-width="0.9" stroke-dasharray="5,2" d="M2231.64,-408.16C2266.46,-428.09 2310.05,-453.03 2342.86,-471.82"/>
<polygon fill="#5d6d7e" stroke="#5d6d7e" stroke-width="0.9" points="2341.32,-473.56 2348.09,-474.81 2343.58,-469.61 2341.32,-473.56"/>
</g>
<!-- b_tracker -->
<g id="node19" class="node">
<title>b_tracker</title>
<path fill="#ffffff" stroke="#5d6d7e" stroke-width="1.4" d="M2432.69,-605.86C2432.69,-605.86 2351.78,-605.86 2351.78,-605.86 2345.78,-605.86 2339.78,-599.86 2339.78,-593.86 2339.78,-593.86 2339.78,-571.14 2339.78,-571.14 2339.78,-565.14 2345.78,-559.14 2351.78,-559.14 2351.78,-559.14 2432.69,-559.14 2432.69,-559.14 2438.69,-559.14 2444.69,-565.14 2444.69,-571.14 2444.69,-571.14 2444.69,-593.86 2444.69,-593.86 2444.69,-599.86 2438.69,-605.86 2432.69,-605.86"/>
<text xml:space="preserve" text-anchor="middle" x="2392.23" y="-590.83" font-family="Helvetica Neue" font-size="9.00">Experiment</text>
<text xml:space="preserve" text-anchor="middle" x="2392.23" y="-579.58" font-family="Helvetica Neue" font-size="9.00">Tracker</text>
<text xml:space="preserve" text-anchor="middle" x="2392.23" y="-568.33" font-family="Helvetica Neue" font-size="9.00">Append&#45;only registry</text>
</g>
<!-- b_coord&#45;&gt;b_tracker -->
<g id="edge18" class="edge">
<title>b_coord&#45;&gt;b_tracker</title>
<path fill="none" stroke="#5d6d7e" stroke-width="0.9" stroke-dasharray="5,2" d="M2201.35,-408.22C2231.73,-443.18 2282.09,-498.5 2331.03,-540.5 2336.36,-545.07 2342.18,-549.62 2348.03,-553.94"/>
<polygon fill="#5d6d7e" stroke="#5d6d7e" stroke-width="0.9" points="2346.68,-555.77 2353.28,-557.74 2349.35,-552.09 2346.68,-555.77"/>
</g>
<!-- b_tables -->
<g id="node20" class="node">
<title>b_tables</title>
<path fill="#ffffff" stroke="#5d6d7e" stroke-width="1.4" d="M2431.94,-688.86C2431.94,-688.86 2352.53,-688.86 2352.53,-688.86 2346.53,-688.86 2340.53,-682.86 2340.53,-676.86 2340.53,-676.86 2340.53,-654.14 2340.53,-654.14 2340.53,-648.14 2346.53,-642.14 2352.53,-642.14 2352.53,-642.14 2431.94,-642.14 2431.94,-642.14 2437.94,-642.14 2443.94,-648.14 2443.94,-654.14 2443.94,-654.14 2443.94,-676.86 2443.94,-676.86 2443.94,-682.86 2437.94,-688.86 2431.94,-688.86"/>
<text xml:space="preserve" text-anchor="middle" x="2392.23" y="-673.83" font-family="Helvetica Neue" font-size="9.00">Results</text>
<text xml:space="preserve" text-anchor="middle" x="2392.23" y="-662.58" font-family="Helvetica Neue" font-size="9.00">Tables &amp; Viz</text>
<text xml:space="preserve" text-anchor="middle" x="2392.23" y="-651.33" font-family="Helvetica Neue" font-size="9.00">MAPE / RAM / SRQ3</text>
</g>
<!-- b_coord&#45;&gt;b_tables -->
<g id="edge19" class="edge">
<title>b_coord&#45;&gt;b_tables</title>
<path fill="none" stroke="#5d6d7e" stroke-width="0.9" stroke-dasharray="5,2" d="M2188.67,-408.01C2213.79,-458.73 2266.55,-556.18 2331.03,-623.5 2335.63,-628.3 2340.85,-632.89 2346.25,-637.15"/>
<polygon fill="#5d6d7e" stroke="#5d6d7e" stroke-width="0.9" points="2344.52,-638.69 2351.08,-640.81 2347.28,-635.07 2344.52,-638.69"/>
</g>
<!-- note_read&#45;&gt;b_state -->
<g id="edge21" class="edge">
<title>note_read&#45;&gt;b_state</title>
<path fill="none" stroke="#c17817" stroke-dasharray="5,2" d="M1768.63,-374.5C1790.98,-374.5 1819.44,-374.5 1846.12,-374.5"/>
<polygon fill="#c17817" stroke="#c17817" points="1846.08,-376.6 1852.08,-374.5 1846.08,-372.4 1846.08,-376.6"/>
</g>
</g>
</svg>
