<?xml version="1.0" encoding="UTF-8" standalone="no"?>
<!DOCTYPE svg PUBLIC "-//W3C//DTD SVG 1.1//EN"
 "http://www.w3.org/Graphics/SVG/1.1/DTD/svg11.dtd">
<!-- Generated by graphviz version 14.1.3 (20260303.0454)
 -->
<!-- Title: data_flow Pages: 1 -->
<svg width="815pt" height="643pt"
 viewBox="0.00 0.00 815.00 643.00" xmlns="http://www.w3.org/2000/svg" xmlns:xlink="http://www.w3.org/1999/xlink">
<g id="graph0" class="graph" transform="scale(1 1) rotate(0) translate(32.4 610.53)">
<title>data_flow</title>
<polygon fill="#f4f6f9" stroke="none" points="-32.4,32.4 -32.4,-610.53 783.07,-610.53 783.07,32.4 -32.4,32.4"/>
<text xml:space="preserve" text-anchor="middle" x="375.34" y="-7.4" font-family="Helvetica Neue" font-size="13.00">System A &#160;· &#160;Data Flow through LangGraph ResearchState</text>
<!-- raw_nielsen -->
<g id="node1" class="node">
<title>raw_nielsen</title>
<path fill="#eaf4fb" stroke="#2e86ab" stroke-width="1.8" d="M332.42,-571.47C332.42,-575.14 307.62,-578.13 277.09,-578.13 246.55,-578.13 221.75,-575.14 221.75,-571.47 221.75,-571.47 221.75,-511.53 221.75,-511.53 221.75,-507.86 246.55,-504.87 277.09,-504.87 307.62,-504.87 332.42,-507.86 332.42,-511.53 332.42,-511.53 332.42,-571.47 332.42,-571.47"/>
<path fill="none" stroke="#2e86ab" stroke-width="1.8" d="M332.42,-571.47C332.42,-567.8 307.62,-564.81 277.09,-564.81 246.55,-564.81 221.75,-567.8 221.75,-571.47"/>
<text xml:space="preserve" text-anchor="middle" x="277.09" y="-550" font-family="Helvetica Neue" font-size="10.00">Raw Nielsen</text>
<text xml:space="preserve" text-anchor="middle" x="277.09" y="-538" font-family="Helvetica Neue" font-size="10.00">facts + dimensions</text>
<text xml:space="preserve" text-anchor="middle" x="277.09" y="-526" font-family="Helvetica Neue" font-size="10.00">~ 500 MB – 1 GB</text>
</g>
<!-- gc -->
<g id="node3" class="node">
<title>gc</title>
<polygon fill="#fdecea" stroke="#c0392b" stroke-width="1.5" points="346.18,-414.23 312.13,-442.01 244.04,-442.01 209.99,-414.23 244.04,-386.45 312.13,-386.45 346.18,-414.23"/>
<text xml:space="preserve" text-anchor="middle" x="278.09" y="-416.93" font-family="Helvetica Neue" font-size="9.00">del &#160;+ &#160;gc.collect()</text>
<text xml:space="preserve" text-anchor="middle" x="278.09" y="-405.68" font-family="Helvetica Neue" font-size="9.00">~ 1.5 GB freed</text>
</g>
<!-- raw_nielsen&#45;&gt;gc -->
<g id="edge5" class="edge">
<title>raw_nielsen&#45;&gt;gc</title>
<path fill="none" stroke="#c0392b" stroke-dasharray="5,2" d="M277.37,-504.27C277.51,-487.53 277.67,-467.71 277.8,-451.03"/>
<polygon fill="#c0392b" stroke="#c0392b" points="280.25,-451.16 277.85,-444.14 275.35,-451.12 280.25,-451.16"/>
</g>
<!-- feat -->
<g id="node4" class="node">
<title>feat</title>
<path fill="#e8f8f1" stroke="#1a936f" stroke-width="1.8" d="M148.17,-446.87C148.17,-446.87 12,-446.87 12,-446.87 6,-446.87 0,-440.87 0,-434.87 0,-434.87 0,-393.59 0,-393.59 0,-387.59 6,-381.59 12,-381.59 12,-381.59 148.17,-381.59 148.17,-381.59 154.17,-381.59 160.17,-387.59 160.17,-393.59 160.17,-393.59 160.17,-434.87 160.17,-434.87 160.17,-440.87 154.17,-446.87 148.17,-446.87"/>
<text xml:space="preserve" text-anchor="middle" x="80.09" y="-428.73" font-family="Helvetica Neue" font-size="10.00">Feature Matrix</text>
<text xml:space="preserve" text-anchor="middle" x="80.09" y="-416.73" font-family="Helvetica Neue" font-size="10.00">brand × retailer × period</text>
<text xml:space="preserve" text-anchor="middle" x="80.09" y="-404.73" font-family="Helvetica Neue" font-size="10.00">lag / rolling / promo / calendar</text>
<text xml:space="preserve" text-anchor="middle" x="80.09" y="-392.73" font-family="Helvetica Neue" font-size="10.00">~ 200–300 MB</text>
</g>
<!-- raw_nielsen&#45;&gt;feat -->
<g id="edge1" class="edge">
<title>raw_nielsen&#45;&gt;feat</title>
<path fill="none" stroke="#2e86ab" stroke-width="1.5" d="M224.03,-506.77C198.02,-490.22 166.58,-470.23 139.73,-453.16"/>
<polygon fill="#2e86ab" stroke="#2e86ab" stroke-width="1.5" points="141.36,-450.88 133.11,-448.95 138.35,-455.6 141.36,-450.88"/>
</g>
<!-- quality -->
<g id="node6" class="node">
<title>quality</title>
<polygon fill="#ffffff" stroke="#5d6d7e" stroke-width="1.2" points="506.17,-443.93 396.01,-443.93 396.01,-384.53 512.17,-384.53 512.17,-437.93 506.17,-443.93"/>
<polyline fill="none" stroke="#5d6d7e" stroke-width="1.2" points="506.17,-443.93 506.17,-437.93"/>
<polyline fill="none" stroke="#5d6d7e" stroke-width="1.2" points="512.17,-437.93 506.17,-437.93"/>
<text xml:space="preserve" text-anchor="middle" x="454.09" y="-428.18" font-family="Helvetica Neue" font-size="9.00">Data Quality Report</text>
<text xml:space="preserve" text-anchor="middle" x="454.09" y="-416.93" font-family="Helvetica Neue" font-size="9.00">missing values · outliers</text>
<text xml:space="preserve" text-anchor="middle" x="454.09" y="-405.68" font-family="Helvetica Neue" font-size="9.00">coverage flags</text>
<text xml:space="preserve" text-anchor="middle" x="454.09" y="-394.43" font-family="Helvetica Neue" font-size="9.00">Saved → docs/data/</text>
</g>
<!-- raw_nielsen&#45;&gt;quality -->
<g id="edge3" class="edge">
<title>raw_nielsen&#45;&gt;quality</title>
<path fill="none" stroke="#5d6d7e" stroke-dasharray="5,2" d="M325.45,-506.27C350.53,-488.52 381.05,-466.92 406.07,-449.21"/>
<polygon fill="#5d6d7e" stroke="#5d6d7e" points="407.44,-451.24 411.74,-445.2 404.61,-447.24 407.44,-451.24"/>
</g>
<!-- raw_indeks -->
<g id="node2" class="node">
<title>raw_indeks</title>
<path fill="#eaf4fb" stroke="#2e86ab" stroke-width="1.8" d="M525.92,-571.47C525.92,-575.14 493.72,-578.13 454.09,-578.13 414.45,-578.13 382.25,-575.14 382.25,-571.47 382.25,-571.47 382.25,-511.53 382.25,-511.53 382.25,-507.86 414.45,-504.87 454.09,-504.87 493.72,-504.87 525.92,-507.86 525.92,-511.53 525.92,-511.53 525.92,-571.47 525.92,-571.47"/>
<path fill="none" stroke="#2e86ab" stroke-width="1.8" d="M525.92,-571.47C525.92,-567.8 493.72,-564.81 454.09,-564.81 414.45,-564.81 382.25,-567.8 382.25,-571.47"/>
<text xml:space="preserve" text-anchor="middle" x="454.09" y="-550" font-family="Helvetica Neue" font-size="10.00">Raw Indeks Danmark</text>
<text xml:space="preserve" text-anchor="middle" x="454.09" y="-538" font-family="Helvetica Neue" font-size="10.00">20,134 rows &#160;× &#160;6,364 cols</text>
<text xml:space="preserve" text-anchor="middle" x="454.09" y="-526" font-family="Helvetica Neue" font-size="10.00">~ 970 MB</text>
</g>
<!-- raw_indeks&#45;&gt;gc -->
<g id="edge6" class="edge">
<title>raw_indeks&#45;&gt;gc</title>
<path fill="none" stroke="#c0392b" stroke-dasharray="5,2" d="M403.18,-504.27C377.2,-485.77 345.93,-463.52 321.16,-445.89"/>
<polygon fill="#c0392b" stroke="#c0392b" points="322.71,-443.98 315.59,-441.92 319.87,-447.98 322.71,-443.98"/>
</g>
<!-- signals -->
<g id="node5" class="node">
<title>signals</title>
<path fill="#e8f8f1" stroke="#1a936f" stroke-width="1.8" d="M722.17,-446.87C722.17,-446.87 574,-446.87 574,-446.87 568,-446.87 562,-440.87 562,-434.87 562,-434.87 562,-393.59 562,-393.59 562,-387.59 568,-381.59 574,-381.59 574,-381.59 722.17,-381.59 722.17,-381.59 728.17,-381.59 734.17,-387.59 734.17,-393.59 734.17,-393.59 734.17,-434.87 734.17,-434.87 734.17,-440.87 728.17,-446.87 722.17,-446.87"/>
<text xml:space="preserve" text-anchor="middle" x="648.09" y="-428.73" font-family="Helvetica Neue" font-size="10.00">Consumer Signals</text>
<text xml:space="preserve" text-anchor="middle" x="648.09" y="-416.73" font-family="Helvetica Neue" font-size="10.00">PCA &#160;→ &#160;k&#45;means &#160;→ &#160;segments</text>
<text xml:space="preserve" text-anchor="middle" x="648.09" y="-404.73" font-family="Helvetica Neue" font-size="10.00">retailer demand index</text>
<text xml:space="preserve" text-anchor="middle" x="648.09" y="-392.73" font-family="Helvetica Neue" font-size="10.00">trend direction</text>
</g>
<!-- raw_indeks&#45;&gt;signals -->
<g id="edge2" class="edge">
<title>raw_indeks&#45;&gt;signals</title>
<path fill="none" stroke="#2e86ab" stroke-width="1.5" d="M508.38,-505.44C533.56,-489.18 563.53,-469.83 589.25,-453.22"/>
<polygon fill="#2e86ab" stroke="#2e86ab" stroke-width="1.5" points="590.68,-455.63 595.89,-448.94 587.65,-450.92 590.68,-455.63"/>
</g>
<!-- raw_indeks&#45;&gt;quality -->
<g id="edge4" class="edge">
<title>raw_indeks&#45;&gt;quality</title>
<path fill="none" stroke="#5d6d7e" stroke-dasharray="5,2" d="M454.09,-504.27C454.09,-488.02 454.09,-468.88 454.09,-452.51"/>
<polygon fill="#5d6d7e" stroke="#5d6d7e" points="456.54,-452.75 454.09,-445.75 451.64,-452.75 456.54,-452.75"/>
</g>
<!-- forecasts -->
<g id="node7" class="node">
<title>forecasts</title>
<path fill="#fdfaf0" stroke="#c17817" stroke-width="1.8" d="M553.8,-323.59C553.8,-323.59 394.38,-323.59 394.38,-323.59 388.38,-323.59 382.38,-317.59 382.38,-311.59 382.38,-311.59 382.38,-282.31 382.38,-282.31 382.38,-276.31 388.38,-270.31 394.38,-270.31 394.38,-270.31 553.8,-270.31 553.8,-270.31 559.8,-270.31 565.8,-276.31 565.8,-282.31 565.8,-282.31 565.8,-311.59 565.8,-311.59 565.8,-317.59 559.8,-323.59 553.8,-323.59"/>
<text xml:space="preserve" text-anchor="middle" x="474.09" y="-305.45" font-family="Helvetica Neue" font-size="10.00">5 × &#160;ModelForecast</text>
<text xml:space="preserve" text-anchor="middle" x="474.09" y="-293.45" font-family="Helvetica Neue" font-size="10.00">point &#160;· &#160;lower_90 &#160;· &#160;upper_90</text>
<text xml:space="preserve" text-anchor="middle" x="474.09" y="-281.45" font-family="Helvetica Neue" font-size="10.00">MAPE &#160;· &#160;RMSE &#160;· &#160;peak_RAM_MB</text>
</g>
<!-- feat&#45;&gt;forecasts -->
<g id="edge7" class="edge">
<title>feat&#45;&gt;forecasts</title>
<path fill="none" stroke="#1a936f" stroke-width="1.6" d="M160.89,-388.78C169.06,-386.34 177.23,-383.91 185.09,-381.59 246.61,-363.42 315.61,-343.43 370.76,-327.56"/>
<polygon fill="#1a936f" stroke="#1a936f" stroke-width="1.6" points="371.5,-330.62 379.27,-325.11 369.75,-324.57 371.5,-330.62"/>
</g>
<!-- signals&#45;&gt;forecasts -->
<g id="edge8" class="edge">
<title>signals&#45;&gt;forecasts</title>
<path fill="none" stroke="#1a936f" stroke-width="1.3" stroke-dasharray="5,2" d="M599.15,-380.81C575.06,-364.85 546.1,-345.67 522.13,-329.78"/>
<polygon fill="#1a936f" stroke="#1a936f" stroke-width="1.3" points="523.73,-327.48 515.51,-325.4 520.63,-332.15 523.73,-327.48"/>
</g>
<!-- synthesis -->
<g id="node8" class="node">
<title>synthesis</title>
<path fill="#fdebd0" stroke="#c17817" stroke-width="1.8" d="M738.67,-212.31C738.67,-212.31 557.5,-212.31 557.5,-212.31 551.5,-212.31 545.5,-206.31 545.5,-200.31 545.5,-200.31 545.5,-159.03 545.5,-159.03 545.5,-153.03 551.5,-147.03 557.5,-147.03 557.5,-147.03 738.67,-147.03 738.67,-147.03 744.67,-147.03 750.67,-153.03 750.67,-159.03 750.67,-159.03 750.67,-200.31 750.67,-200.31 750.67,-206.31 744.67,-212.31 738.67,-212.31"/>
<text xml:space="preserve" text-anchor="middle" x="648.09" y="-194.17" font-family="Helvetica Neue" font-size="10.00">SynthesisOutput</text>
<text xml:space="preserve" text-anchor="middle" x="648.09" y="-182.17" font-family="Helvetica Neue" font-size="10.00">ensemble_forecast &#160;· &#160;calibrated_interval</text>
<text xml:space="preserve" text-anchor="middle" x="648.09" y="-170.17" font-family="Helvetica Neue" font-size="10.00">confidence_score &#160;0–100</text>
<text xml:space="preserve" text-anchor="middle" x="648.09" y="-158.17" font-family="Helvetica Neue" font-size="10.00">recommendation_text</text>
</g>
<!-- signals&#45;&gt;synthesis -->
<g id="edge10" class="edge">
<title>signals&#45;&gt;synthesis</title>
<path fill="none" stroke="#1a936f" stroke-width="1.3" stroke-dasharray="5,2" d="M648.09,-380.89C648.09,-339.7 648.09,-268.42 648.09,-222.95"/>
<polygon fill="#1a936f" stroke="#1a936f" stroke-width="1.3" points="650.89,-223.07 648.09,-215.07 645.29,-223.07 650.89,-223.07"/>
</g>
<!-- forecasts&#45;&gt;synthesis -->
<g id="edge9" class="edge">
<title>forecasts&#45;&gt;synthesis</title>
<path fill="none" stroke="#c17817" stroke-width="1.6" d="M514,-269.5C536.42,-254.65 564.81,-235.84 589.69,-219.36"/>
<polygon fill="#c17817" stroke="#c17817" stroke-width="1.6" points="591.25,-222.1 597.01,-214.51 587.77,-216.85 591.25,-222.1"/>
</g>
<!-- validation -->
<g id="node9" class="node">
<title>validation</title>
<polygon fill="#eaf4fb" stroke="#2e86ab" stroke-width="1.8" points="634.42,-89.03 475.75,-89.03 475.75,-23.75 640.42,-23.75 640.42,-83.03 634.42,-89.03"/>
<polyline fill="none" stroke="#2e86ab" stroke-width="1.8" points="634.42,-89.03 634.42,-83.03"/>
<polyline fill="none" stroke="#2e86ab" stroke-width="1.8" points="640.42,-83.03 634.42,-83.03"/>
<text xml:space="preserve" text-anchor="middle" x="558.09" y="-70.89" font-family="Helvetica Neue" font-size="10.00">ValidationReport</text>
<text xml:space="preserve" text-anchor="middle" x="558.09" y="-58.89" font-family="Helvetica Neue" font-size="10.00">MAPE / RMSE / DM&#45;test</text>
<text xml:space="preserve" text-anchor="middle" x="558.09" y="-46.89" font-family="Helvetica Neue" font-size="10.00">LLM&#45;as&#45;Judge scores &#160;(N = 50)</text>
<text xml:space="preserve" text-anchor="middle" x="558.09" y="-34.89" font-family="Helvetica Neue" font-size="10.00">RAM profile &#160;· &#160;latency</text>
</g>
<!-- forecasts&#45;&gt;validation -->
<g id="edge11" class="edge">
<title>forecasts&#45;&gt;validation</title>
<path fill="none" stroke="#2e86ab" stroke-width="1.3" stroke-dasharray="5,2" d="M481.35,-269.59C489.82,-239.61 504.62,-189.35 520.09,-147.03 525.9,-131.12 532.98,-113.93 539.45,-98.9"/>
<polygon fill="#2e86ab" stroke="#2e86ab" stroke-width="1.3" points="541.98,-100.11 542.6,-91.66 536.84,-97.88 541.98,-100.11"/>
</g>
<!-- synthesis&#45;&gt;validation -->
<g id="edge12" class="edge">
<title>synthesis&#45;&gt;validation</title>
<path fill="none" stroke="#c17817" stroke-width="1.6" d="M623.97,-146.17C613.09,-131.51 600.11,-114.02 588.56,-98.46"/>
<polygon fill="#c17817" stroke="#c17817" stroke-width="1.6" points="591.29,-96.85 583.4,-91.5 586.23,-100.61 591.29,-96.85"/>
</g>
</g>
</svg>
