<?xml version="1.0" encoding="UTF-8" standalone="no"?>
<!DOCTYPE svg PUBLIC "-//W3C//DTD SVG 1.1//EN"
 "http://www.w3.org/Graphics/SVG/1.1/DTD/svg11.dtd">
<!-- Generated by graphviz version 16.1.0 (20260904.0139)
 -->
<!-- Title: 14_interval_communication Pages: 1 -->
<svg width="1103pt" height="337pt"
 viewBox="0.00 0.00 1103.00 337.00" xmlns="http://www.w3.org/2000/svg" xmlns:xlink="http://www.w3.org/1999/xlink">
<g id="graph0" class="graph" transform="scale(1 1) rotate(0) translate(4 333.25)">
<title>14_interval_communication</title>
<polygon fill="white" stroke="none" points="-4,4 -4,-333.25 1099.25,-333.25 1099.25,4 -4,4"/>
<text xml:space="preserve" text-anchor="middle" x="547.62" y="-30.5" font-family="Cambria" font-size="10.00" fill="#5a5a5a">Number of answers satisfying each criterion for conveying uncertainty, with</text>
<text xml:space="preserve" text-anchor="middle" x="547.62" y="-18.5" font-family="Cambria" font-size="10.00" fill="#5a5a5a">the percentage in parentheses, scored against the payload the forecasting tool</text>
<text xml:space="preserve" text-anchor="middle" x="547.62" y="-6.5" font-family="Cambria" font-size="10.00" fill="#5a5a5a">returned. n denotes the number of answers scored in each scenario.</text>
<!-- t -->
<g id="node1" class="node">
<title>t</title>
<polygon fill="#ffffff" stroke="none" points="8,-299.75 8,-325.25 173.75,-325.25 173.75,-299.75 8,-299.75"/>
<polyline fill="none" stroke="#000000" points="8,-299.75 173.75,-299.75 173.75,-325.25"/>
<text xml:space="preserve" text-anchor="start" x="14" y="-309.8" font-family="Cambria" font-weight="bold" font-size="11.00" fill="#1a1a1a">Criterion</text>
<polygon fill="#ffffff" stroke="none" points="173.75,-299.75 173.75,-325.25 276.5,-325.25 276.5,-299.75 173.75,-299.75"/>
<polyline fill="none" stroke="#000000" points="173.75,-299.75 276.5,-299.75"/>
<text xml:space="preserve" text-anchor="start" x="179.75" y="-309.8" font-family="Cambria" font-weight="bold" font-size="11.00" fill="#1a1a1a">A_llm_plain (n=9)</text>
<polygon fill="#ffffff" stroke="none" points="276.5,-299.75 276.5,-325.25 374.75,-325.25 374.75,-299.75 276.5,-299.75"/>
<polyline fill="none" stroke="#000000" points="276.5,-299.75 374.75,-299.75"/>
<text xml:space="preserve" text-anchor="start" x="282.5" y="-309.8" font-family="Cambria" font-weight="bold" font-size="11.00" fill="#1a1a1a">B_llm_data (n=9)</text>
<polygon fill="#ffffff" stroke="none" points="374.75,-299.75 374.75,-325.25 481.25,-325.25 481.25,-299.75 374.75,-299.75"/>
<polyline fill="none" stroke="#000000" points="374.75,-299.75 481.25,-299.75"/>
<text xml:space="preserve" text-anchor="start" x="380.75" y="-309.8" font-family="Cambria" font-weight="bold" font-size="11.00" fill="#1a1a1a">C_llm_model (n=9)</text>
<polygon fill="#ffffff" stroke="none" points="481.25,-299.75 481.25,-325.25 624.5,-325.25 624.5,-299.75 481.25,-299.75"/>
<polyline fill="none" stroke="#000000" points="481.25,-299.75 624.5,-299.75"/>
<text xml:space="preserve" text-anchor="start" x="487.25" y="-309.8" font-family="Cambria" font-weight="bold" font-size="11.00" fill="#1a1a1a">D_prometheus_data (n=9)</text>
<polygon fill="#ffffff" stroke="none" points="624.5,-299.75 624.5,-325.25 776,-325.25 776,-299.75 624.5,-299.75"/>
<polyline fill="none" stroke="#000000" points="624.5,-299.75 776,-299.75"/>
<text xml:space="preserve" text-anchor="start" x="630.5" y="-309.8" font-family="Cambria" font-weight="bold" font-size="11.00" fill="#1a1a1a">E_prometheus_model (n=9)</text>
<polygon fill="#ffffff" stroke="none" points="776,-299.75 776,-325.25 908.75,-325.25 908.75,-299.75 776,-299.75"/>
<polyline fill="none" stroke="#000000" points="776,-299.75 908.75,-299.75"/>
<text xml:space="preserve" text-anchor="start" x="782" y="-309.8" font-family="Cambria" font-weight="bold" font-size="11.00" fill="#1a1a1a">F_llm_data_model (n=9)</text>
<polygon fill="#ffffff" stroke="none" points="908.75,-299.75 908.75,-325.25 1087.25,-325.25 1087.25,-299.75 908.75,-299.75"/>
<polyline fill="none" stroke="#000000" points="908.75,-299.75 1087.25,-299.75"/>
<text xml:space="preserve" text-anchor="start" x="914.75" y="-309.8" font-family="Cambria" font-weight="bold" font-size="11.00" fill="#1a1a1a">G_prometheus_data_model (n=9)</text>
<polygon fill="#ffffff" stroke="none" points="8,-274.25 8,-299.75 173.75,-299.75 173.75,-274.25 8,-274.25"/>
<polyline fill="none" stroke="#000000" points="173.75,-274.25 173.75,-299.75"/>
<text xml:space="preserve" text-anchor="start" x="14" y="-284.3" font-family="Cambria" font-weight="bold" font-size="11.00" fill="#1a1a1a">States a range</text>
<polygon fill="#ffffff" stroke="none" points="173.75,-274.25 173.75,-299.75 276.5,-299.75 276.5,-274.25 173.75,-274.25"/>
<polygon fill="none" stroke="#000000" points="173.75,-274.25 173.75,-299.75 276.5,-299.75 276.5,-274.25 173.75,-274.25"/>
<text xml:space="preserve" text-anchor="start" x="179.75" y="-283.25" font-family="Cambria" font-size="11.00" fill="#1a1a1a">9 of 9 (100)</text>
<polygon fill="#ffffff" stroke="none" points="276.5,-274.25 276.5,-299.75 374.75,-299.75 374.75,-274.25 276.5,-274.25"/>
<polygon fill="none" stroke="#000000" points="276.5,-274.25 276.5,-299.75 374.75,-299.75 374.75,-274.25 276.5,-274.25"/>
<text xml:space="preserve" text-anchor="start" x="282.5" y="-283.25" font-family="Cambria" font-size="11.00" fill="#1a1a1a">9 of 9 (100)</text>
<polygon fill="#ffffff" stroke="none" points="374.75,-274.25 374.75,-299.75 481.25,-299.75 481.25,-274.25 374.75,-274.25"/>
<polygon fill="none" stroke="#000000" points="374.75,-274.25 374.75,-299.75 481.25,-299.75 481.25,-274.25 374.75,-274.25"/>
<text xml:space="preserve" text-anchor="start" x="380.75" y="-283.25" font-family="Cambria" font-size="11.00" fill="#1a1a1a">9 of 9 (100)</text>
<polygon fill="#ffffff" stroke="none" points="481.25,-274.25 481.25,-299.75 624.5,-299.75 624.5,-274.25 481.25,-274.25"/>
<polygon fill="none" stroke="#000000" points="481.25,-274.25 481.25,-299.75 624.5,-299.75 624.5,-274.25 481.25,-274.25"/>
<text xml:space="preserve" text-anchor="start" x="487.25" y="-283.25" font-family="Cambria" font-size="11.00" fill="#1a1a1a">9 of 9 (100)</text>
<polygon fill="#ffffff" stroke="none" points="624.5,-274.25 624.5,-299.75 776,-299.75 776,-274.25 624.5,-274.25"/>
<polygon fill="none" stroke="#000000" points="624.5,-274.25 624.5,-299.75 776,-299.75 776,-274.25 624.5,-274.25"/>
<text xml:space="preserve" text-anchor="start" x="630.5" y="-283.25" font-family="Cambria" font-size="11.00" fill="#1a1a1a">9 of 9 (100)</text>
<polygon fill="#ffffff" stroke="none" points="776,-274.25 776,-299.75 908.75,-299.75 908.75,-274.25 776,-274.25"/>
<polygon fill="none" stroke="#000000" points="776,-274.25 776,-299.75 908.75,-299.75 908.75,-274.25 776,-274.25"/>
<text xml:space="preserve" text-anchor="start" x="782" y="-283.25" font-family="Cambria" font-size="11.00" fill="#1a1a1a">9 of 9 (100)</text>
<polygon fill="#ffffff" stroke="none" points="908.75,-274.25 908.75,-299.75 1087.25,-299.75 1087.25,-274.25 908.75,-274.25"/>
<polygon fill="none" stroke="#000000" points="908.75,-274.25 908.75,-299.75 1087.25,-299.75 1087.25,-274.25 908.75,-274.25"/>
<text xml:space="preserve" text-anchor="start" x="914.75" y="-283.25" font-family="Cambria" font-size="11.00" fill="#1a1a1a">9 of 9 (100)</text>
<polygon fill="#ffffff" stroke="none" points="8,-248.75 8,-274.25 173.75,-274.25 173.75,-248.75 8,-248.75"/>
<polyline fill="none" stroke="#000000" points="173.75,-248.75 173.75,-274.25"/>
<text xml:space="preserve" text-anchor="start" x="14" y="-258.8" font-family="Cambria" font-weight="bold" font-size="11.00" fill="#1a1a1a">Range matches the tool output</text>
<polygon fill="#ffffff" stroke="none" points="173.75,-248.75 173.75,-274.25 276.5,-274.25 276.5,-248.75 173.75,-248.75"/>
<polygon fill="none" stroke="#000000" points="173.75,-248.75 173.75,-274.25 276.5,-274.25 276.5,-248.75 173.75,-248.75"/>
<text xml:space="preserve" text-anchor="start" x="179.75" y="-257.75" font-family="Cambria" font-size="11.00" fill="#1a1a1a">0 of 9 (0)</text>
<polygon fill="#ffffff" stroke="none" points="276.5,-248.75 276.5,-274.25 374.75,-274.25 374.75,-248.75 276.5,-248.75"/>
<polygon fill="none" stroke="#000000" points="276.5,-248.75 276.5,-274.25 374.75,-274.25 374.75,-248.75 276.5,-248.75"/>
<text xml:space="preserve" text-anchor="start" x="282.5" y="-257.75" font-family="Cambria" font-size="11.00" fill="#1a1a1a">0 of 9 (0)</text>
<polygon fill="#ffffff" stroke="none" points="374.75,-248.75 374.75,-274.25 481.25,-274.25 481.25,-248.75 374.75,-248.75"/>
<polygon fill="none" stroke="#000000" points="374.75,-248.75 374.75,-274.25 481.25,-274.25 481.25,-248.75 374.75,-248.75"/>
<text xml:space="preserve" text-anchor="start" x="380.75" y="-257.75" font-family="Cambria" font-size="11.00" fill="#1a1a1a">9 of 9 (100)</text>
<polygon fill="#ffffff" stroke="none" points="481.25,-248.75 481.25,-274.25 624.5,-274.25 624.5,-248.75 481.25,-248.75"/>
<polygon fill="none" stroke="#000000" points="481.25,-248.75 481.25,-274.25 624.5,-274.25 624.5,-248.75 481.25,-248.75"/>
<text xml:space="preserve" text-anchor="start" x="487.25" y="-257.75" font-family="Cambria" font-size="11.00" fill="#1a1a1a">0 of 9 (0)</text>
<polygon fill="#ffffff" stroke="none" points="624.5,-248.75 624.5,-274.25 776,-274.25 776,-248.75 624.5,-248.75"/>
<polygon fill="none" stroke="#000000" points="624.5,-248.75 624.5,-274.25 776,-274.25 776,-248.75 624.5,-248.75"/>
<text xml:space="preserve" text-anchor="start" x="630.5" y="-257.75" font-family="Cambria" font-size="11.00" fill="#1a1a1a">9 of 9 (100)</text>
<polygon fill="#ffffff" stroke="none" points="776,-248.75 776,-274.25 908.75,-274.25 908.75,-248.75 776,-248.75"/>
<polygon fill="none" stroke="#000000" points="776,-248.75 776,-274.25 908.75,-274.25 908.75,-248.75 776,-248.75"/>
<text xml:space="preserve" text-anchor="start" x="782" y="-257.75" font-family="Cambria" font-size="11.00" fill="#1a1a1a">0 of 9 (0)</text>
<polygon fill="#ffffff" stroke="none" points="908.75,-248.75 908.75,-274.25 1087.25,-274.25 1087.25,-248.75 908.75,-248.75"/>
<polygon fill="none" stroke="#000000" points="908.75,-248.75 908.75,-274.25 1087.25,-274.25 1087.25,-248.75 908.75,-248.75"/>
<text xml:space="preserve" text-anchor="start" x="914.75" y="-257.75" font-family="Cambria" font-size="11.00" fill="#1a1a1a">0 of 9 (0)</text>
<polygon fill="#ffffff" stroke="none" points="8,-223.25 8,-248.75 173.75,-248.75 173.75,-223.25 8,-223.25"/>
<polyline fill="none" stroke="#000000" points="173.75,-223.25 173.75,-248.75"/>
<text xml:space="preserve" text-anchor="start" x="14" y="-233.3" font-family="Cambria" font-weight="bold" font-size="11.00" fill="#1a1a1a">States confidence</text>
<polygon fill="#ffffff" stroke="none" points="173.75,-223.25 173.75,-248.75 276.5,-248.75 276.5,-223.25 173.75,-223.25"/>
<polygon fill="none" stroke="#000000" points="173.75,-223.25 173.75,-248.75 276.5,-248.75 276.5,-223.25 173.75,-223.25"/>
<text xml:space="preserve" text-anchor="start" x="179.75" y="-232.25" font-family="Cambria" font-size="11.00" fill="#1a1a1a">9 of 9 (100)</text>
<polygon fill="#ffffff" stroke="none" points="276.5,-223.25 276.5,-248.75 374.75,-248.75 374.75,-223.25 276.5,-223.25"/>
<polygon fill="none" stroke="#000000" points="276.5,-223.25 276.5,-248.75 374.75,-248.75 374.75,-223.25 276.5,-223.25"/>
<text xml:space="preserve" text-anchor="start" x="282.5" y="-232.25" font-family="Cambria" font-size="11.00" fill="#1a1a1a">9 of 9 (100)</text>
<polygon fill="#ffffff" stroke="none" points="374.75,-223.25 374.75,-248.75 481.25,-248.75 481.25,-223.25 374.75,-223.25"/>
<polygon fill="none" stroke="#000000" points="374.75,-223.25 374.75,-248.75 481.25,-248.75 481.25,-223.25 374.75,-223.25"/>
<text xml:space="preserve" text-anchor="start" x="380.75" y="-232.25" font-family="Cambria" font-size="11.00" fill="#1a1a1a">9 of 9 (100)</text>
<polygon fill="#ffffff" stroke="none" points="481.25,-223.25 481.25,-248.75 624.5,-248.75 624.5,-223.25 481.25,-223.25"/>
<polygon fill="none" stroke="#000000" points="481.25,-223.25 481.25,-248.75 624.5,-248.75 624.5,-223.25 481.25,-223.25"/>
<text xml:space="preserve" text-anchor="start" x="487.25" y="-232.25" font-family="Cambria" font-size="11.00" fill="#1a1a1a">9 of 9 (100)</text>
<polygon fill="#ffffff" stroke="none" points="624.5,-223.25 624.5,-248.75 776,-248.75 776,-223.25 624.5,-223.25"/>
<polygon fill="none" stroke="#000000" points="624.5,-223.25 624.5,-248.75 776,-248.75 776,-223.25 624.5,-223.25"/>
<text xml:space="preserve" text-anchor="start" x="630.5" y="-232.25" font-family="Cambria" font-size="11.00" fill="#1a1a1a">9 of 9 (100)</text>
<polygon fill="#ffffff" stroke="none" points="776,-223.25 776,-248.75 908.75,-248.75 908.75,-223.25 776,-223.25"/>
<polygon fill="none" stroke="#000000" points="776,-223.25 776,-248.75 908.75,-248.75 908.75,-223.25 776,-223.25"/>
<text xml:space="preserve" text-anchor="start" x="782" y="-232.25" font-family="Cambria" font-size="11.00" fill="#1a1a1a">9 of 9 (100)</text>
<polygon fill="#ffffff" stroke="none" points="908.75,-223.25 908.75,-248.75 1087.25,-248.75 1087.25,-223.25 908.75,-223.25"/>
<polygon fill="none" stroke="#000000" points="908.75,-223.25 908.75,-248.75 1087.25,-248.75 1087.25,-223.25 908.75,-223.25"/>
<text xml:space="preserve" text-anchor="start" x="914.75" y="-232.25" font-family="Cambria" font-size="11.00" fill="#1a1a1a">9 of 9 (100)</text>
<polygon fill="#ffffff" stroke="none" points="8,-197.75 8,-223.25 173.75,-223.25 173.75,-197.75 8,-197.75"/>
<polyline fill="none" stroke="#000000" points="173.75,-197.75 173.75,-223.25"/>
<text xml:space="preserve" text-anchor="start" x="14" y="-207.8" font-family="Cambria" font-weight="bold" font-size="11.00" fill="#1a1a1a">Proposes a course of action</text>
<polygon fill="#ffffff" stroke="none" points="173.75,-197.75 173.75,-223.25 276.5,-223.25 276.5,-197.75 173.75,-197.75"/>
<polygon fill="none" stroke="#000000" points="173.75,-197.75 173.75,-223.25 276.5,-223.25 276.5,-197.75 173.75,-197.75"/>
<text xml:space="preserve" text-anchor="start" x="179.75" y="-206.75" font-family="Cambria" font-size="11.00" fill="#1a1a1a">9 of 9 (100)</text>
<polygon fill="#ffffff" stroke="none" points="276.5,-197.75 276.5,-223.25 374.75,-223.25 374.75,-197.75 276.5,-197.75"/>
<polygon fill="none" stroke="#000000" points="276.5,-197.75 276.5,-223.25 374.75,-223.25 374.75,-197.75 276.5,-197.75"/>
<text xml:space="preserve" text-anchor="start" x="282.5" y="-206.75" font-family="Cambria" font-size="11.00" fill="#1a1a1a">9 of 9 (100)</text>
<polygon fill="#ffffff" stroke="none" points="374.75,-197.75 374.75,-223.25 481.25,-223.25 481.25,-197.75 374.75,-197.75"/>
<polygon fill="none" stroke="#000000" points="374.75,-197.75 374.75,-223.25 481.25,-223.25 481.25,-197.75 374.75,-197.75"/>
<text xml:space="preserve" text-anchor="start" x="380.75" y="-206.75" font-family="Cambria" font-size="11.00" fill="#1a1a1a">9 of 9 (100)</text>
<polygon fill="#ffffff" stroke="none" points="481.25,-197.75 481.25,-223.25 624.5,-223.25 624.5,-197.75 481.25,-197.75"/>
<polygon fill="none" stroke="#000000" points="481.25,-197.75 481.25,-223.25 624.5,-223.25 624.5,-197.75 481.25,-197.75"/>
<text xml:space="preserve" text-anchor="start" x="487.25" y="-206.75" font-family="Cambria" font-size="11.00" fill="#1a1a1a">9 of 9 (100)</text>
<polygon fill="#ffffff" stroke="none" points="624.5,-197.75 624.5,-223.25 776,-223.25 776,-197.75 624.5,-197.75"/>
<polygon fill="none" stroke="#000000" points="624.5,-197.75 624.5,-223.25 776,-223.25 776,-197.75 624.5,-197.75"/>
<text xml:space="preserve" text-anchor="start" x="630.5" y="-206.75" font-family="Cambria" font-size="11.00" fill="#1a1a1a">9 of 9 (100)</text>
<polygon fill="#ffffff" stroke="none" points="776,-197.75 776,-223.25 908.75,-223.25 908.75,-197.75 776,-197.75"/>
<polygon fill="none" stroke="#000000" points="776,-197.75 776,-223.25 908.75,-223.25 908.75,-197.75 776,-197.75"/>
<text xml:space="preserve" text-anchor="start" x="782" y="-206.75" font-family="Cambria" font-size="11.00" fill="#1a1a1a">9 of 9 (100)</text>
<polygon fill="#ffffff" stroke="none" points="908.75,-197.75 908.75,-223.25 1087.25,-223.25 1087.25,-197.75 908.75,-197.75"/>
<polygon fill="none" stroke="#000000" points="908.75,-197.75 908.75,-223.25 1087.25,-223.25 1087.25,-197.75 908.75,-197.75"/>
<text xml:space="preserve" text-anchor="start" x="914.75" y="-206.75" font-family="Cambria" font-size="11.00" fill="#1a1a1a">9 of 9 (100)</text>
<polygon fill="#ffffff" stroke="none" points="8,-172.25 8,-197.75 173.75,-197.75 173.75,-172.25 8,-172.25"/>
<polyline fill="none" stroke="#000000" points="8,-172.25 173.75,-172.25 173.75,-197.75"/>
<text xml:space="preserve" text-anchor="start" x="14" y="-182.3" font-family="Cambria" font-weight="bold" font-size="11.00" fill="#1a1a1a">Mean criteria met (of 4)</text>
<polygon fill="#fff2cc" stroke="none" points="173.75,-172.25 173.75,-197.75 276.5,-197.75 276.5,-172.25 173.75,-172.25"/>
<polyline fill="none" stroke="#000000" points="173.75,-172.25 276.5,-172.25"/>
<text xml:space="preserve" text-anchor="start" x="179.75" y="-182.3" font-family="Cambria" font-weight="bold" font-size="11.00" fill="#8a6100">3.00</text>
<polygon fill="#fff2cc" stroke="none" points="276.5,-172.25 276.5,-197.75 374.75,-197.75 374.75,-172.25 276.5,-172.25"/>
<polyline fill="none" stroke="#000000" points="276.5,-172.25 374.75,-172.25"/>
<text xml:space="preserve" text-anchor="start" x="282.5" y="-182.3" font-family="Cambria" font-weight="bold" font-size="11.00" fill="#8a6100">3.00</text>
<polygon fill="#d9ead3" stroke="none" points="374.75,-172.25 374.75,-197.75 481.25,-197.75 481.25,-172.25 374.75,-172.25"/>
<polyline fill="none" stroke="#000000" points="374.75,-172.25 481.25,-172.25"/>
<text xml:space="preserve" text-anchor="start" x="380.75" y="-182.3" font-family="Cambria" font-weight="bold" text-decoration="underline" font-size="11.00" fill="#1a7f37">4.00</text>
<polygon fill="#fff2cc" stroke="none" points="481.25,-172.25 481.25,-197.75 624.5,-197.75 624.5,-172.25 481.25,-172.25"/>
<polyline fill="none" stroke="#000000" points="481.25,-172.25 624.5,-172.25"/>
<text xml:space="preserve" text-anchor="start" x="487.25" y="-182.3" font-family="Cambria" font-weight="bold" font-size="11.00" fill="#8a6100">3.00</text>
<polygon fill="#d9ead3" stroke="none" points="624.5,-172.25 624.5,-197.75 776,-197.75 776,-172.25 624.5,-172.25"/>
<polyline fill="none" stroke="#000000" points="624.5,-172.25 776,-172.25"/>
<text xml:space="preserve" text-anchor="start" x="630.5" y="-182.3" font-family="Cambria" font-weight="bold" text-decoration="underline" font-size="11.00" fill="#1a7f37">4.00</text>
<polygon fill="#fff2cc" stroke="none" points="776,-172.25 776,-197.75 908.75,-197.75 908.75,-172.25 776,-172.25"/>
<polyline fill="none" stroke="#000000" points="776,-172.25 908.75,-172.25"/>
<text xml:space="preserve" text-anchor="start" x="782" y="-182.3" font-family="Cambria" font-weight="bold" font-size="11.00" fill="#8a6100">3.00</text>
<polygon fill="#fff2cc" stroke="none" points="908.75,-172.25 908.75,-197.75 1087.25,-197.75 1087.25,-172.25 908.75,-172.25"/>
<polyline fill="none" stroke="#000000" points="908.75,-172.25 1087.25,-172.25"/>
<text xml:space="preserve" text-anchor="start" x="914.75" y="-182.3" font-family="Cambria" font-weight="bold" font-size="11.00" fill="#8a6100">3.00</text>
<polygon fill="none" stroke="#000000" points="8,-166.25 8,-172.25 1087.25,-172.25 1087.25,-166.25 8,-166.25"/>
<polygon fill="none" stroke="#000000" points="8,-136.25 8,-166.25 1087.25,-166.25 1087.25,-136.25 8,-136.25"/>
<polygon fill="#d9ead3" stroke="none" points="11,-139.25 11,-163.25 243.06,-163.25 243.06,-139.25 11,-139.25"/>
<text xml:space="preserve" text-anchor="start" x="16" y="-148.55" font-family="Cambria" font-weight="bold" text-decoration="underline" font-size="11.00" fill="#1a7f37"> </text>
<text xml:space="preserve" text-anchor="start" x="251.06" y="-147.5" font-family="Cambria" font-size="10.00" fill="#5a5a5a">best across all scenarios</text>
<polygon fill="#fff2cc" stroke="none" points="576.38,-139.25 576.38,-163.25 808.44,-163.25 808.44,-139.25 576.38,-139.25"/>
<text xml:space="preserve" text-anchor="start" x="581.38" y="-148.55" font-family="Cambria" font-weight="bold" font-size="11.00" fill="#8a6100"> </text>
<text xml:space="preserve" text-anchor="start" x="816.44" y="-147.5" font-family="Cambria" font-size="10.00" fill="#5a5a5a">second best</text>
<polygon fill="none" stroke="#000000" points="8,-128.25 8,-136.25 1087.25,-136.25 1087.25,-128.25 8,-128.25"/>
<polygon fill="none" stroke="#000000" points="8,-60 8,-128.25 1087.25,-128.25 1087.25,-60 8,-60"/>
<text xml:space="preserve" text-anchor="start" x="10" y="-117.25" font-family="Cambria" font-size="9.00" fill="#5a5a5a">Note. Each criterion is scored by comparing the numbers in the answer against the numbers the</text>
<text xml:space="preserve" text-anchor="start" x="10" y="-104" font-family="Cambria" font-size="9.00" fill="#5a5a5a">tool returned, within five per cent; no judgement is involved. A scenario with no tool access</text>
<text xml:space="preserve" text-anchor="start" x="10" y="-90.75" font-family="Cambria" font-size="9.00" fill="#5a5a5a">cannot satisfy the second criterion, which requires a retrieved source to check a stated range</text>
<text xml:space="preserve" text-anchor="start" x="10" y="-77.5" font-family="Cambria" font-size="9.00" fill="#5a5a5a">against &#45;&#45; that is a finding, not a scoring artefact. These measures record what was</text>
<text xml:space="preserve" text-anchor="start" x="10" y="-64.25" font-family="Cambria" font-size="9.00" fill="#5a5a5a">communicated, not whether it improved a human decision.</text>
</g>
</g>
</svg>
