<?xml version="1.0" encoding="UTF-8" standalone="no"?>
<!DOCTYPE svg PUBLIC "-//W3C//DTD SVG 1.1//EN"
 "http://www.w3.org/Graphics/SVG/1.1/DTD/svg11.dtd">
<!-- Generated by graphviz version 14.1.3 (20260303.0454)
 -->
<!-- Title: system_architecture Pages: 1 -->
<svg width="1240pt" height="600pt"
 viewBox="0.00 0.00 1240.00 600.00" xmlns="http://www.w3.org/2000/svg" xmlns:xlink="http://www.w3.org/1999/xlink">
<g id="graph0" class="graph" transform="scale(1 1) rotate(0) translate(28.8 570.99)">
<title>system_architecture</title>
<polygon fill="#f4f6f9" stroke="none" points="-28.8,28.8 -28.8,-570.99 1210.76,-570.99 1210.76,28.8 -28.8,28.8"/>
<text xml:space="preserve" text-anchor="middle" x="590.98" y="-7.4" font-family="Helvetica Neue" font-size="13.00">System A &#160;· &#160;Multi&#45;Agent Research Framework &#160;· &#160;8 GB RAM Constraint</text>
<g id="clust1" class="cluster">
<title>cluster_inputs</title>
<path fill="#ebf5fb" stroke="#2e86ab" stroke-width="1.2" stroke-dasharray="5,2" d="M389,-425.68C389,-425.68 686,-425.68 686,-425.68 692,-425.68 698,-431.68 698,-437.68 698,-437.68 698,-522.19 698,-522.19 698,-528.19 692,-534.19 686,-534.19 686,-534.19 389,-534.19 389,-534.19 383,-534.19 377,-528.19 377,-522.19 377,-522.19 377,-437.68 377,-437.68 377,-431.68 383,-425.68 389,-425.68"/>
<text xml:space="preserve" text-anchor="middle" x="537.5" y="-432.38" font-family="Helvetica Neue" font-size="9.00" fill="#2e86ab"> &#160;Data Sources &#160;</text>
</g>
<g id="clust2" class="cluster">
<title>cluster_agents</title>
<path fill="#eef9f4" stroke="#1a936f" stroke-width="1.5" d="M20,-146.8C20,-146.8 866,-146.8 866,-146.8 872,-146.8 878,-152.8 878,-158.8 878,-158.8 878,-259.33 878,-259.33 878,-265.33 872,-271.33 866,-271.33 866,-271.33 20,-271.33 20,-271.33 14,-271.33 8,-265.33 8,-259.33 8,-259.33 8,-158.8 8,-158.8 8,-152.8 14,-146.8 20,-146.8"/>
<text xml:space="preserve" text-anchor="middle" x="443" y="-153.5" font-family="Helvetica Neue" font-size="9.00" fill="#1a936f"> &#160;Agent Layer &#160;</text>
</g>
<!-- nielsen -->
<g id="node1" class="node">
<title>nielsen</title>
<path fill="#eaf4fb" stroke="#2e86ab" stroke-width="1.8" d="M514.71,-519.53C514.71,-523.2 485.71,-526.19 450,-526.19 414.29,-526.19 385.29,-523.2 385.29,-519.53 385.29,-519.53 385.29,-459.59 385.29,-459.59 385.29,-455.92 414.29,-452.93 450,-452.93 485.71,-452.93 514.71,-455.92 514.71,-459.59 514.71,-459.59 514.71,-519.53 514.71,-519.53"/>
<path fill="none" stroke="#2e86ab" stroke-width="1.8" d="M514.71,-519.53C514.71,-515.86 485.71,-512.87 450,-512.87 414.29,-512.87 385.29,-515.86 385.29,-519.53"/>
<text xml:space="preserve" text-anchor="middle" x="450" y="-498.06" font-family="Helvetica Neue" font-size="10.00">Nielsen / Prometheus</text>
<text xml:space="preserve" text-anchor="middle" x="450" y="-486.06" font-family="Helvetica Neue" font-size="10.00">CSD Star Schema SQL</text>
<text xml:space="preserve" text-anchor="middle" x="450" y="-474.06" font-family="Helvetica Neue" font-size="10.00">36 months · 28 retailers</text>
</g>
<!-- coord -->
<g id="node3" class="node">
<title>coord</title>
<path fill="#1b3a5c" stroke="#2c3e50" stroke-width="2.5" d="M608.09,-398.93C608.09,-398.93 463.91,-398.93 463.91,-398.93 457.91,-398.93 451.91,-392.93 451.91,-386.93 451.91,-386.93 451.91,-329.33 451.91,-329.33 451.91,-323.33 457.91,-317.33 463.91,-317.33 463.91,-317.33 608.09,-317.33 608.09,-317.33 614.09,-317.33 620.09,-323.33 620.09,-329.33 620.09,-329.33 620.09,-386.93 620.09,-386.93 620.09,-392.93 614.09,-398.93 608.09,-398.93"/>
<text xml:space="preserve" text-anchor="middle" x="536" y="-378.63" font-family="Helvetica Neue" font-size="10.00" fill="#ffffff">Coordinator</text>
<text xml:space="preserve" text-anchor="middle" x="536" y="-366.63" font-family="Helvetica Neue" font-size="10.00" fill="#ffffff">──────────────</text>
<text xml:space="preserve" text-anchor="middle" x="536" y="-354.63" font-family="Helvetica Neue" font-size="10.00" fill="#ffffff">LangGraph StateGraph</text>
<text xml:space="preserve" text-anchor="middle" x="536" y="-342.63" font-family="Helvetica Neue" font-size="10.00" fill="#ffffff">Phase routing · State mgmt</text>
<text xml:space="preserve" text-anchor="middle" x="536" y="-330.63" font-family="Helvetica Neue" font-size="10.00" fill="#ffffff">Human approval gates</text>
</g>
<!-- nielsen&#45;&gt;coord -->
<g id="edge1" class="edge">
<title>nielsen&#45;&gt;coord</title>
<path fill="none" stroke="#2e86ab" stroke-width="1.4" d="M474.18,-452.16C483.32,-438.41 493.87,-422.53 503.64,-407.83"/>
<polygon fill="#2e86ab" stroke="#2e86ab" stroke-width="1.4" points="505.71,-409.78 507.8,-401.57 501.04,-406.68 505.71,-409.78"/>
</g>
<!-- indeks -->
<g id="node2" class="node">
<title>indeks</title>
<path fill="#eaf4fb" stroke="#2e86ab" stroke-width="1.8" d="M689.71,-519.53C689.71,-523.2 659.36,-526.19 622,-526.19 584.64,-526.19 554.29,-523.2 554.29,-519.53 554.29,-519.53 554.29,-459.59 554.29,-459.59 554.29,-455.92 584.64,-452.93 622,-452.93 659.36,-452.93 689.71,-455.92 689.71,-459.59 689.71,-459.59 689.71,-519.53 689.71,-519.53"/>
<path fill="none" stroke="#2e86ab" stroke-width="1.8" d="M689.71,-519.53C689.71,-515.86 659.36,-512.87 622,-512.87 584.64,-512.87 554.29,-515.86 554.29,-519.53"/>
<text xml:space="preserve" text-anchor="middle" x="622" y="-498.06" font-family="Helvetica Neue" font-size="10.00">Indeks Danmark</text>
<text xml:space="preserve" text-anchor="middle" x="622" y="-486.06" font-family="Helvetica Neue" font-size="10.00">Consumer Survey</text>
<text xml:space="preserve" text-anchor="middle" x="622" y="-474.06" font-family="Helvetica Neue" font-size="10.00">20,134 resp. · 6,364 vars</text>
</g>
<!-- indeks&#45;&gt;coord -->
<g id="edge2" class="edge">
<title>indeks&#45;&gt;coord</title>
<path fill="none" stroke="#2e86ab" stroke-width="1.4" d="M597.82,-452.16C588.68,-438.41 578.13,-422.53 568.36,-407.83"/>
<polygon fill="#2e86ab" stroke="#2e86ab" stroke-width="1.4" points="570.96,-406.68 564.2,-401.57 566.29,-409.78 570.96,-406.68"/>
</g>
<!-- a_data -->
<g id="node4" class="node">
<title>a_data</title>
<path fill="#e8f8f1" stroke="#1a936f" stroke-width="1.8" d="M169.71,-245.33C169.71,-245.33 28.29,-245.33 28.29,-245.33 22.29,-245.33 16.29,-239.33 16.29,-233.33 16.29,-233.33 16.29,-204.05 16.29,-204.05 16.29,-198.05 22.29,-192.05 28.29,-192.05 28.29,-192.05 169.71,-192.05 169.71,-192.05 175.71,-192.05 181.71,-198.05 181.71,-204.05 181.71,-204.05 181.71,-233.33 181.71,-233.33 181.71,-239.33 175.71,-245.33 169.71,-245.33"/>
<text xml:space="preserve" text-anchor="middle" x="99" y="-227.19" font-family="Helvetica Neue" font-size="10.00">Data Assessment Agent</text>
<text xml:space="preserve" text-anchor="middle" x="99" y="-215.19" font-family="Helvetica Neue" font-size="10.00">Load · Validate · Feature Eng.</text>
<text xml:space="preserve" text-anchor="middle" x="99" y="-203.19" font-family="Helvetica Neue" font-size="10.00">PCA + k&#45;means &#160;· &#160;~2 GB peak</text>
</g>
<!-- coord&#45;&gt;a_data -->
<g id="edge3" class="edge">
<title>coord&#45;&gt;a_data</title>
<path fill="none" stroke="#1b3a5c" stroke-width="1.6" d="M450.84,-336.81C386.77,-322.05 297.84,-299.71 222,-271.33 206.71,-265.61 190.7,-258.28 175.33,-250.96"/>
<polygon fill="#1b3a5c" stroke="#1b3a5c" stroke-width="1.6" points="177,-248.27 167.53,-247.22 174.28,-253.95 177,-248.27"/>
</g>
<!-- a_forecast -->
<g id="node5" class="node">
<title>a_forecast</title>
<path fill="#e8f8f1" stroke="#1a936f" stroke-width="1.8" d="M386.33,-251.33C386.33,-251.33 233.67,-251.33 233.67,-251.33 227.67,-251.33 221.67,-245.33 221.67,-239.33 221.67,-239.33 221.67,-198.05 221.67,-198.05 221.67,-192.05 227.67,-186.05 233.67,-186.05 233.67,-186.05 386.33,-186.05 386.33,-186.05 392.33,-186.05 398.33,-192.05 398.33,-198.05 398.33,-198.05 398.33,-239.33 398.33,-239.33 398.33,-245.33 392.33,-251.33 386.33,-251.33"/>
<text xml:space="preserve" text-anchor="middle" x="310" y="-233.19" font-family="Helvetica Neue" font-size="10.00">Forecasting Agent</text>
<text xml:space="preserve" text-anchor="middle" x="310" y="-221.19" font-family="Helvetica Neue" font-size="10.00">ARIMA → Prophet → LightGBM</text>
<text xml:space="preserve" text-anchor="middle" x="310" y="-209.19" font-family="Helvetica Neue" font-size="10.00">→ XGBoost → Ridge &#160;(sequential)</text>
<text xml:space="preserve" text-anchor="middle" x="310" y="-197.19" font-family="Helvetica Neue" font-size="10.00">≤ 512 MB / model</text>
</g>
<!-- coord&#45;&gt;a_forecast -->
<g id="edge5" class="edge">
<title>coord&#45;&gt;a_forecast</title>
<path fill="none" stroke="#1b3a5c" stroke-width="1.6" d="M482.65,-316.27C453.73,-297.69 417.73,-275.85 385.98,-257.64"/>
<polygon fill="#1b3a5c" stroke="#1b3a5c" stroke-width="1.6" points="387.76,-255.03 378.38,-253.32 384.65,-260.51 387.76,-255.03"/>
</g>
<!-- a_synthesis -->
<g id="node6" class="node">
<title>a_synthesis</title>
<path fill="#e8f8f1" stroke="#1a936f" stroke-width="1.8" d="M621.34,-263.33C621.34,-263.33 450.67,-263.33 450.67,-263.33 444.67,-263.33 438.67,-257.33 438.67,-251.33 438.67,-251.33 438.67,-186.05 438.67,-186.05 438.67,-180.05 444.67,-174.05 450.67,-174.05 450.67,-174.05 621.34,-174.05 621.34,-174.05 627.34,-174.05 633.34,-180.05 633.34,-186.05 633.34,-186.05 633.34,-251.33 633.34,-251.33 633.34,-257.33 627.34,-263.33 621.34,-263.33"/>
<text xml:space="preserve" text-anchor="middle" x="536" y="-245.19" font-family="Helvetica Neue" font-size="10.00">Synthesis Agent</text>
<text xml:space="preserve" text-anchor="middle" x="536" y="-233.19" font-family="Helvetica Neue" font-size="10.00">① Ensemble weighting</text>
<text xml:space="preserve" text-anchor="middle" x="536" y="-221.19" font-family="Helvetica Neue" font-size="10.00">② Interval calibration &#160;(Kuleshov 2018)</text>
<text xml:space="preserve" text-anchor="middle" x="536" y="-209.19" font-family="Helvetica Neue" font-size="10.00">③ Consumer signal adjustment</text>
<text xml:space="preserve" text-anchor="middle" x="536" y="-197.19" font-family="Helvetica Neue" font-size="10.00">④ Confidence score &#160;0–100</text>
<text xml:space="preserve" text-anchor="middle" x="536" y="-185.19" font-family="Helvetica Neue" font-size="10.00">⑤ LLM recommendation</text>
</g>
<!-- coord&#45;&gt;a_synthesis -->
<g id="edge7" class="edge">
<title>coord&#45;&gt;a_synthesis</title>
<path fill="none" stroke="#1b3a5c" stroke-width="1.6" d="M549.85,-316.27C550.97,-303.41 551.27,-288.98 550.75,-275.28"/>
<polygon fill="#1b3a5c" stroke="#1b3a5c" stroke-width="1.6" points="553.91,-275.22 550.26,-266.41 547.62,-275.57 553.91,-275.22"/>
</g>
<!-- a_valid -->
<g id="node7" class="node">
<title>a_valid</title>
<path fill="#e8f8f1" stroke="#1a936f" stroke-width="1.8" d="M858.46,-251.33C858.46,-251.33 685.54,-251.33 685.54,-251.33 679.54,-251.33 673.54,-245.33 673.54,-239.33 673.54,-239.33 673.54,-198.05 673.54,-198.05 673.54,-192.05 679.54,-186.05 685.54,-186.05 685.54,-186.05 858.46,-186.05 858.46,-186.05 864.46,-186.05 870.46,-192.05 870.46,-198.05 870.46,-198.05 870.46,-239.33 870.46,-239.33 870.46,-245.33 864.46,-251.33 858.46,-251.33"/>
<text xml:space="preserve" text-anchor="middle" x="772" y="-233.19" font-family="Helvetica Neue" font-size="10.00">Validation Agent</text>
<text xml:space="preserve" text-anchor="middle" x="772" y="-221.19" font-family="Helvetica Neue" font-size="10.00">Level 1 · ML accuracy (MAPE / RMSE)</text>
<text xml:space="preserve" text-anchor="middle" x="772" y="-209.19" font-family="Helvetica Neue" font-size="10.00">Level 2 · LLM&#45;as&#45;Judge &#160;N = 50</text>
<text xml:space="preserve" text-anchor="middle" x="772" y="-197.19" font-family="Helvetica Neue" font-size="10.00">Level 3 · RAM + latency profile</text>
</g>
<!-- coord&#45;&gt;a_valid -->
<g id="edge11" class="edge">
<title>coord&#45;&gt;a_valid</title>
<path fill="none" stroke="#1b3a5c" stroke-width="1.6" d="M620.02,-316.27C653.24,-297.85 690.3,-276.23 719.64,-258.12"/>
<polygon fill="#1b3a5c" stroke="#1b3a5c" stroke-width="1.6" points="721.25,-260.83 727.22,-253.4 717.92,-255.48 721.25,-260.83"/>
</g>
<!-- output -->
<g id="node9" class="node">
<title>output</title>
<polygon fill="#fdfaf0" stroke="#c17817" stroke-width="1.8" points="1175.96,-245.33 910.04,-245.33 910.04,-192.05 1181.96,-192.05 1181.96,-239.33 1175.96,-245.33"/>
<polyline fill="none" stroke="#c17817" stroke-width="1.8" points="1175.96,-245.33 1175.96,-239.33"/>
<polyline fill="none" stroke="#c17817" stroke-width="1.8" points="1181.96,-239.33 1175.96,-239.33"/>
<text xml:space="preserve" text-anchor="middle" x="1046" y="-227.19" font-family="Helvetica Neue" font-size="10.00">Decision Output</text>
<text xml:space="preserve" text-anchor="middle" x="1046" y="-215.19" font-family="Helvetica Neue" font-size="10.00">Calibrated forecast &#160;+ &#160;90% interval</text>
<text xml:space="preserve" text-anchor="middle" x="1046" y="-203.19" font-family="Helvetica Neue" font-size="10.00">Confidence score &#160;· &#160;Natural language recommendation</text>
</g>
<!-- coord&#45;&gt;output -->
<g id="edge13" class="edge">
<title>coord&#45;&gt;output</title>
<path fill="none" stroke="#c17817" stroke-width="2" d="M621.12,-338.31C692.71,-322.02 797.56,-297.09 888,-271.33 910.36,-264.96 934.3,-257.48 956.61,-250.23"/>
<polygon fill="#c17817" stroke="#c17817" stroke-width="2" points="957.52,-253.61 965.94,-247.17 955.35,-246.96 957.52,-253.61"/>
</g>
<!-- a_data&#45;&gt;coord -->
<g id="edge4" class="edge">
<title>a_data&#45;&gt;coord</title>
<path fill="none" stroke="#5d6d7e" stroke-dasharray="5,2" d="M127.45,-246.04C143.45,-254.91 163.27,-264.32 182,-271.33 267.57,-303.35 369.82,-327.69 442.69,-342.12"/>
<polygon fill="#5d6d7e" stroke="#5d6d7e" points="442.15,-344.51 449.5,-343.46 443.1,-339.7 442.15,-344.51"/>
</g>
<!-- a_forecast&#45;&gt;coord -->
<g id="edge6" class="edge">
<title>a_forecast&#45;&gt;coord</title>
<path fill="none" stroke="#5d6d7e" stroke-dasharray="5,2" d="M350.36,-252.12C377.58,-270.02 414.21,-292.54 447.83,-312.13"/>
<polygon fill="#5d6d7e" stroke="#5d6d7e" points="446.36,-314.11 453.65,-315.51 448.82,-309.87 446.36,-314.11"/>
</g>
<!-- a_synthesis&#45;&gt;coord -->
<g id="edge10" class="edge">
<title>a_synthesis&#45;&gt;coord</title>
<path fill="none" stroke="#5d6d7e" stroke-dasharray="5,2" d="M521.88,-263.99C520.83,-278.03 520.72,-293.62 521.55,-307.98"/>
<polygon fill="#5d6d7e" stroke="#5d6d7e" points="519.1,-307.95 522.04,-314.76 523.98,-307.6 519.1,-307.95"/>
</g>
<!-- claude -->
<g id="node8" class="node">
<title>claude</title>
<polygon fill="#fdebd0" stroke="#c17817" stroke-width="1.8" points="536,-120.05 438.59,-71.9 536,-23.75 633.41,-71.9 536,-120.05"/>
<text xml:space="preserve" text-anchor="middle" x="536" y="-80.23" font-family="Helvetica Neue" font-size="9.00">Claude API</text>
<text xml:space="preserve" text-anchor="middle" x="536" y="-68.98" font-family="Helvetica Neue" font-size="9.00">sonnet&#45;4&#45;6 &#160;· &#160;T = 0</text>
<text xml:space="preserve" text-anchor="middle" x="536" y="-57.73" font-family="Helvetica Neue" font-size="9.00">~0 MB local RAM</text>
</g>
<!-- a_synthesis&#45;&gt;claude -->
<g id="edge8" class="edge">
<title>a_synthesis&#45;&gt;claude</title>
<path fill="none" stroke="#c17817" stroke-width="1.3" stroke-dasharray="5,2" d="M522.06,-173.46C520.8,-157.46 520.66,-139.29 521.66,-122.84"/>
<polygon fill="#c17817" stroke="#c17817" stroke-width="1.3" points="524.1,-123.02 522.18,-115.86 519.22,-122.65 524.1,-123.02"/>
</g>
<!-- a_valid&#45;&gt;coord -->
<g id="edge12" class="edge">
<title>a_valid&#45;&gt;coord</title>
<path fill="none" stroke="#5d6d7e" stroke-dasharray="5,2" d="M703.36,-252.12C670.52,-269.95 631.64,-292.36 599.49,-311.89"/>
<polygon fill="#5d6d7e" stroke="#5d6d7e" points="598.31,-309.74 593.61,-315.48 600.87,-313.92 598.31,-309.74"/>
</g>
<!-- claude&#45;&gt;a_synthesis -->
<g id="edge9" class="edge">
<title>claude&#45;&gt;a_synthesis</title>
<path fill="none" stroke="#c17817" stroke-width="1.3" stroke-dasharray="5,2" d="M549.67,-113.89C551.1,-129.73 551.38,-148.04 550.5,-164.84"/>
<polygon fill="#c17817" stroke="#c17817" stroke-width="1.3" points="548.08,-164.35 550.07,-171.5 552.97,-164.67 548.08,-164.35"/>
</g>
</g>
</svg>
